<?xml version="1.0" encoding="UTF-8" standalone="no"?>
<!-- Created with Inkscape (http://www.inkscape.org/) -->

<svg
   xmlns:dc="http://purl.org/dc/elements/1.1/"
   xmlns:cc="http://creativecommons.org/ns#"
   xmlns:rdf="http://www.w3.org/1999/02/22-rdf-syntax-ns#"
   xmlns:svg="http://www.w3.org/2000/svg"
   xmlns="http://www.w3.org/2000/svg"
   xmlns:sodipodi="http://sodipodi.sourceforge.net/DTD/sodipodi-0.dtd"
   xmlns:inkscape="http://www.inkscape.org/namespaces/inkscape"
   width="42.068748mm"
   height="42.079922mm"
   viewBox="0 0 42.068751 42.079921"
   version="1.1"
   id="svg8"
   inkscape:export-filename="C:\web-projects\purl-in\images\favicon.png"
   inkscape:export-xdpi="232.36362"
   inkscape:export-ydpi="232.36362"
   sodipodi:docname="link3.svg"
   inkscape:version="0.92.4 (5da689c313, 2019-01-14)">
  <defs
     id="defs2">
    <mask
       id="SvgjsMask1643">
      <rect
         id="rect848"
         height="750"
         width="1920"
         x="0"
         y="0"
         style="fill:#ffffff" />
    </mask>
    <linearGradient
       id="SvgjsLinearGradient1644"
       gradientUnits="userSpaceOnUse"
       y2="-0.38999999"
       x2="0.84769994"
       y1="1.39"
       x1="0.1523">
      <stop
         id="stop851"
         offset="0"
         stop-color="rgba(96, 9, 38, 1)" />
      <stop
         id="stop853"
         offset="1"
         stop-color="rgba(248, 34, 150, 1)" />
    </linearGradient>
  </defs>
  <sodipodi:namedview
     id="base"
     pagecolor="#ffffff"
     bordercolor="#666666"
     borderopacity="1.0"
     inkscape:pageopacity="0.0"
     inkscape:pageshadow="2"
     inkscape:zoom="3.2121101"
     inkscape:cx="99.440924"
     inkscape:cy="99.467324"
     inkscape:document-units="mm"
     inkscape:current-layer="g901"
     showgrid="false"
     showguides="true"
     inkscape:guide-bbox="true"
     inkscape:window-width="1600"
     inkscape:window-height="838"
     inkscape:window-x="-8"
     inkscape:window-y="-8"
     inkscape:window-maximized="1" />
  <metadata
     id="metadata5">
    <rdf:RDF>
      <cc:Work
         rdf:about="">
        <dc:format>image/svg+xml</dc:format>
        <dc:type
           rdf:resource="http://purl.org/dc/dcmitype/StillImage" />
        <dc:title />
      </cc:Work>
    </rdf:RDF>
  </metadata>
  <g
     inkscape:label="Layer 1"
     inkscape:groupmode="layer"
     id="layer1"
     transform="translate(397.07512,-54.103654)">
    <g
       id="g901"
       transform="matrix(0.26458333,0,0,0.26458333,-399.57396,-1.7443517)">
      <path
         d="m 115.55984,220.90826 -38.541265,38.55257 c -0.51203,0.51238 -1.005552,1.03494 -1.478994,1.56796 1.352489,-0.17122 2.71362,-0.26512 4.076787,-0.28124 4.225535,-0.0416 8.425741,0.65689 12.410441,2.06368 l 32.714371,-32.72569 c 3.32224,-3.63152 7.94892,-5.79752 12.86567,-6.0231 4.69535,0.0664 9.15824,2.05467 12.34773,5.50111 3.44825,3.18724 5.43944,7.64856 5.50922,12.34368 -0.22248,4.91696 -2.38556,9.54508 -6.01504,12.86969 l -38.54126,38.55257 c -3.32146,3.63173 -7.94732,5.79842 -12.863634,6.02516 -4.696349,-0.0666 -9.160004,-2.05563 -12.34976,-5.50317 -0.98832,-0.9838 -1.878298,-2.06175 -2.65647,-3.21896 -0.971028,-0.44779 -2.028264,-0.67775 -3.097559,-0.67371 -2.779816,0.25789 -5.358256,1.56091 -7.21481,3.64584 l -1.897763,1.89777 c 1.529347,2.76871 3.444986,5.30563 5.689286,7.53449 5.666541,5.90474 13.484915,9.25984 21.668694,9.29874 8.308026,-0.27581 16.175066,-3.80495 21.905416,-9.8268 l 38.53899,-38.55483 c 6.01823,-5.73344 9.54294,-13.60186 9.81454,-21.90955 -0.0442,-8.18375 -3.40445,-15.99993 -9.31287,-21.66261 -5.66575,-5.90643 -13.48428,-9.26306 -21.66871,-9.30278 -8.30759,0.27689 -16.17384,3.80673 -21.90338,9.82881 z M 57.800388,278.6919 19.25912,317.24447 c -6.018252,5.73338 -9.54302,13.60175 -9.8146916,21.90942 0.044149,8.18475 3.4051756,16.00184 9.3148956,21.66464 5.66585,5.90629 13.484311,9.2629 21.668711,9.30277 8.307632,-0.27675 16.17392,-3.80663 21.903385,-9.82881 l 38.54127,-38.55258 c 0.51202,-0.5123 1.00356,-1.03702 1.47696,-1.57 -1.35114,0.17104 -2.710922,0.26494 -4.072747,0.28124 -4.226084,0.0424 -8.426978,-0.65541 -12.412462,-2.06166 l -32.715526,32.72456 c -3.321439,3.63173 -7.947303,5.79841 -12.863622,6.02516 -4.695925,-0.0676 -9.158832,-2.05738 -12.347735,-5.50519 -3.448291,-3.18721 -5.439479,-7.64854 -5.509213,-12.34368 0.223574,-4.91654 2.387357,-9.54386 6.017061,-12.86767 l 38.541258,-38.55256 c 3.321429,-3.63179 7.947312,-5.79848 12.863647,-6.02517 4.694941,0.0675 9.157013,2.05649 12.345698,5.50317 0.989008,0.98448 1.879769,2.06298 2.658501,3.22098 0.971843,0.44728 2.029757,0.67656 3.099576,0.67167 2.779794,-0.25794 5.358204,-1.56089 7.214814,-3.64581 l 1.89574,-1.89578 c -1.52929,-2.76868 -3.4449,-5.30561 -5.68922,-7.53439 -5.665758,-5.90638 -13.484283,-9.26301 -21.668687,-9.30279 -8.30861,0.27695 -16.175685,3.80759 -21.905431,9.83083 z"
         id="path881-6"
         inkscape:connector-curvature="0"
         style="fill:#f5f6fb;fill-opacity:1;stroke-width:1.46496832"
         sodipodi:nodetypes="cccccccccccccccccccccccccccccccccccccccccccccccccccc" />
    </g>
  </g>
</svg>
