<?xml version="1.0" encoding="UTF-8" standalone="no"?>
<!-- Created with Inkscape (http://www.inkscape.org/) -->

<svg
   xmlns:dc="http://purl.org/dc/elements/1.1/"
   xmlns:cc="http://creativecommons.org/ns#"
   xmlns:rdf="http://www.w3.org/1999/02/22-rdf-syntax-ns#"
   xmlns:svg="http://www.w3.org/2000/svg"
   xmlns="http://www.w3.org/2000/svg"
   xmlns:sodipodi="http://sodipodi.sourceforge.net/DTD/sodipodi-0.dtd"
   xmlns:inkscape="http://www.inkscape.org/namespaces/inkscape"
   width="73.761024mm"
   height="73.580292mm"
   viewBox="0 0 73.761026 73.58029"
   version="1.1"
   id="svg8"
   sodipodi:docname="branded-links.svg"
   inkscape:version="0.92.4 (5da689c313, 2019-01-14)">
  <defs
     id="defs2">
    <mask
       id="SvgjsMask1643">
      <rect
         style="fill:#ffffff"
         y="0"
         x="0"
         width="1920"
         height="750"
         id="rect848" />
    </mask>
    <linearGradient
       x1="0.1523"
       y1="1.39"
       x2="0.84769994"
       y2="-0.38999999"
       gradientUnits="userSpaceOnUse"
       id="SvgjsLinearGradient1644">
      <stop
         stop-color="rgba(96, 9, 38, 1)"
         offset="0"
         id="stop851" />
      <stop
         stop-color="rgba(248, 34, 150, 1)"
         offset="1"
         id="stop853" />
    </linearGradient>
  </defs>
  <sodipodi:namedview
     id="base"
     pagecolor="#ffffff"
     bordercolor="#666666"
     borderopacity="1.0"
     inkscape:pageopacity="0.0"
     inkscape:pageshadow="2"
     inkscape:zoom="2.3605452"
     inkscape:cx="146.88313"
     inkscape:cy="141.11172"
     inkscape:document-units="mm"
     inkscape:current-layer="layer1"
     showgrid="false"
     inkscape:window-width="1600"
     inkscape:window-height="838"
     inkscape:window-x="-8"
     inkscape:window-y="-8"
     inkscape:window-maximized="1" />
  <metadata
     id="metadata5">
    <rdf:RDF>
      <cc:Work
         rdf:about="">
        <dc:format>image/svg+xml</dc:format>
        <dc:type
           rdf:resource="http://purl.org/dc/dcmitype/StillImage" />
        <dc:title></dc:title>
      </cc:Work>
    </rdf:RDF>
  </metadata>
  <g
     inkscape:label="Layer 1"
     inkscape:groupmode="layer"
     id="layer1"
     transform="translate(105.81035,40.254494)">
    <g
       id="g2773"
       transform="matrix(1.457729,0,0,1.457729,-286.30079,-61.948455)"
       style="fill:#f6f7fa;fill-opacity:0.66666667" />
    <ellipse
       ry="36.783146"
       rx="36.887493"
       cy="-21.186659"
       cx="65.684471"
       id="path827"
       style="opacity:1;fill:#f7f8fa;fill-opacity:1;fill-rule:nonzero;stroke:none;stroke-width:4.91153193;stroke-linecap:butt;stroke-linejoin:miter;stroke-miterlimit:4;stroke-dasharray:none;stroke-dashoffset:0;stroke-opacity:1;paint-order:normal"
       transform="matrix(-0.96592583,0.25881904,0.25881904,0.96592583,0,0)" />
    <ellipse
       style="fill:#ffffff;stroke-width:0.26458332"
       cx="28.981012"
       cy="42.66835"
       rx="0.95280164"
       ry="1.3696448"
       transform="matrix(-0.24565727,-0.96935675,-0.96935675,0.24565727,0,0)"
       id="ellipse972" />
    <ellipse
       style="fill:#3f3d56;stroke-width:0.26458332"
       cx="44.402081"
       cy="68.822884"
       rx="0.95280164"
       ry="1.3696448"
       transform="matrix(-0.24565727,-0.96935675,-0.96935675,0.24565727,0,0)"
       id="ellipse974" />
    <ellipse
       style="fill:#ff6584;stroke-width:0.26458332"
       cx="28.548681"
       cy="52.190723"
       rx="0.95280164"
       ry="1.3696448"
       transform="matrix(-0.24565727,-0.96935675,-0.96935675,0.24565727,0,0)"
       id="ellipse976" />
    <ellipse
       style="fill:#e6e6e6;stroke-width:0.26458335"
       cx="28.850706"
       cy="64.035797"
       rx="0.86561346"
       ry="0.60216784"
       transform="matrix(-0.11104694,-0.99381516,-0.99381516,0.11104694,0,0)"
       id="ellipse978" />
    <ellipse
       style="fill:#3f3d56;stroke-width:0.26458335"
       cx="23.355944"
       cy="65.390656"
       rx="0.86561346"
       ry="0.60216784"
       transform="matrix(-0.11104694,-0.99381516,-0.99381516,0.11104694,0,0)"
       id="ellipse980" />
    <ellipse
       style="fill:#ff6584;stroke-width:0.26458335"
       cx="19.248865"
       cy="47.219696"
       rx="0.86561346"
       ry="0.60216784"
       transform="matrix(-0.11104694,-0.99381516,-0.99381516,0.11104694,0,0)"
       id="ellipse984" />
    <ellipse
       style="fill:#ffffff;stroke-width:0.26458332"
       cx="2.7490599"
       cy="70.604263"
       rx="0.95280164"
       ry="1.3696448"
       transform="matrix(-0.24565727,-0.96935675,-0.96935675,0.24565727,0,0)"
       id="ellipse1016" />
    <ellipse
       style="fill:#3f3d56;stroke-width:0.26458332"
       cx="0.60528779"
       cy="61.910004"
       rx="0.95280164"
       ry="1.3696448"
       transform="matrix(-0.24565727,-0.96935675,-0.96935675,0.24565727,0,0)"
       id="ellipse1018" />
    <ellipse
       style="fill:#ff6584;stroke-width:0.26458332"
       cx="8.0121202"
       cy="78.83387"
       rx="0.95280164"
       ry="1.3696448"
       transform="matrix(-0.24565727,-0.96935675,-0.96935675,0.24565727,0,0)"
       id="ellipse1020" />
    <ellipse
       style="fill:#e6e6e6;stroke-width:0.26458335"
       cx="1.8235043"
       cy="87.966835"
       rx="0.86561346"
       ry="0.60216784"
       transform="matrix(-0.11104694,-0.99381516,-0.99381516,0.11104694,0,0)"
       id="ellipse1022" />
    <ellipse
       style="fill:#3f3d56;stroke-width:0.26458335"
       cx="-3.6712544"
       cy="89.321709"
       rx="0.86561346"
       ry="0.60216784"
       transform="matrix(-0.11104694,-0.99381516,-0.99381516,0.11104694,0,0)"
       id="ellipse1024" />
    <ellipse
       style="fill:#e6e6e6;stroke-width:0.26458335"
       cx="-10.068944"
       cy="75.097046"
       rx="0.86561346"
       ry="0.60216784"
       transform="matrix(-0.11104694,-0.99381516,-0.99381516,0.11104694,0,0)"
       id="ellipse1026" />
    <ellipse
       style="fill:#ff6584;stroke-width:0.26458335"
       cx="-3.2166917"
       cy="71.228523"
       rx="0.86561346"
       ry="0.60216784"
       transform="matrix(-0.11104694,-0.99381516,-0.99381516,0.11104694,0,0)"
       id="ellipse1028" />
    <ellipse
       style="fill:#3f3d56;stroke-width:0.26458335"
       cx="-6.6217074"
       cy="65.288513"
       rx="0.86561346"
       ry="0.60216784"
       transform="matrix(-0.11104694,-0.99381516,-0.99381516,0.11104694,0,0)"
       id="ellipse1030" />
    <ellipse
       style="fill:#ffffff;stroke-width:0.26458332"
       cx="42.059288"
       cy="88.049744"
       rx="0.95280164"
       ry="1.3696448"
       transform="matrix(-0.24565727,-0.96935675,-0.96935675,0.24565727,0,0)"
       id="ellipse1048" />
    <ellipse
       style="fill:#3f3d56;stroke-width:0.26458332"
       cx="-0.61018115"
       cy="48.970337"
       rx="0.95280164"
       ry="1.3696448"
       transform="matrix(-0.24565727,-0.96935675,-0.96935675,0.24565727,0,0)"
       id="ellipse1050" />
    <ellipse
       style="fill:#ff6584;stroke-width:0.26458332"
       cx="5.4360762"
       cy="39.135452"
       rx="0.95280164"
       ry="1.3696448"
       transform="matrix(-0.24565727,-0.96935675,-0.96935675,0.24565727,0,0)"
       id="ellipse1052" />
    <ellipse
       style="fill:#e6e6e6;stroke-width:0.26458335"
       cx="19.711718"
       cy="98.601669"
       rx="0.86561346"
       ry="0.60216784"
       transform="matrix(-0.11104694,-0.99381516,-0.99381516,0.11104694,0,0)"
       id="ellipse1054" />
    <ellipse
       style="fill:#3f3d56;stroke-width:0.26458335"
       cx="14.216953"
       cy="99.956551"
       rx="0.86561346"
       ry="0.60216784"
       transform="matrix(-0.11104694,-0.99381516,-0.99381516,0.11104694,0,0)"
       id="ellipse1056" />
    <ellipse
       style="fill:#e6e6e6;stroke-width:0.26458335"
       cx="27.367271"
       cy="79.288399"
       rx="0.86561346"
       ry="0.60216784"
       transform="matrix(-0.11104694,-0.99381516,-0.99381516,0.11104694,0,0)"
       id="ellipse1058" />
    <ellipse
       style="fill:#ff6584;stroke-width:0.26458335"
       cx="26.010462"
       cy="93.961487"
       rx="0.86561346"
       ry="0.60216784"
       transform="matrix(-0.11104694,-0.99381516,-0.99381516,0.11104694,0,0)"
       id="ellipse1060" />
    <ellipse
       style="fill:#3f3d56;stroke-width:0.26458335"
       cx="29.939409"
       cy="87.93634"
       rx="0.86561346"
       ry="0.60216784"
       transform="matrix(-0.11104694,-0.99381516,-0.99381516,0.11104694,0,0)"
       id="ellipse1062" />
    <text
       xml:space="preserve"
       style="font-style:normal;font-variant:normal;font-weight:normal;font-stretch:normal;font-size:14.11111069px;line-height:1.25;font-family:'Open Sans';-inkscape-font-specification:'Open Sans';text-align:center;letter-spacing:0px;word-spacing:0px;text-anchor:middle;fill:#000000;fill-opacity:1;stroke:none;stroke-width:0.26458332"
       x="-75.58252"
       y="13.456317"
       id="text1631"><tspan
         sodipodi:role="line"
         id="tspan1629"
         x="-75.58252"
         y="25.959454"
         style="stroke-width:0.26458332" /></text>
    <text
       xml:space="preserve"
       style="font-style:normal;font-variant:normal;font-weight:normal;font-stretch:normal;font-size:14.11111069px;line-height:1.25;font-family:'Open Sans';-inkscape-font-specification:'Open Sans';text-align:center;letter-spacing:0px;word-spacing:0px;text-anchor:middle;fill:#000000;fill-opacity:1;stroke:none;stroke-width:0.26458332"
       x="-69.572548"
       y="13.413977"
       id="text3759"><tspan
         sodipodi:role="line"
         id="tspan3757"
         x="-69.572548"
         y="25.917112"
         style="stroke-width:0.26458332" /></text>
    <g
       id="g1044"
       transform="matrix(1.031624,0,0,1.031624,1.0712976,0.09282216)">
      <path
         sodipodi:nodetypes="cccccccc"
         style="fill:#2b00e1;fill-opacity:1;stroke-width:0.26667786"
         inkscape:connector-curvature="0"
         id="path1046"
         d="m -83.593021,-12.030986 14.891754,2.8961477 c 0.129431,0.025208 0.257105,0.053839 0.382812,0.086082 -0.221539,0.1118362 -0.436513,0.2362209 -0.643879,0.3725473 -0.641927,0.4238609 -1.204702,0.956822 -1.662853,1.5747434 l -13.41925,-2.6099216 c 0.451416,-2.3195988 0,0 0.451428,-2.3196898 z" />
      <path
         d="m -70.479255,-0.00153969 c 0.870943,0.20998071 1.789612,0.06608241 2.554639,-0.40014946 0.701973,-0.48810056 1.284384,-1.81497525 1.414827,-2.65995565 0.04902,-0.2490791 0.07359,-0.5023474 0.07323,-0.7562007 0.100957,-0.1664274 0.237102,-0.3087508 0.398889,-0.4169857 0.445768,-0.2440481 0.967531,-0.30987 1.459944,-0.1842083 l 0.479586,0.09322 c 0.05103,0.5735175 0.02017,1.1513807 -0.09164,1.7162011 -0.254104,1.4679328 -1.203734,3.3424512 -2.434831,4.1813729 -1.281884,0.8040819 -2.828381,1.0722942 -4.306166,0.7468205 0.451522,-2.32011469 0,0 0.451522,-2.32011469 z"
         id="path881-6-8-9-3"
         inkscape:connector-curvature="0"
         style="fill:#2b00e1;fill-opacity:1;stroke-width:0.26667786"
         sodipodi:nodetypes="ccccccccccc" />
      <path
         sodipodi:nodetypes="ccccc"
         style="fill:#ff0400;fill-opacity:1;stroke-width:0.26667786"
         inkscape:connector-curvature="0"
         id="path993"
         d="m -85.371009,-2.8976883 14.891754,2.89614861 -0.451522,2.32011469 -14.89164,-2.89672075 c 0.451408,-2.31954255 0,0 0.451408,-2.31954255 z" />
      <path
         d="m -83.593021,-12.030986 -0.451416,2.3195988 c -0.871043,-0.2098668 -1.789761,-0.065784 -2.554738,0.4006645 -0.701845,0.4879739 -1.172963,1.2423305 -1.303479,2.0871198 -0.195957,0.8320145 -0.153573,2.2803041 0.313833,2.9959734 0.534088,0.7193961 1.331649,1.1976641 2.217812,1.3299412 -0.451408,2.31954255 0,0 -0.451408,2.31954255 -1.491871,-0.25264605 -2.824756,-1.08131675 -3.711415,-2.30742845 -0.826377,-1.2395519 -1.003661,-3.3335007 -0.688415,-4.7895277 0.253812,-1.4681057 1.092067,-2.7705501 2.323175,-3.6096671 1.28193,-0.803873 2.828379,-1.071898 4.306063,-0.746308 z"
         id="path995"
         inkscape:connector-curvature="0"
         style="fill:#00e300;fill-opacity:1;stroke-width:0.26667786"
         sodipodi:nodetypes="cccccccccccc" />
      <path
         sodipodi:nodetypes="cccccccccccccccccccc"
         style="fill:#f61be4;fill-opacity:1;stroke-width:0.26667786"
         inkscape:connector-curvature="0"
         id="path997"
         d="m -63.843351,-8.1888625 14.891753,2.8961488 c 1.491868,0.2526378 2.824759,1.0812944 3.711425,2.3073941 0.826492,1.2396974 1.114993,2.76154635 0.799562,4.2177199 -0.25384,1.4680947 -1.203331,3.3428489 -2.434422,4.1819845 -1.299952,-1.9737322 0,0 -1.299952,-1.9737322 0.701803,-0.4882208 1.284027,-1.8151207 1.414314,-2.6600562 0.195964,-0.83201081 0.04233,-1.70798547 -0.42508,-2.4236501 -0.534214,-0.7192235 -1.331793,-1.1972996 -2.217913,-1.3294316 l -14.891754,-2.8961488 c -0.870942,-0.2099901 -1.789616,-0.066093 -2.554638,0.4001495 -0.701669,0.4881009 -1.172598,1.2424819 -1.302967,2.0872238 -0.04904,0.2492475 -0.07369,0.5026854 -0.07334,0.7567109 -0.101132,0.1664324 -0.23745,0.3087198 -0.399398,0.4168868 -0.445771,0.2440368 -0.967523,0.3098676 -1.459944,0.1842083 l -0.479075,-0.093122 c -0.05104,-0.5735117 -0.02019,-1.1513715 0.09164,-1.7161852 0.25382,-1.4680999 1.09207,-2.770542 2.323171,-3.6096628 1.282088,-0.8039672 2.828745,-1.0719598 4.306577,-0.7462098 z" />
      <path
         d="m -46.875033,5.4143848 c -1.281923,0.8038948 -2.828381,1.0719239 -4.306064,0.7463076 L -66.07285,3.2645437 c -0.129421,-0.025197 -0.257016,-0.054354 -0.382711,-0.086597 0.221318,-0.1117235 0.436086,-0.2359696 0.643265,-0.372136 0.642091,-0.4237999 1.205045,-0.9567237 1.663368,-1.5746457 l 13.419304,2.6096371 c 0.870943,0.2099779 1.789612,0.066082 2.554639,-0.4001495 1.299952,1.9737322 0,0 1.299952,1.9737322 z"
         id="path999"
         inkscape:connector-curvature="0"
         style="fill:#ffec11;fill-opacity:1;stroke-width:0.26667786"
         sodipodi:nodetypes="ccccccccc" />
    </g>
  </g>
</svg>
