<svg xmlns="http://www.w3.org/2000/svg" version="1.1" xmlns:xlink="http://www.w3.org/1999/xlink" xmlns:svgjs="http://svgjs.com/svgjs" width="1920" height="750" preserveAspectRatio="none" viewBox="0 0 1920 750"><g mask="url(&quot;#SvgjsMask1108&quot;)" fill="none"><rect width="1920" height="750" x="0" y="0" fill="rgba(255, 64, 115, 1)"></rect><path d="M0,838.618C155.383,837.081,236.346,651.33,351.609,547.114C446.244,461.549,563.226,397.473,616.249,281.431C669.278,165.377,661.341,33.818,643.906,-92.58C626.389,-219.574,578.618,-335.188,515.782,-446.928C439.213,-583.09,380.853,-748.218,238.742,-813.081C93.033,-879.586,-74.651,-821.05,-231.36,-787.94C-400.23,-752.261,-595.049,-743.991,-707.599,-613.138C-820.096,-482.347,-815.106,-288.731,-809.038,-116.322C-803.709,35.073,-759.97,182.81,-675.166,308.338C-598.46,421.88,-463.868,469.477,-356.107,554.113C-234.15,649.898,-155.067,840.152,0,838.618" fill="#ff1755"></path><path d="M1920 1411.493C2054.987 1429.848 2197.444 1432.663 2318.217 1369.638 2443.975 1304.012 2532.633 1185.63 2596.008 1058.722 2660.937 928.702 2695.386 785.133 2682.3869999999997 640.385 2668.939 490.641 2606.703 352.675 2521.478 228.817 2428.285 93.37800000000004 2331.533-69.88300000000004 2170.5860000000002-103.41899999999998 2010.099-136.85900000000004 1872.381 6.787000000000035 1717.796 61.355999999999995 1573.6979999999999 112.22299999999996 1404.596 102.36300000000006 1292.73 206.46799999999996 1176.63 314.513 1125.164 475.498 1103.9009999999998 632.663 1082.7530000000002 788.982 1077.914 965.295 1173.046 1091.123 1265.348 1213.209 1445.13 1209.714 1585.789 1270.0430000000001 1699.263 1318.712 1797.655 1394.857 1920 1411.493" fill="#ff6a91"></path></g><defs><mask id="SvgjsMask1108"><rect width="1920" height="750" fill="#ffffff"></rect></mask></defs></svg>