<?xml version="1.0" encoding="UTF-8" standalone="no"?>
<!-- Created with Inkscape (http://www.inkscape.org/) -->

<svg
   xmlns:dc="http://purl.org/dc/elements/1.1/"
   xmlns:cc="http://creativecommons.org/ns#"
   xmlns:rdf="http://www.w3.org/1999/02/22-rdf-syntax-ns#"
   xmlns:svg="http://www.w3.org/2000/svg"
   xmlns="http://www.w3.org/2000/svg"
   xmlns:sodipodi="http://sodipodi.sourceforge.net/DTD/sodipodi-0.dtd"
   xmlns:inkscape="http://www.inkscape.org/namespaces/inkscape"
   width="59.257679mm"
   height="20.134327mm"
   viewBox="0 0 59.257683 20.134327"
   version="1.1"
   id="svg8"
   inkscape:export-filename="C:\web-projects\purl-in\images\favicon.png"
   inkscape:export-xdpi="232.36362"
   inkscape:export-ydpi="232.36362"
   sodipodi:docname="link2.svg"
   inkscape:version="0.92.4 (5da689c313, 2019-01-14)">
  <defs
     id="defs2">
    <mask
       id="SvgjsMask1643">
      <rect
         id="rect848"
         height="750"
         width="1920"
         x="0"
         y="0"
         style="fill:#ffffff" />
    </mask>
    <linearGradient
       id="SvgjsLinearGradient1644"
       gradientUnits="userSpaceOnUse"
       y2="-0.38999999"
       x2="0.84769994"
       y1="1.39"
       x1="0.1523">
      <stop
         id="stop851"
         offset="0"
         stop-color="rgba(96, 9, 38, 1)" />
      <stop
         id="stop853"
         offset="1"
         stop-color="rgba(248, 34, 150, 1)" />
    </linearGradient>
  </defs>
  <sodipodi:namedview
     id="base"
     pagecolor="#ffffff"
     bordercolor="#666666"
     borderopacity="1.0"
     inkscape:pageopacity="0.0"
     inkscape:pageshadow="2"
     inkscape:zoom="1.3315722"
     inkscape:cx="-196.33792"
     inkscape:cy="118.41698"
     inkscape:document-units="mm"
     inkscape:current-layer="g901"
     showgrid="false"
     showguides="true"
     inkscape:guide-bbox="true"
     inkscape:window-width="1600"
     inkscape:window-height="838"
     inkscape:window-x="-8"
     inkscape:window-y="-8"
     inkscape:window-maximized="1" />
  <metadata
     id="metadata5">
    <rdf:RDF>
      <cc:Work
         rdf:about="">
        <dc:format>image/svg+xml</dc:format>
        <dc:type
           rdf:resource="http://purl.org/dc/dcmitype/StillImage" />
        <dc:title />
      </cc:Work>
    </rdf:RDF>
  </metadata>
  <g
     inkscape:label="Layer 1"
     inkscape:groupmode="layer"
     id="layer1"
     transform="translate(401.79488,-61.137761)">
    <g
       id="g901"
       transform="matrix(0.26458333,0,0,0.26458333,-399.57396,-1.7443517)">
      <path
         d="m 176.62625,237.67694 -56.0732,0.0108 c -0.90454,3.5e-4 -1.80171,0.026 -2.69037,0.0786 1.34536,1.04302 2.63011,2.16195 3.84798,3.35136 3.76769,3.69433 6.85966,8.01966 9.13584,12.78019 l 45.78333,-0.0108 c 6.13995,-0.27309 12.13767,1.89963 16.67819,6.04175 4.08723,4.20447 6.27221,9.90065 6.04531,15.75996 0.23049,5.85893 -1.95056,11.5563 -6.03461,15.76354 -4.53794,4.14509 -10.53437,6.32162 -16.67459,6.05245 l -56.0732,0.0108 c -6.13944,0.27394 -12.13705,-1.89742 -16.6782,-6.03818 -4.087936,-4.20548 -6.272945,-9.90303 -6.045322,-15.76353 -0.0044,-1.74135 0.161934,-3.47895 0.496644,-5.18784 -0.461969,-1.25277 -1.192435,-2.38932 -2.140174,-3.32992 -2.682204,-2.22676 -6.109385,-3.35292 -9.589594,-3.15125 l -3.351352,-10e-6 c -1.094294,3.79504 -1.642879,7.72653 -1.629235,11.67617 -0.210319,10.21707 3.730612,20.08288 10.922283,27.34323 7.57925,7.0922 17.64171,10.9224 28.01851,10.66505 l 56.0732,-0.0142 c 10.37635,0.25146 20.43612,-3.58388 28.01137,-10.67951 7.18694,-7.26504 11.12141,-17.13344 10.90443,-27.35037 0.21249,-10.21784 -3.72722,-20.08516 -10.91871,-27.34681 -7.57985,-7.09086 -17.64222,-10.91976 -28.01853,-10.66147 z m -90.022673,0.0214 -56.07321,0.0108 c -10.376303,-0.2515 -20.436071,3.58375 -28.0113664,10.67926 -7.1878766,7.26587 -11.1224334,17.13578 -10.904426,27.35397 -0.2123072,10.21779 3.7273817,20.08504 10.9187259,27.34679 7.5797495,7.09102 17.6421705,10.91993 28.0185195,10.66148 l 56.073189,-0.0108 c 0.904444,-2.7e-4 1.801778,-0.0296 2.690377,-0.0822 -1.344038,-1.04198 -2.627603,-2.15972 -3.844415,-3.3478 -3.768904,-3.69411 -6.862041,-8.01946 -9.139428,-12.78019 l -45.783325,0.007 C 24.408784,297.81086 18.411171,295.6395 13.870037,291.49876 9.7833999,287.29269 7.5996811,281.5952 7.8283045,275.7352 7.5977463,269.87626 9.778818,264.1789 13.862904,259.97166 c 4.538534,-4.14374 10.534885,-6.31897 16.674598,-6.04888 l 56.073215,-0.0108 c 6.139439,-0.27403 12.137086,1.89735 16.678183,6.03816 4.0859,4.20509 6.26955,9.90119 6.04176,15.75999 0.005,1.74253 -0.16174,3.48133 -0.49665,5.19139 0.46316,1.25305 1.19483,2.38958 2.14374,3.32993 2.68225,2.22667 6.10935,3.35289 9.58958,3.15127 l 3.34781,-1e-5 c 1.09435,-3.795 1.64292,-7.72645 1.62923,-11.67606 0.21245,-10.21782 -3.72726,-20.08513 -10.91872,-27.3468 -7.58074,-7.09169 -17.644552,-10.92064 -28.022073,-10.66148 z"
         id="path881"
         inkscape:connector-curvature="0"
         style="fill:#e31b51;fill-opacity:1;stroke-width:1.82931352"
         sodipodi:nodetypes="ccccccccccccccccccccccccccccccccccccccccccccccccccc" />
    </g>
  </g>
</svg>
