<?xml version="1.0" encoding="UTF-8" standalone="no"?>
<!-- Created with Inkscape (http://www.inkscape.org/) -->

<svg
   xmlns:dc="http://purl.org/dc/elements/1.1/"
   xmlns:cc="http://creativecommons.org/ns#"
   xmlns:rdf="http://www.w3.org/1999/02/22-rdf-syntax-ns#"
   xmlns:svg="http://www.w3.org/2000/svg"
   xmlns="http://www.w3.org/2000/svg"
   xmlns:sodipodi="http://sodipodi.sourceforge.net/DTD/sodipodi-0.dtd"
   xmlns:inkscape="http://www.inkscape.org/namespaces/inkscape"
   width="38.364582mm"
   height="38.375782mm"
   viewBox="0 0 38.364585 38.375782"
   version="1.1"
   id="svg8"
   inkscape:export-filename="C:\web-projects\purl-in\images\favicon.png"
   inkscape:export-xdpi="232.36362"
   inkscape:export-ydpi="232.36362"
   sodipodi:docname="link2.svg"
   inkscape:version="0.92.4 (5da689c313, 2019-01-14)">
  <defs
     id="defs2">
    <mask
       id="SvgjsMask1643">
      <rect
         id="rect848"
         height="750"
         width="1920"
         x="0"
         y="0"
         style="fill:#ffffff" />
    </mask>
    <linearGradient
       id="SvgjsLinearGradient1644"
       gradientUnits="userSpaceOnUse"
       y2="-0.38999999"
       x2="0.84769994"
       y1="1.39"
       x1="0.1523">
      <stop
         id="stop851"
         offset="0"
         stop-color="rgba(96, 9, 38, 1)" />
      <stop
         id="stop853"
         offset="1"
         stop-color="rgba(248, 34, 150, 1)" />
    </linearGradient>
  </defs>
  <sodipodi:namedview
     id="base"
     pagecolor="#ffffff"
     bordercolor="#666666"
     borderopacity="1.0"
     inkscape:pageopacity="0.0"
     inkscape:pageshadow="2"
     inkscape:zoom="1.7901355"
     inkscape:cx="-4.4549296"
     inkscape:cy="90.814463"
     inkscape:document-units="mm"
     inkscape:current-layer="g901"
     showgrid="false"
     showguides="true"
     inkscape:guide-bbox="true"
     inkscape:window-width="1600"
     inkscape:window-height="838"
     inkscape:window-x="-8"
     inkscape:window-y="-8"
     inkscape:window-maximized="1" />
  <metadata
     id="metadata5">
    <rdf:RDF>
      <cc:Work
         rdf:about="">
        <dc:format>image/svg+xml</dc:format>
        <dc:type
           rdf:resource="http://purl.org/dc/dcmitype/StillImage" />
        <dc:title />
      </cc:Work>
    </rdf:RDF>
  </metadata>
  <g
     inkscape:label="Layer 1"
     inkscape:groupmode="layer"
     id="layer1"
     transform="translate(396.18736,-56.857136)">
    <g
       id="g901"
       transform="matrix(0.26458333,0,0,0.26458333,-399.57396,-1.7443517)">
      <path
         d="m 105.0644,231.28694 -31.656741,31.66894 c -0.510569,0.51096 -1.002689,1.03205 -1.474787,1.56355 1.348646,-0.17072 2.705931,-0.26436 4.065249,-0.28042 4.213577,-0.0414 8.401906,0.65501 12.375319,2.05785 l 25.84637,-25.85856 c 3.31283,-3.62125 7.92644,-5.78111 12.82926,-6.00607 4.68207,0.0662 9.13232,2.04886 12.31278,5.48556 3.43851,3.17821 5.42407,7.62692 5.49363,12.30876 -0.22183,4.90304 -2.37882,9.51807 -5.998,12.83327 l -31.65674,31.66894 c -3.31208,3.62145 -7.924846,5.78201 -12.82726,6.0081 -4.683041,-0.0664 -9.134083,-2.0498 -12.314799,-5.48758 -0.985772,-0.9808 -1.873018,-2.05589 -2.648976,-3.20986 -0.968262,-0.44654 -2.022509,-0.67584 -3.088797,-0.67181 -2.771944,0.25717 -5.343078,1.55649 -7.194369,3.63554 l -1.892413,1.8924 c 1.525029,2.76086 3.435253,5.29062 5.6732,7.51316 5.65051,5.88803 13.446762,9.23363 21.60738,9.27241 8.284524,-0.27502 16.129284,-3.79418 21.843434,-9.79897 l 31.65483,-31.67086 c 6.0012,-5.71722 9.51595,-13.56337 9.78677,-21.84757 -0.0441,-8.1606 -3.39481,-15.95466 -9.28652,-21.60133 -5.64973,-5.88969 -13.44613,-9.23684 -21.60738,-9.27645 -8.28411,0.27612 -16.12809,3.79597 -21.84143,9.80101 z M 54.243404,282.1321 22.586656,313.80105 c -6.0012,5.71717 -9.515997,13.56327 -9.786917,21.84743 0.04404,8.16159 3.395555,15.95656 9.28856,21.60336 5.649794,5.88956 13.446155,9.23667 21.60738,9.27643 8.28414,-0.27598 16.128155,-3.79584 21.841427,-9.801 l 31.656733,-31.66893 c 0.510561,-0.51086 1.000696,-1.03412 1.472759,-1.56559 -1.347313,0.17056 -2.70325,0.2642 -4.061223,0.28042 -4.214141,0.0423 -8.403134,-0.65356 -12.377346,-2.05583 l -25.848508,25.85641 c -3.311914,3.62159 -7.924687,5.78216 -12.827078,6.00826 -4.682641,-0.0675 -9.132921,-2.05156 -12.31279,-5.48963 -3.438555,-3.17817 -5.424097,-7.62688 -5.493638,-12.30875 0.222928,-4.90261 2.380599,-9.51685 6.000022,-12.83125 l 31.65675,-31.66895 c 3.31202,-3.6215 7.924822,-5.78208 12.827233,-6.0081 4.681671,0.0673 9.131126,2.05067 12.310791,5.48758 0.986777,0.98114 1.874468,2.05714 2.650975,3.21188 0.969089,0.44602 2.024008,0.67463 3.090817,0.6698 2.771918,-0.25726 5.343038,-1.55649 7.194367,-3.63552 l 1.8904,-1.89041 c -1.52496,-2.76087 -3.435177,-5.29061 -5.673135,-7.5131 -5.649726,-5.88966 -13.446135,-9.23679 -21.607381,-9.27644 -8.285078,0.27615 -16.129901,3.79679 -21.843434,9.80301 z"
         id="path881"
         inkscape:connector-curvature="0"
         style="fill:#f5f6fb;fill-opacity:1;stroke-width:1.4608233"
         sodipodi:nodetypes="ccccccccccccccccccccccccccccccccccccccccccccccccccc" />
    </g>
  </g>
</svg>
