<?xml version="1.0" encoding="UTF-8" standalone="no"?>
<!-- Created with Inkscape (http://www.inkscape.org/) -->

<svg
   xmlns:dc="http://purl.org/dc/elements/1.1/"
   xmlns:cc="http://creativecommons.org/ns#"
   xmlns:rdf="http://www.w3.org/1999/02/22-rdf-syntax-ns#"
   xmlns:svg="http://www.w3.org/2000/svg"
   xmlns="http://www.w3.org/2000/svg"
   xmlns:sodipodi="http://sodipodi.sourceforge.net/DTD/sodipodi-0.dtd"
   xmlns:inkscape="http://www.inkscape.org/namespaces/inkscape"
   width="53.015602mm"
   height="20.174942mm"
   viewBox="0 0 53.015605 20.174942"
   version="1.1"
   id="svg8"
   inkscape:export-filename="C:\web-projects\purl-in\images\favicon.png"
   inkscape:export-xdpi="232.36362"
   inkscape:export-ydpi="232.36362"
   sodipodi:docname="link1.svg"
   inkscape:version="0.92.4 (5da689c313, 2019-01-14)">
  <defs
     id="defs2">
    <mask
       id="SvgjsMask1643">
      <rect
         id="rect848"
         height="750"
         width="1920"
         x="0"
         y="0"
         style="fill:#ffffff" />
    </mask>
    <linearGradient
       id="SvgjsLinearGradient1644"
       gradientUnits="userSpaceOnUse"
       y2="-0.38999999"
       x2="0.84769994"
       y1="1.39"
       x1="0.1523">
      <stop
         id="stop851"
         offset="0"
         stop-color="rgba(96, 9, 38, 1)" />
      <stop
         id="stop853"
         offset="1"
         stop-color="rgba(248, 34, 150, 1)" />
    </linearGradient>
  </defs>
  <sodipodi:namedview
     id="base"
     pagecolor="#ffffff"
     bordercolor="#666666"
     borderopacity="1.0"
     inkscape:pageopacity="0.0"
     inkscape:pageshadow="2"
     inkscape:zoom="3.2551074"
     inkscape:cx="47.806919"
     inkscape:cy="38.126303"
     inkscape:document-units="mm"
     inkscape:current-layer="g901"
     showgrid="false"
     showguides="true"
     inkscape:guide-bbox="true"
     inkscape:window-width="1600"
     inkscape:window-height="838"
     inkscape:window-x="-8"
     inkscape:window-y="-8"
     inkscape:window-maximized="1" />
  <metadata
     id="metadata5">
    <rdf:RDF>
      <cc:Work
         rdf:about="">
        <dc:format>image/svg+xml</dc:format>
        <dc:type
           rdf:resource="http://purl.org/dc/dcmitype/StillImage" />
        <dc:title />
      </cc:Work>
    </rdf:RDF>
  </metadata>
  <g
     inkscape:label="Layer 1"
     inkscape:groupmode="layer"
     id="layer1"
     transform="translate(399.15346,-46.257346)">
    <g
       id="g901"
       transform="matrix(0.26458333,0,0,0.26458333,-399.57396,-1.7443517)">
      <path
         d="m 162.93872,181.43657 -44.16413,0.01 c -0.90638,3.2e-4 -1.80535,0.026 -2.69581,0.0788 a 44.841555,44.841555 0 0 1 3.85575,3.35813 45.305727,45.305727 0 0 1 9.15433,12.80601 l 33.85342,-0.01 a 23.263156,23.263156 0 0 1 16.71194,6.05395 21.464,21.464 0 0 1 6.05752,15.79182 21.466034,21.466034 0 0 1 -6.04679,15.79541 23.263596,23.263596 0 0 1 -16.70833,6.0647 l -44.16412,0.01 a 23.264109,23.264109 0 0 1 -16.71193,-6.05036 21.466236,21.466236 0 0 1 -6.057523,-15.79543 26.692665,26.692665 0 0 1 0.497636,-5.1983 9.1715297,9.1715297 0 0 0 -2.144482,-3.33665 13.793616,13.793616 0 0 0 -9.609,-3.15763 l -3.358124,-2e-5 a 41.707966,41.707966 0 0 0 -1.632518,11.69976 37.826619,37.826619 0 0 0 10.94435,27.39854 39.651308,39.651308 0 0 0 28.075161,10.6866 l 44.16413,-0.014 a 39.652408,39.652408 0 0 0 28.068,-10.70109 37.826619,37.826619 0 0 0 10.92648,-27.40566 37.824198,37.824198 0 0 0 -10.94082,-27.4021 39.65171,39.65171 0 0 0 -28.07513,-10.68303 z m -78.182246,0.0214 -44.16413,0.01 A 39.652536,39.652536 0 0 0 12.524347,192.16881 37.826031,37.826031 0 0 0 1.5978832,219.57807 37.825903,37.825903 0 0 0 12.538653,246.98016 39.65019,39.65019 0 0 0 40.613836,257.6632 l 44.164106,-0.01 c 0.906287,-3e-4 1.805444,-0.0297 2.695809,-0.0824 a 44.845092,44.845092 0 0 1 -3.852177,-3.35455 45.311428,45.311428 0 0 1 -9.157892,-12.80605 l -33.85346,0.008 a 23.264017,23.264017 0 0 1 -16.711878,-6.05036 21.465944,21.465944 0 0 1 -6.053965,-15.79543 21.465613,21.465613 0 0 1 6.046789,-15.7954 23.264017,23.264017 0 0 1 16.708316,-6.06112 l 44.164125,-0.01 a 23.26343,23.26343 0 0 1 16.711941,6.05037 21.464421,21.464421 0 0 1 6.05396,15.79183 26.69855,26.69855 0 0 1 -0.49766,5.20188 9.1763687,9.1763687 0 0 0 2.14807,3.33665 13.794624,13.794624 0 0 0 9.60897,3.15768 l 3.35456,1e-5 a 41.703365,41.703365 0 0 0 1.63254,-11.69968 37.824675,37.824675 0 0 0 -10.94078,-27.4021 39.652354,39.652354 0 0 0 -28.078755,-10.68303 z"
         id="path881-7"
         inkscape:connector-curvature="0"
         style="fill:#e31b51;fill-opacity:1;stroke-width:1.83301175" />
    </g>
  </g>
</svg>
