<?xml version="1.0" encoding="UTF-8" standalone="no"?>
<!-- Created with Inkscape (http://www.inkscape.org/) -->

<svg
   xmlns:dc="http://purl.org/dc/elements/1.1/"
   xmlns:cc="http://creativecommons.org/ns#"
   xmlns:rdf="http://www.w3.org/1999/02/22-rdf-syntax-ns#"
   xmlns:svg="http://www.w3.org/2000/svg"
   xmlns="http://www.w3.org/2000/svg"
   xmlns:sodipodi="http://sodipodi.sourceforge.net/DTD/sodipodi-0.dtd"
   xmlns:inkscape="http://www.inkscape.org/namespaces/inkscape"
   width="84.624542mm"
   height="21.185114mm"
   viewBox="0 0 84.624545 21.185114"
   version="1.1"
   id="svg8"
   inkscape:export-filename="C:\web-projects\purl-in\images\favicon.png"
   inkscape:export-xdpi="232.36362"
   inkscape:export-ydpi="232.36362"
   inkscape:version="0.92.4 (5da689c313, 2019-01-14)"
   sodipodi:docname="link6.svg">
  <defs
     id="defs2">
    <mask
       id="SvgjsMask1643">
      <rect
         id="rect848"
         height="750"
         width="1920"
         x="0"
         y="0"
         style="fill:#ffffff" />
    </mask>
    <linearGradient
       id="SvgjsLinearGradient1644"
       gradientUnits="userSpaceOnUse"
       y2="-0.38999999"
       x2="0.84769994"
       y1="1.39"
       x1="0.1523">
      <stop
         id="stop851"
         offset="0"
         stop-color="rgba(96, 9, 38, 1)" />
      <stop
         id="stop853"
         offset="1"
         stop-color="rgba(248, 34, 150, 1)" />
    </linearGradient>
  </defs>
  <sodipodi:namedview
     id="base"
     pagecolor="#ffffff"
     bordercolor="#666666"
     borderopacity="1.0"
     inkscape:pageopacity="0.0"
     inkscape:pageshadow="2"
     inkscape:zoom="1.3315722"
     inkscape:cx="311.74728"
     inkscape:cy="-70.795403"
     inkscape:document-units="mm"
     inkscape:current-layer="g901"
     showgrid="false"
     showguides="true"
     inkscape:guide-bbox="true"
     inkscape:window-width="1600"
     inkscape:window-height="838"
     inkscape:window-x="-8"
     inkscape:window-y="-8"
     inkscape:window-maximized="1" />
  <metadata
     id="metadata5">
    <rdf:RDF>
      <cc:Work
         rdf:about="">
        <dc:format>image/svg+xml</dc:format>
        <dc:type
           rdf:resource="http://purl.org/dc/dcmitype/StillImage" />
        <dc:title />
      </cc:Work>
    </rdf:RDF>
  </metadata>
  <g
     inkscape:label="Layer 1"
     inkscape:groupmode="layer"
     id="layer1"
     transform="translate(502.34741,-27.034997)">
    <g
       id="g901"
       transform="matrix(0.26458333,0,0,0.26458333,-399.57396,-1.7443517)">
      <path
         d="m -107.52658,108.7852 -104.02992,0.01 c -0.90422,3.4e-4 -1.80109,0.026 -2.68945,0.0786 1.3449,1.04268 2.62921,2.16122 3.84667,3.35019 3.7664,3.69304 6.85726,8.0169 9.13269,12.77576 l 93.74358,-0.01 c 6.13783,-0.27297 12.133461,1.89896 16.672421,6.03969 4.08583,4.20299 6.27003,9.8972 6.04323,15.75448 0.23041,5.85691 -1.94988,15.5503 -6.03252,19.7561 -4.53636,4.14364 -10.530741,6.31944 -16.668831,6.05035 l -104.02993,0.01 c -6.13731,0.27387 -12.13283,-1.89676 -16.67242,-6.03608 -4.08652,-4.20402 -6.27077,-13.89762 -6.04323,-19.7561 -0.004,-1.74074 0.16192,-3.47773 0.49647,-5.18602 -0.46181,-1.25236 -1.19202,-2.38851 -2.13943,-3.32877 -2.68127,-2.226 -6.10728,-3.35176 -9.58627,-3.15017 l -3.35019,-2e-5 c -1.09392,3.79373 -1.64232,7.72386 -1.62869,11.67212 -0.21024,10.21355 3.72932,24.07397 10.9185,31.33179 7.57663,7.08975 17.63561,10.91864 28.00883,10.66136 l 104.02993,-0.014 c 10.372751,0.25138 20.429041,-3.58265 28.001661,-10.67582 7.18443,-7.26251 11.11757,-21.1255 10.90066,-31.3389 0.21243,-10.21433 -3.72593,-20.07823 -10.91495,-27.33738 -7.57721,-7.0884 -17.6361,-10.91598 -28.008811,-10.65777 z m -137.96765,0.0214 -104.02992,0.01 c -10.37274,-0.25143 -20.42902,3.58251 -28.00169,10.67558 -7.1854,7.26334 -11.1186,17.12985 -10.90065,27.34448 -0.21223,10.21427 3.72608,24.07612 10.91494,31.33536 7.57714,7.08853 17.63608,10.91615 28.00882,10.65777 l 104.02992,-0.01 c 0.90413,-2.6e-4 1.80116,-0.0296 2.68945,-0.0822 -1.34357,-1.04163 -2.62668,-2.15897 -3.84309,-3.34662 -3.76758,-3.69284 -6.85968,-8.01669 -9.13627,-12.77577 l -93.74359,0.008 c -6.1373,0.27385 -12.13284,-1.89675 -16.67242,-6.03608 -4.08522,-4.2046 -6.26818,-13.89813 -6.03965,-19.7561 -0.23046,-5.85691 1.94985,-11.55231 6.03252,-15.75807 4.53698,-4.14232 10.53124,-6.3168 16.66884,-6.0468 l 104.02992,-0.01 c 6.13733,-0.27393 12.13289,1.89669 16.67242,6.03607 4.08449,4.20363 6.26738,9.89775 6.03966,15.75453 0.004,1.74192 -0.16172,3.48013 -0.49646,5.18958 0.46299,1.25263 1.19441,2.38877 2.14299,3.32877 2.68131,2.22594 6.10724,3.35174 9.58628,3.15019 l 3.34663,1e-5 c 1.09397,-3.79368 1.64236,-7.72379 1.62867,-11.67202 0.21238,-10.2143 -3.72597,-20.07818 -10.91493,-27.33735 -7.57815,-7.08924 -17.63848,-10.91686 -28.0124,-10.65778 z"
         id="path881-6-8-9-3"
         inkscape:connector-curvature="0"
         style="fill:#e31b51;fill-opacity:1;stroke-width:1.82868063"
         sodipodi:nodetypes="cccccccccccccccccccccccccccccccccccccccccccccccccccc" />
    </g>
  </g>
</svg>
