<?xml version="1.0" encoding="UTF-8" standalone="no"?>
<!-- Created with Inkscape (http://www.inkscape.org/) -->

<svg
   xmlns:dc="http://purl.org/dc/elements/1.1/"
   xmlns:cc="http://creativecommons.org/ns#"
   xmlns:rdf="http://www.w3.org/1999/02/22-rdf-syntax-ns#"
   xmlns:svg="http://www.w3.org/2000/svg"
   xmlns="http://www.w3.org/2000/svg"
   xmlns:sodipodi="http://sodipodi.sourceforge.net/DTD/sodipodi-0.dtd"
   xmlns:inkscape="http://www.inkscape.org/namespaces/inkscape"
   width="32.60339mm"
   height="23.091661mm"
   viewBox="0 0 32.603391 23.091661"
   version="1.1"
   id="svg8"
   inkscape:export-filename="C:\web-projects\purl-in\images\favicon.png"
   inkscape:export-xdpi="232.36362"
   inkscape:export-ydpi="232.36362"
   sodipodi:docname="link4.svg"
   inkscape:version="0.92.4 (5da689c313, 2019-01-14)">
  <defs
     id="defs2">
    <mask
       id="SvgjsMask1643">
      <rect
         id="rect848"
         height="750"
         width="1920"
         x="0"
         y="0"
         style="fill:#ffffff" />
    </mask>
    <linearGradient
       id="SvgjsLinearGradient1644"
       gradientUnits="userSpaceOnUse"
       y2="-0.38999999"
       x2="0.84769994"
       y1="1.39"
       x1="0.1523">
      <stop
         id="stop851"
         offset="0"
         stop-color="rgba(96, 9, 38, 1)" />
      <stop
         id="stop853"
         offset="1"
         stop-color="rgba(248, 34, 150, 1)" />
    </linearGradient>
  </defs>
  <sodipodi:namedview
     id="base"
     pagecolor="#ffffff"
     bordercolor="#666666"
     borderopacity="1.0"
     inkscape:pageopacity="0.0"
     inkscape:pageshadow="2"
     inkscape:zoom="1.3315722"
     inkscape:cx="61.330983"
     inkscape:cy="157.37533"
     inkscape:document-units="mm"
     inkscape:current-layer="g901"
     showgrid="false"
     showguides="true"
     inkscape:guide-bbox="true"
     inkscape:window-width="1600"
     inkscape:window-height="838"
     inkscape:window-x="-8"
     inkscape:window-y="-8"
     inkscape:window-maximized="1" />
  <metadata
     id="metadata5">
    <rdf:RDF>
      <cc:Work
         rdf:about="">
        <dc:format>image/svg+xml</dc:format>
        <dc:type
           rdf:resource="http://purl.org/dc/dcmitype/StillImage" />
        <dc:title></dc:title>
      </cc:Work>
    </rdf:RDF>
  </metadata>
  <g
     inkscape:label="Layer 1"
     inkscape:groupmode="layer"
     id="layer1"
     transform="translate(402.21309,-68.488155)">
    <g
       id="g901"
       transform="matrix(0.26458333,0,0,0.26458333,-399.57396,-1.7443517)">
      <path
         d="m 84.151182,268.34876 -34.6739,20.02476 c -0.39165,0.2263 -0.77379,0.46175 -1.1455,0.70673 0.84345,0.11531 1.67962,0.27866 2.50445,0.48925 2.55544,0.65786 4.97598,1.75797 7.15207,3.25051 l 30.21757,-17.4519 c 2.5908,-1.65348 5.73154,-2.21219 8.73364,-1.55362 2.82137,0.7989 5.191888,2.71946 6.558678,5.31374 1.56477,2.47974 2.04476,5.49249 1.32803,8.33573 -0.92887,2.9298 -2.98157,5.37175 -5.708078,6.79046 l -34.6739,20.02477 c -2.59035,1.65373 -5.73071,2.21299 -8.73273,1.55518 -2.82193,-0.79917 -5.19281,-2.72032 -6.55959,-5.3153 -0.43713,-0.75313 -0.79971,-1.54715 -1.08206,-2.37091 -0.51331,-0.42704 -1.11384,-0.73661 -1.75947,-0.90698 -1.71838,-0.29373 -3.4842,0.0755 -4.94098,1.033 l -1.4514,0.83797 c 0.47498,1.91717 1.22043,3.75698 2.21389,5.46407 2.46358,4.47738 6.63714,7.76467 11.56705,9.11078 5.05573,1.17638 10.37126,0.31917 14.80089,-2.3869 l 34.672888,-20.02649 c 4.55665,-2.48558 7.95433,-6.66191 9.46084,-11.62896 1.29597,-4.94334 0.53243,-10.2009 -2.11616,-14.57138 -2.46282,-4.47826 -6.63623,-7.76651 -11.566408,-9.11322 -5.05564,-1.17566 -10.37081,-0.3179 -14.79998,2.38844 z m -49.37384,28.51835 -34.67389955,20.02476 c -4.55665005,2.48555 -7.95435005,6.66183 -9.46090005,11.62886 -1.2961804,4.94393 -0.5323,10.20217 2.11706,14.57293 2.46289,4.47819 6.63627005,7.76641 11.5664,9.11321 5.05565,1.17574 10.3708396,0.31797 14.7999796,-2.38844 l 34.6739,-20.02476 c 0.39163,-0.22626 0.77292,-0.46333 1.14459,-0.70829 -0.8426,-0.1152 -1.67795,-0.27833 -2.502,-0.48859 -2.55589,-0.65748 -4.97698,-1.75729 -7.15363,-3.24963 l -30.21807,17.45103 c -2.59035,1.65374 -5.7307096,2.21299 -8.7327296,1.55518 -2.82151,-0.79974 -5.19182,-2.72119 -6.55802995,-5.31618 -1.56480005,-2.47974 -2.04479005,-5.4925 -1.32803005,-8.33573 0.92946005,-2.92938 2.98245,-5.37073 5.70897,-6.78892 L 38.834852,303.88778 c 2.59034,-1.65378 5.73072,-2.21303 8.73273,-1.55519 2.82095,0.79951 5.19088,2.72037 6.55714,5.31464 0.43743,0.75366 0.80041,1.54814 1.08297,2.37246 0.51389,0.42686 1.11494,0.73613 1.76101,0.9061 1.71838,0.29367 3.48418,-0.0755 4.94098,-1.03301 l 1.44986,-0.83708 c -0.47495,-1.91715 -1.22039,-3.75695 -2.21387,-5.46401 -2.46284,-4.47824 -6.63624,-7.76648 -11.5664,-9.11322 -5.05626,-1.17579 -10.37206,-0.31768 -14.80153,2.38932 z"
         id="path881-6-8"
         inkscape:connector-curvature="0"
         style="fill:#e31b51;fill-opacity:1;stroke-width:0.91479558"
         sodipodi:nodetypes="cccccccccccccccccccccccccccccccccccccccccccccccccccc" />
    </g>
  </g>
</svg>
