<?xml version="1.0" encoding="UTF-8" standalone="no"?>
<!-- Created with Inkscape (http://www.inkscape.org/) -->

<svg
   xmlns:dc="http://purl.org/dc/elements/1.1/"
   xmlns:cc="http://creativecommons.org/ns#"
   xmlns:rdf="http://www.w3.org/1999/02/22-rdf-syntax-ns#"
   xmlns:svg="http://www.w3.org/2000/svg"
   xmlns="http://www.w3.org/2000/svg"
   xmlns:sodipodi="http://sodipodi.sourceforge.net/DTD/sodipodi-0.dtd"
   xmlns:inkscape="http://www.inkscape.org/namespaces/inkscape"
   width="71.95919mm"
   height="20.135233mm"
   viewBox="0 0 71.959193 20.135232"
   version="1.1"
   id="svg8"
   inkscape:export-filename="C:\web-projects\purl-in\images\favicon.png"
   inkscape:export-xdpi="232.36362"
   inkscape:export-ydpi="232.36362"
   sodipodi:docname="link4.svg"
   inkscape:version="0.92.4 (5da689c313, 2019-01-14)">
  <defs
     id="defs2">
    <mask
       id="SvgjsMask1643">
      <rect
         id="rect848"
         height="750"
         width="1920"
         x="0"
         y="0"
         style="fill:#ffffff" />
    </mask>
    <linearGradient
       id="SvgjsLinearGradient1644"
       gradientUnits="userSpaceOnUse"
       y2="-0.38999999"
       x2="0.84769994"
       y1="1.39"
       x1="0.1523">
      <stop
         id="stop851"
         offset="0"
         stop-color="rgba(96, 9, 38, 1)" />
      <stop
         id="stop853"
         offset="1"
         stop-color="rgba(248, 34, 150, 1)" />
    </linearGradient>
  </defs>
  <sodipodi:namedview
     id="base"
     pagecolor="#ffffff"
     bordercolor="#666666"
     borderopacity="1.0"
     inkscape:pageopacity="0.0"
     inkscape:pageshadow="2"
     inkscape:zoom="4.1695509"
     inkscape:cx="135.98587"
     inkscape:cy="38.050833"
     inkscape:document-units="mm"
     inkscape:current-layer="g901"
     showgrid="false"
     showguides="true"
     inkscape:guide-bbox="true"
     inkscape:window-width="1600"
     inkscape:window-height="838"
     inkscape:window-x="-8"
     inkscape:window-y="-8"
     inkscape:window-maximized="1" />
  <metadata
     id="metadata5">
    <rdf:RDF>
      <cc:Work
         rdf:about="">
        <dc:format>image/svg+xml</dc:format>
        <dc:type
           rdf:resource="http://purl.org/dc/dcmitype/StillImage" />
        <dc:title />
      </cc:Work>
    </rdf:RDF>
  </metadata>
  <g
     inkscape:label="Layer 1"
     inkscape:groupmode="layer"
     id="layer1"
     transform="translate(405.59248,-58.423056)">
    <g
       id="g901"
       transform="matrix(0.26458333,0,0,0.26458333,-399.57396,-1.7443517)">
      <path
         d="m 210.27699,227.41726 -80.0734,0.01 c -0.90456,3.1e-4 -1.8018,0.026 -2.69051,0.0786 1.34544,1.04307 2.63026,2.16205 3.84819,3.35151 3.7679,3.6945 6.85996,8.02004 9.13628,12.78079 l 69.78302,-0.01 c 6.14023,-0.27307 12.13824,1.89972 16.67898,6.04207 4.08743,4.20466 6.27251,9.9011 6.0456,15.7607 0.2305,5.85921 -1.95066,11.55684 -6.03488,15.76431 -4.53818,4.14526 -10.53489,6.32191 -16.67541,6.05271 l -80.0734,0.01 c -6.13971,0.27397 -12.13761,-1.8975 -16.67899,-6.03845 -4.08812,-4.2057 -6.27323,-9.90351 -6.0456,-15.76432 -0.004,-1.7414 0.16198,-3.47909 0.49667,-5.18805 -0.46199,-1.25283 -1.1925,-2.38944 -2.14029,-3.33006 -2.68231,-2.2269 -6.109676,-3.35308 -9.59003,-3.15145 l -3.351522,1e-5 c -1.094366,3.79522 -1.642963,7.72691 -1.629329,11.67672 -0.210313,10.21757 3.730806,20.08386 10.922801,27.34455 7.57961,7.09253 17.64255,10.92294 28.01988,10.66554 l 80.07337,-0.014 c 10.37685,0.25146 20.43709,-3.58407 28.0127,-10.68001 7.18728,-7.26539 11.12194,-17.13426 10.90495,-27.35169 0.21251,-10.21832 -3.72739,-20.08612 -10.91925,-27.34812 -7.58018,-7.09121 -17.64304,-10.92029 -28.01984,-10.66197 z m -114.024498,0.0214 -80.073392,0.01 c -10.376819,-0.25153 -20.4370412,3.5839 -28.012706,10.67976 -7.188232,7.2662 -11.122985,17.1366 -10.904941,27.35528 -0.212318,10.21828 3.727557,20.086 10.919245,27.3481 7.5801171,7.09135 17.6430185,10.92044 28.019846,10.66196 l 80.073387,-0.01 c 0.904494,-2.7e-4 1.801883,-0.0296 2.6905,-0.0822 -1.344085,-1.04202 -2.627691,-2.15981 -3.844601,-3.34792 -3.769062,-3.69429 -6.862376,-8.01986 -9.13987,-12.78082 l -69.783005,0.008 c -6.139721,0.27399 -12.137608,-1.8975 -16.67897882,-6.03845 -4.08683528,-4.20626 -6.27065158,-9.90403 -6.04203028,-15.76429 -0.2305514,-5.85922 1.9506129,-11.55687 6.03488363,-15.76429 4.53877967,-4.14395 10.53539247,-6.31928 16.67541347,-6.04916 l 80.073392,-0.01 c 6.139735,-0.27406 12.137665,1.89744 16.678985,6.03844 4.08609,4.2053 6.26985,9.90166 6.04203,15.76072 0.004,1.74262 -0.16177,3.48151 -0.49665,5.19166 0.46318,1.2531 1.19489,2.3897 2.14384,3.33007 2.68237,2.2268 6.10964,3.35306 9.59004,3.15142 h 3.34796 c 1.0944,-3.79516 1.64301,-7.72681 1.62931,-11.67661 0.21245,-10.2183 -3.72744,-20.08608 -10.91924,-27.34811 -7.58112,-7.09205 -17.64542,-10.92115 -28.023405,-10.662 z"
         id="path881-6-8"
         inkscape:connector-curvature="0"
         style="fill:#e31b51;fill-opacity:1;stroke-width:1.8294009"
         sodipodi:nodetypes="cccccccccccccccccccccccccccccccccccccccccccccccccccc" />
    </g>
  </g>
</svg>
