<?xml version="1.0" encoding="UTF-8" standalone="no"?>
<!-- Created with Inkscape (http://www.inkscape.org/) -->

<svg
   xmlns:dc="http://purl.org/dc/elements/1.1/"
   xmlns:cc="http://creativecommons.org/ns#"
   xmlns:rdf="http://www.w3.org/1999/02/22-rdf-syntax-ns#"
   xmlns:svg="http://www.w3.org/2000/svg"
   xmlns="http://www.w3.org/2000/svg"
   xmlns:sodipodi="http://sodipodi.sourceforge.net/DTD/sodipodi-0.dtd"
   xmlns:inkscape="http://www.inkscape.org/namespaces/inkscape"
   width="45.508331mm"
   height="45.519466mm"
   viewBox="0 0 45.508333 45.519464"
   version="1.1"
   id="svg8"
   inkscape:export-filename="C:\web-projects\purl-in\images\favicon.png"
   inkscape:export-xdpi="232.36362"
   inkscape:export-ydpi="232.36362"
   sodipodi:docname="link4.svg"
   inkscape:version="0.92.4 (5da689c313, 2019-01-14)">
  <defs
     id="defs2">
    <mask
       id="SvgjsMask1643">
      <rect
         id="rect848"
         height="750"
         width="1920"
         x="0"
         y="0"
         style="fill:#ffffff" />
    </mask>
    <linearGradient
       id="SvgjsLinearGradient1644"
       gradientUnits="userSpaceOnUse"
       y2="-0.38999999"
       x2="0.84769994"
       y1="1.39"
       x1="0.1523">
      <stop
         id="stop851"
         offset="0"
         stop-color="rgba(96, 9, 38, 1)" />
      <stop
         id="stop853"
         offset="1"
         stop-color="rgba(248, 34, 150, 1)" />
    </linearGradient>
  </defs>
  <sodipodi:namedview
     id="base"
     pagecolor="#ffffff"
     bordercolor="#666666"
     borderopacity="1.0"
     inkscape:pageopacity="0.0"
     inkscape:pageshadow="2"
     inkscape:zoom="2.9641636"
     inkscape:cx="107.76121"
     inkscape:cy="107.78757"
     inkscape:document-units="mm"
     inkscape:current-layer="g901"
     showgrid="false"
     showguides="true"
     inkscape:guide-bbox="true"
     inkscape:window-width="1600"
     inkscape:window-height="838"
     inkscape:window-x="-8"
     inkscape:window-y="-8"
     inkscape:window-maximized="1" />
  <metadata
     id="metadata5">
    <rdf:RDF>
      <cc:Work
         rdf:about="">
        <dc:format>image/svg+xml</dc:format>
        <dc:type
           rdf:resource="http://purl.org/dc/dcmitype/StillImage" />
        <dc:title />
      </cc:Work>
    </rdf:RDF>
  </metadata>
  <g
     inkscape:label="Layer 1"
     inkscape:groupmode="layer"
     id="layer1"
     transform="translate(398.12503,-51.489994)">
    <g
       id="g901"
       transform="matrix(0.26458333,0,0,0.26458333,-399.57396,-1.7443517)">
      <path
         d="m 124.77198,210.99631 -45.180916,45.1922 c -0.510281,0.51063 -1.002109,1.03146 -1.473938,1.56264 1.34787,-0.17063 2.704369,-0.26421 4.062894,-0.28027 4.211135,-0.0414 8.396996,0.65465 12.368115,2.05664 l 39.373905,-39.38519 c 3.31092,-3.61912 7.92182,-5.77774 12.82181,-6.00256 4.67935,0.0662 9.127,2.04767 12.3056,5.48237 3.43652,3.17636 5.42091,7.62247 5.49046,12.30159 -0.22173,4.90019 -2.37744,9.51253 -5.99453,12.8258 l -45.18093,45.19221 c -3.31011,3.61932 -7.92021,5.77864 -12.81977,6.0046 -4.680319,-0.0663 -9.128758,-2.04862 -12.307642,-5.48441 -0.984959,-0.98044 -1.871891,-2.0547 -2.647415,-3.20797 -0.967697,-0.44628 -2.021337,-0.67545 -3.086995,-0.67141 -2.770338,0.257 -5.33997,1.55559 -7.1902,3.63339 l -1.891306,1.89132 c 1.524131,2.75926 3.433258,5.28755 5.669886,7.50879 5.647236,5.8846 13.438951,9.22826 21.594812,9.26703 8.2797,-0.27487 16.11991,-3.79198 21.83073,-9.79331 l 45.17864,-45.19444 c 5.99771,-5.7139 9.5104,-13.55548 9.78108,-21.83485 -0.044,-8.15584 -3.39283,-15.94537 -9.28113,-21.58876 -5.64641,-5.88627 -13.43829,-9.23147 -21.59481,-9.27104 -8.27928,0.27593 -16.1187,3.79374 -21.8287,9.79529 z m -64.333571,64.35772 -45.180911,45.1922 c -5.9977285,5.71384 -9.510467,13.55536 -9.7812277,21.8347 0.043999,8.15685 3.3935685,15.94729 9.2831607,21.59079 5.646506,5.88614 13.438329,9.2313 21.594807,9.27104 8.279318,-0.27582 16.118766,-3.79365 21.828693,-9.7953 l 45.180909,-45.1922 c 0.51027,-0.51057 1.00012,-1.03353 1.4719,-1.56467 -1.34651,0.17046 -2.70165,0.26403 -4.05884,0.28029 -4.211674,0.0422 -8.398261,-0.65319 -12.370162,-2.05464 l -39.375025,39.38405 c -3.310115,3.61935 -7.920211,5.77864 -12.819768,6.0046 -4.679911,-0.0674 -9.127603,-2.05037 -12.305616,-5.48641 -3.436545,-3.17634 -5.420948,-7.62246 -5.490443,-12.30158 0.222808,-4.89979 2.379212,-9.51133 5.996546,-12.8238 l 45.180911,-45.1922 c 3.310084,-3.6194 7.920209,-5.7787 12.819766,-6.00461 4.678951,0.0673 9.12581,2.04949 12.3036,5.4844 0.985646,0.98112 1.873376,2.05595 2.649467,3.20999 0.968518,0.44576 2.022829,0.67425 3.088994,0.6694 2.77032,-0.25708 5.33994,-1.55557 7.1902,-3.6334 l 1.88929,-1.8893 c -1.52407,-2.75925 -3.43317,-5.28753 -5.66983,-7.50872 -5.646445,-5.88622 -13.438304,-9.23141 -21.594805,-9.27105 -8.280282,0.27599 -16.120526,3.7946 -21.830727,9.79729 z"
         id="path881-6-8"
         inkscape:connector-curvature="0"
         style="fill:#f5f6fb;fill-opacity:1;stroke-width:1.45997322"
         sodipodi:nodetypes="cccccccccccccccccccccccccccccccccccccccccccccccccccc" />
    </g>
  </g>
</svg>
