<?xml version="1.0" encoding="UTF-8" standalone="no"?>
<!-- Created with Inkscape (http://www.inkscape.org/) -->

<svg
   xmlns:dc="http://purl.org/dc/elements/1.1/"
   xmlns:cc="http://creativecommons.org/ns#"
   xmlns:rdf="http://www.w3.org/1999/02/22-rdf-syntax-ns#"
   xmlns:svg="http://www.w3.org/2000/svg"
   xmlns="http://www.w3.org/2000/svg"
   xmlns:sodipodi="http://sodipodi.sourceforge.net/DTD/sodipodi-0.dtd"
   xmlns:inkscape="http://www.inkscape.org/namespaces/inkscape"
   width="52.916664mm"
   height="52.927734mm"
   viewBox="0 0 52.916666 52.927734"
   version="1.1"
   id="svg8"
   inkscape:export-filename="C:\web-projects\purl-in\images\favicon.png"
   inkscape:export-xdpi="232.36362"
   inkscape:export-ydpi="232.36362"
   inkscape:version="0.92.4 (5da689c313, 2019-01-14)"
   sodipodi:docname="link6.svg">
  <defs
     id="defs2">
    <mask
       id="SvgjsMask1643">
      <rect
         id="rect848"
         height="750"
         width="1920"
         x="0"
         y="0"
         style="fill:#ffffff" />
    </mask>
    <linearGradient
       id="SvgjsLinearGradient1644"
       gradientUnits="userSpaceOnUse"
       y2="-0.38999999"
       x2="0.84769994"
       y1="1.39"
       x1="0.1523">
      <stop
         id="stop851"
         offset="0"
         stop-color="rgba(96, 9, 38, 1)" />
      <stop
         id="stop853"
         offset="1"
         stop-color="rgba(248, 34, 150, 1)" />
    </linearGradient>
  </defs>
  <sodipodi:namedview
     id="base"
     pagecolor="#ffffff"
     bordercolor="#666666"
     borderopacity="1.0"
     inkscape:pageopacity="0.0"
     inkscape:pageshadow="2"
     inkscape:zoom="1.3315722"
     inkscape:cx="149.87844"
     inkscape:cy="136.32841"
     inkscape:document-units="mm"
     inkscape:current-layer="g901"
     showgrid="false"
     showguides="true"
     inkscape:guide-bbox="true"
     inkscape:window-width="1600"
     inkscape:window-height="838"
     inkscape:window-x="-8"
     inkscape:window-y="-8"
     inkscape:window-maximized="1" />
  <metadata
     id="metadata5">
    <rdf:RDF>
      <cc:Work
         rdf:about="">
        <dc:format>image/svg+xml</dc:format>
        <dc:type
           rdf:resource="http://purl.org/dc/dcmitype/StillImage" />
        <dc:title />
      </cc:Work>
    </rdf:RDF>
  </metadata>
  <g
     inkscape:label="Layer 1"
     inkscape:groupmode="layer"
     id="layer1"
     transform="translate(493.39794,-18.069267)">
    <g
       id="g901"
       transform="matrix(0.26458333,0,0,0.26458333,-399.57396,-1.7443517)">
      <path
         d="m -209.20553,84.616491 -58.33184,58.343069 c -0.50688,0.50724 -0.99542,1.02457 -1.4641,1.55225 1.33889,-0.16948 2.68635,-0.26244 4.03582,-0.27842 4.18308,-0.0412 8.34107,0.6503 12.28573,2.04295 l 52.56352,-52.574733 c 3.28886,-3.59502 7.86904,-5.73926 12.7364,-5.962577 4.64816,0.0657 9.06619,2.034029 12.22363,5.445833 3.41361,3.155205 7.62678,9.813677 7.69585,14.461637 -0.22024,4.86753 -2.3616,9.44917 -5.9546,12.74036 l -58.33184,58.34307 c -3.28808,3.59524 -7.86746,5.74014 -12.73438,5.9646 -4.64914,-0.066 -11.30994,-4.27695 -14.46764,-7.68984 -0.97841,-0.97392 -1.85942,-2.04103 -2.62979,-3.18661 -0.96126,-0.44331 -2.00787,-0.67097 -3.06642,-0.66695 -2.75189,0.2553 -5.30441,1.54524 -7.1423,3.60921 l -1.87871,1.87869 c 1.51399,2.74087 3.41038,5.25233 5.6321,7.45878 5.60962,5.84539 15.59142,11.40878 23.69294,11.44726 8.22455,-0.27302 16.01253,-3.7667 21.68531,-9.72803 l 58.32961,-58.34531 c 5.95775,-5.67582 9.44705,-13.46517 9.7159,-21.68939 -0.0437,-8.101495 -5.61219,-18.081134 -11.46125,-23.686922 -5.60884,-5.847073 -13.3488,-9.169973 -21.45099,-9.209299 -8.22411,0.274112 -16.01131,3.768479 -21.68328,9.730042 z m -77.3569,77.380909 -58.33185,58.34306 c -5.95778,5.67579 -9.44711,13.46508 -9.71606,21.68928 0.0436,8.1025 3.37096,15.84104 9.2213,21.44694 5.6089,5.84692 15.5908,11.4118 23.69294,11.45127 8.22415,-0.274 16.0114,-3.76837 21.68329,-9.73004 l 58.33185,-58.34307 c 0.50686,-0.50716 0.99344,-1.02664 1.46207,-1.55428 -1.33756,0.16933 -2.68367,0.26229 -4.0318,0.27842 -4.18363,0.042 -8.34232,-0.64883 -12.28776,-2.04095 l -52.56464,52.57362 c -3.28808,3.59522 -7.86745,5.74015 -12.73437,5.9646 -4.64873,-0.0669 -11.30878,-4.27869 -14.46563,-7.69185 -3.41365,-3.15518 -5.38482,-7.57169 -5.45385,-12.21963 0.22131,-4.86715 2.36336,-9.44797 5.95657,-12.73838 l 58.33185,-58.34306 c 3.28806,-3.59528 7.86746,-5.74022 12.73438,-5.96461 4.64777,0.0668 9.065,2.03582 12.22165,5.44786 0.97907,0.97459 1.86089,2.04226 2.63179,3.1886 0.96207,0.44281 2.00936,0.66976 3.06843,0.66495 2.75187,-0.25536 5.30437,-1.54521 7.1423,-3.6092 l 1.87672,-1.87671 c -1.51393,-2.74088 -3.41033,-5.25231 -5.63207,-7.4587 -5.60883,-5.84703 -13.34879,-9.16993 -21.45095,-9.20929 -8.22512,0.27416 -16.01314,3.76932 -21.6853,9.73204 z"
         id="path881-6-8-9-3"
         inkscape:connector-curvature="0"
         style="fill:#f5f6fb;fill-opacity:1;stroke-width:1.45024729"
         sodipodi:nodetypes="cccccccccccccccccccccccccccccccccccccccccccccccccccc" />
    </g>
  </g>
</svg>
