<?xml version="1.0" encoding="UTF-8" standalone="no"?>
<!-- Created with Inkscape (http://www.inkscape.org/) -->

<svg
   xmlns:dc="http://purl.org/dc/elements/1.1/"
   xmlns:cc="http://creativecommons.org/ns#"
   xmlns:rdf="http://www.w3.org/1999/02/22-rdf-syntax-ns#"
   xmlns:svg="http://www.w3.org/2000/svg"
   xmlns="http://www.w3.org/2000/svg"
   xmlns:sodipodi="http://sodipodi.sourceforge.net/DTD/sodipodi-0.dtd"
   xmlns:inkscape="http://www.inkscape.org/namespaces/inkscape"
   width="49.741669mm"
   height="49.7528mm"
   viewBox="0 0 49.74167 49.752799"
   version="1.1"
   id="svg8"
   inkscape:export-filename="C:\web-projects\purl-in\images\favicon.png"
   inkscape:export-xdpi="232.36362"
   inkscape:export-ydpi="232.36362"
   sodipodi:docname="link5.svg"
   inkscape:version="0.92.4 (5da689c313, 2019-01-14)">
  <defs
     id="defs2">
    <mask
       id="SvgjsMask1643">
      <rect
         id="rect848"
         height="750"
         width="1920"
         x="0"
         y="0"
         style="fill:#ffffff" />
    </mask>
    <linearGradient
       id="SvgjsLinearGradient1644"
       gradientUnits="userSpaceOnUse"
       y2="-0.38999999"
       x2="0.84769994"
       y1="1.39"
       x1="0.1523">
      <stop
         id="stop851"
         offset="0"
         stop-color="rgba(96, 9, 38, 1)" />
      <stop
         id="stop853"
         offset="1"
         stop-color="rgba(248, 34, 150, 1)" />
    </linearGradient>
  </defs>
  <sodipodi:namedview
     id="base"
     pagecolor="#ffffff"
     bordercolor="#666666"
     borderopacity="1.0"
     inkscape:pageopacity="0.0"
     inkscape:pageshadow="2"
     inkscape:zoom="2.7122382"
     inkscape:cx="117.77304"
     inkscape:cy="117.79939"
     inkscape:document-units="mm"
     inkscape:current-layer="g901"
     showgrid="false"
     showguides="true"
     inkscape:guide-bbox="true"
     inkscape:window-width="1600"
     inkscape:window-height="838"
     inkscape:window-x="-8"
     inkscape:window-y="-8"
     inkscape:window-maximized="1" />
  <metadata
     id="metadata5">
    <rdf:RDF>
      <cc:Work
         rdf:about="">
        <dc:format>image/svg+xml</dc:format>
        <dc:type
           rdf:resource="http://purl.org/dc/dcmitype/StillImage" />
        <dc:title />
      </cc:Work>
    </rdf:RDF>
  </metadata>
  <g
     inkscape:label="Layer 1"
     inkscape:groupmode="layer"
     id="layer1"
     transform="translate(399.36352,-48.629216)">
    <g
       id="g901"
       transform="matrix(0.26458333,0,0,0.26458333,-399.57396,-1.7443517)">
      <path
         d="m 133.77525,200.19439 -52.007537,52.01882 c -0.510821,0.51118 -1.003181,1.03254 -1.475483,1.56433 1.349312,-0.17081 2.707261,-0.26448 4.067229,-0.28058 4.215628,-0.0414 8.405988,0.65535 12.38135,2.05884 l 46.194311,-46.2056 c 3.31444,-3.62299 7.93028,-5.78392 12.83552,-6.00898 4.68435,0.0662 9.13674,2.04986 12.31876,5.48822 3.44018,3.17977 7.68613,9.89007 7.75574,14.57418 -0.22194,4.90544 -2.37998,9.52272 -6.00092,12.83953 l -52.00753,52.01882 c -3.31368,3.62322 -7.9287,5.78482 -12.8335,6.01103 -4.68532,-0.0664 -11.397967,-4.31024 -14.580236,-7.7497 -0.986013,-0.9815 -1.873894,-2.0569 -2.650258,-3.21139 -0.968741,-0.44679 -2.023498,-0.6762 -3.090284,-0.67215 -2.773299,0.25728 -5.345697,1.55726 -7.197894,3.63729 l -1.893318,1.89332 c 1.525761,2.76222 3.436911,5.29321 5.675948,7.51682 5.653256,5.89091 15.712746,11.49758 23.877332,11.53637 8.28856,-0.27515 16.13715,-3.79602 21.85407,-9.80375 l 52.00526,-52.02107 c 6.00415,-5.72001 9.52058,-13.56998 9.79155,-21.8582 -0.0441,-8.16456 -5.65589,-18.22187 -11.55048,-23.87128 -5.65245,-5.89258 -13.45268,-9.24135 -21.61792,-9.28097 -8.28812,0.27624 -16.13593,3.7978 -21.85204,9.80576 z M 62.594587,271.39921 10.58704,323.41805 c -6.0041356,5.71996 -9.5206287,13.56987 -9.7916857,21.85805 0.0440556,8.16559 3.3971998,15.96436 9.2930827,21.61387 5.652553,5.89245 15.71214,11.50062 23.877341,11.5404 8.288169,-0.27612 16.136007,-3.79769 21.852042,-9.80577 l 52.00754,-52.01883 c 0.51082,-0.51111 1.00115,-1.03467 1.47346,-1.56635 -1.34795,0.17064 -2.70455,0.26431 -4.0632,0.28057 -4.21618,0.0422 -8.40723,-0.65386 -12.383359,-2.05682 l -46.195444,46.20447 c -3.313676,3.6232 -7.928697,5.78482 -12.833492,6.01102 -4.684915,-0.0674 -11.396788,-4.31201 -14.578213,-7.75172 -3.440216,-3.17972 -5.426747,-7.63061 -5.4963,-12.31474 0.223034,-4.90501 2.381743,-9.5215 6.002942,-12.83752 l 52.007533,-52.01881 c 3.31365,-3.62326 7.928683,-5.78489 12.833486,-6.01104 4.683948,0.0674 9.135564,2.05168 12.316772,5.49028 0.986683,0.98216 1.875355,2.05815 2.652269,3.2134 0.969556,0.44625 2.024986,0.67499 3.092306,0.67013 2.77328,-0.25734 5.34565,-1.55723 7.1979,-3.63729 l 1.89131,-1.89132 c -1.52571,-2.7622 -3.43684,-5.29318 -5.6759,-7.51675 -5.65249,-5.89253 -13.452681,-9.24128 -21.617884,-9.28096 -8.289134,0.2763 -16.137777,3.79865 -21.85409,9.80778 z"
         id="path881-6-8-9"
         inkscape:connector-curvature="0"
         style="fill:#f5f6fb;fill-opacity:1;stroke-width:1.4615345"
         sodipodi:nodetypes="cccccccccccccccccccccccccccccccccccccccccccccccccccc" />
    </g>
  </g>
</svg>
