<?xml version="1.0" encoding="UTF-8" standalone="no"?>
<!-- Created with Inkscape (http://www.inkscape.org/) -->

<svg
   xmlns:dc="http://purl.org/dc/elements/1.1/"
   xmlns:cc="http://creativecommons.org/ns#"
   xmlns:rdf="http://www.w3.org/1999/02/22-rdf-syntax-ns#"
   xmlns:svg="http://www.w3.org/2000/svg"
   xmlns="http://www.w3.org/2000/svg"
   xmlns:sodipodi="http://sodipodi.sourceforge.net/DTD/sodipodi-0.dtd"
   xmlns:inkscape="http://www.inkscape.org/namespaces/inkscape"
   width="35.189583mm"
   height="35.200817mm"
   viewBox="0 0 35.189585 35.200817"
   version="1.1"
   id="svg8"
   inkscape:export-filename="C:\web-projects\purl-in\images\favicon.png"
   inkscape:export-xdpi="232.36362"
   inkscape:export-ydpi="232.36362"
   sodipodi:docname="link1.svg"
   inkscape:version="0.92.4 (5da689c313, 2019-01-14)">
  <defs
     id="defs2">
    <mask
       id="SvgjsMask1643">
      <rect
         id="rect848"
         height="750"
         width="1920"
         x="0"
         y="0"
         style="fill:#ffffff" />
    </mask>
    <linearGradient
       id="SvgjsLinearGradient1644"
       gradientUnits="userSpaceOnUse"
       y2="-0.38999999"
       x2="0.84769994"
       y1="1.39"
       x1="0.1523">
      <stop
         id="stop851"
         offset="0"
         stop-color="rgba(96, 9, 38, 1)" />
      <stop
         id="stop853"
         offset="1"
         stop-color="rgba(248, 34, 150, 1)" />
    </linearGradient>
  </defs>
  <sodipodi:namedview
     id="base"
     pagecolor="#ffffff"
     bordercolor="#666666"
     borderopacity="1.0"
     inkscape:pageopacity="0.0"
     inkscape:pageshadow="2"
     inkscape:zoom="3.2551074"
     inkscape:cx="37.771981"
     inkscape:cy="77.581902"
     inkscape:document-units="mm"
     inkscape:current-layer="g901"
     showgrid="false"
     showguides="true"
     inkscape:guide-bbox="true"
     inkscape:window-width="1600"
     inkscape:window-height="838"
     inkscape:window-x="-8"
     inkscape:window-y="-8"
     inkscape:window-maximized="1" />
  <metadata
     id="metadata5">
    <rdf:RDF>
      <cc:Work
         rdf:about="">
        <dc:format>image/svg+xml</dc:format>
        <dc:type
           rdf:resource="http://purl.org/dc/dcmitype/StillImage" />
        <dc:title />
      </cc:Work>
    </rdf:RDF>
  </metadata>
  <g
     inkscape:label="Layer 1"
     inkscape:groupmode="layer"
     id="layer1"
     transform="translate(394.46632,-42.971284)">
    <g
       id="g901"
       transform="matrix(0.26458333,0,0,0.26458333,-399.57396,-1.7443517)">
      <path
         d="m 98.947684,178.92083 -25.175568,25.18698 c -0.516612,0.51697 -1.01454,1.04419 -1.492152,1.58201 a 36.157933,36.157933 0 0 1 4.113171,-0.28373 36.532218,36.532218 0 0 1 12.521232,2.08209 l 19.296663,-19.30806 a 18.758218,18.758218 0 0 1 12.98054,-6.07692 17.30747,17.30747 0 0 1 12.45793,5.55026 17.30911,17.30911 0 0 1 5.55842,12.45387 18.758572,18.758572 0 0 1 -6.06873,12.9846 l -25.17556,25.18696 a 18.758986,18.758986 0 0 1 -12.978481,6.07896 17.309273,17.309273 0 0 1 -12.460003,-5.55231 21.523598,21.523598 0 0 1 -2.6802,-3.24768 7.3954518,7.3954518 0 0 0 -3.125202,-0.67974 11.122466,11.122466 0 0 0 -7.27921,3.67841 l -1.914728,1.91471 a 33.631168,33.631168 0 0 0 5.740086,7.60172 30.501448,30.501448 0 0 0 21.862142,9.38176 31.972784,31.972784 0 0 0 22.100976,-9.91451 l 25.17329,-25.18925 a 31.973671,31.973671 0 0 0 9.90217,-22.10516 30.501448,30.501448 0 0 0 -9.39601,-21.85602 30.499496,30.499496 0 0 0 -21.86216,-9.3858 31.973108,31.973108 0 0 0 -22.098922,9.91653 z M 54.382348,223.51058 29.20678,248.69755 a 31.973774,31.973774 0 0 0 -9.902313,22.105 30.500974,30.500974 0 0 0 9.398073,21.85806 30.500871,30.500871 0 0 0 21.862129,9.38583 31.971883,31.971883 0 0 0 22.098957,-9.91656 L 97.83918,266.94292 c 0.516572,-0.51691 1.012484,-1.04635 1.490101,-1.58406 a 36.160785,36.160785 0 0 1 -4.109097,0.28374 36.536815,36.536815 0 0 1 -12.523282,-2.08009 l -19.297824,19.30695 a 18.758912,18.758912 0 0 1 -12.978452,6.07892 17.309038,17.309038 0 0 1 -12.457972,-5.55434 17.308771,17.308771 0 0 1 -5.558412,-12.45386 18.758912,18.758912 0 0 1 6.070762,-12.98255 l 25.175564,-25.18697 a 18.758439,18.758439 0 0 1 12.978495,-6.07896 17.30781,17.30781 0 0 1 12.455919,5.55229 21.528343,21.528343 0 0 1 2.682223,3.24974 7.3993538,7.3993538 0 0 0 3.127246,0.67769 11.123278,11.123278 0 0 0 7.279229,-3.67836 l 1.91269,-1.91268 a 33.627458,33.627458 0 0 0 -5.740029,-7.6017 30.499881,30.499881 0 0 0 -21.862143,-9.38582 31.973627,31.973627 0 0 0 -22.100989,9.91859 z"
         id="path881-7"
         inkscape:connector-curvature="0"
         style="fill:#f5f6fb;fill-opacity:1;stroke-width:1.47804677" />
    </g>
  </g>
</svg>
