<?xml version="1.0" encoding="UTF-8" standalone="no"?>
<!-- Created with Inkscape (http://www.inkscape.org/) -->

<svg
   xmlns:dc="http://purl.org/dc/elements/1.1/"
   xmlns:cc="http://creativecommons.org/ns#"
   xmlns:rdf="http://www.w3.org/1999/02/22-rdf-syntax-ns#"
   xmlns:svg="http://www.w3.org/2000/svg"
   xmlns="http://www.w3.org/2000/svg"
   xmlns:sodipodi="http://sodipodi.sourceforge.net/DTD/sodipodi-0.dtd"
   xmlns:inkscape="http://www.inkscape.org/namespaces/inkscape"
   width="35.569439mm"
   height="25.137434mm"
   viewBox="0 0 35.56944 25.137434"
   version="1.1"
   id="svg8"
   inkscape:export-filename="C:\web-projects\purl-in\images\favicon.png"
   inkscape:export-xdpi="232.36362"
   inkscape:export-ydpi="232.36362"
   sodipodi:docname="link5.svg"
   inkscape:version="0.92.4 (5da689c313, 2019-01-14)">
  <defs
     id="defs2">
    <mask
       id="SvgjsMask1643">
      <rect
         id="rect848"
         height="750"
         width="1920"
         x="0"
         y="0"
         style="fill:#ffffff" />
    </mask>
    <linearGradient
       id="SvgjsLinearGradient1644"
       gradientUnits="userSpaceOnUse"
       y2="-0.38999999"
       x2="0.84769994"
       y1="1.39"
       x1="0.1523">
      <stop
         id="stop851"
         offset="0"
         stop-color="rgba(96, 9, 38, 1)" />
      <stop
         id="stop853"
         offset="1"
         stop-color="rgba(248, 34, 150, 1)" />
    </linearGradient>
  </defs>
  <sodipodi:namedview
     id="base"
     pagecolor="#ffffff"
     bordercolor="#666666"
     borderopacity="1.0"
     inkscape:pageopacity="0.0"
     inkscape:pageshadow="2"
     inkscape:zoom="1.3315722"
     inkscape:cx="67.496447"
     inkscape:cy="160.28281"
     inkscape:document-units="mm"
     inkscape:current-layer="g901"
     showgrid="false"
     showguides="true"
     inkscape:guide-bbox="true"
     inkscape:window-width="1600"
     inkscape:window-height="838"
     inkscape:window-x="-8"
     inkscape:window-y="-8"
     inkscape:window-maximized="1" />
  <metadata
     id="metadata5">
    <rdf:RDF>
      <cc:Work
         rdf:about="">
        <dc:format>image/svg+xml</dc:format>
        <dc:type
           rdf:resource="http://purl.org/dc/dcmitype/StillImage" />
        <dc:title></dc:title>
      </cc:Work>
    </rdf:RDF>
  </metadata>
  <g
     inkscape:label="Layer 1"
     inkscape:groupmode="layer"
     id="layer1"
     transform="translate(403.84437,-67.211653)">
    <g
       id="g901"
       transform="matrix(0.26458333,0,0,0.26458333,-399.57396,-1.7443517)">
      <path
         d="m 88.37802,263.52418 -39.87005,23.02476 c -0.39165,0.2263 -0.77378,0.46175 -1.14549,0.70673 0.84345,0.11532 1.67962,0.27867 2.50445,0.48925 2.55543,0.65786 4.97598,1.75798 7.15207,3.25051 l 35.41372,-20.45189 c 2.59079,-1.65348 5.73153,-2.21219 8.73363,-1.55362 2.82137,0.79889 5.19189,2.71946 6.55868,5.31373 1.56477,2.47975 3.04476,7.22455 2.32803,10.06778 -0.92886,2.92981 -2.98157,5.37176 -5.70807,6.79047 l -39.87005,23.02476 c -2.59036,1.65374 -5.73072,2.21299 -8.73274,1.55518 -2.82193,-0.79916 -6.19281,-4.45237 -7.55958,-7.04734 -0.43713,-0.75314 -0.79972,-1.54715 -1.08207,-2.37091 -0.51331,-0.42705 -1.11384,-0.73662 -1.75946,-0.90699 -1.71838,-0.29372 -3.48421,0.0755 -4.94099,1.03301 l -1.45139,0.83796 c 0.47498,1.91717 1.22042,3.75698 2.21389,5.46407 2.46357,4.47738 7.63713,9.49673 12.56705,10.84283 5.05573,1.17638 10.37126,0.31917 14.80088,-2.38689 l 39.86904,-23.02649 c 4.55666,-2.48558 7.95433,-6.66191 9.46084,-11.62896 1.29597,-4.94334 -0.46756,-11.93295 -3.11616,-16.30343 -2.46281,-4.47827 -6.63623,-7.76651 -11.5664,-9.11323 -5.05565,-1.17565 -10.37082,-0.31789 -14.79998,2.38844 z m -54.56998,31.51835 -39.8700595,23.02476 c -4.5566505,2.48555 -7.9543505,6.66184 -9.4609005,11.62886 -1.29618,4.94394 -0.5323,10.20218 2.11706,14.57293 2.46289,4.4782 7.6362705,9.49847 12.56640047,10.84527 5.05565003,1.17573 10.37084003,0.31797 14.79997953,-2.38844 l 39.87006,-23.02476 c 0.39163,-0.22626 0.77291,-0.46334 1.14459,-0.70829 -0.84261,-0.1152 -1.67796,-0.27833 -2.50201,-0.4886 -2.55589,-0.65748 -4.97698,-1.75728 -7.15362,-3.24962 L 9.9053205,345.70567 c -2.59036,1.65373 -5.73072,2.21299 -8.73274,1.55518 -2.82151,-0.79974 -6.19181,-4.45325 -7.55803,-7.04824 -1.5648,-2.47973 -2.04479,-5.49249 -1.32802,-8.33572 0.92945,-2.92938 2.98244,-5.37074 5.70896,-6.78893 L 37.86554,302.0632 c 2.59035,-1.65377 5.73072,-2.21303 8.73274,-1.55518 2.82094,0.7995 5.19087,2.72036 6.55714,5.31464 0.43743,0.75365 0.8004,1.54814 1.08296,2.37245 0.51389,0.42686 1.11494,0.73613 1.76101,0.9061 1.71838,0.29368 3.48418,-0.0755 4.94099,-1.03301 l 1.44985,-0.83707 c -0.47495,-1.91716 -1.22038,-3.75696 -2.21387,-5.46402 -2.46284,-4.47824 -6.63624,-7.76648 -11.56639,-9.11322 -5.05626,-1.17578 -10.37206,-0.31768 -14.80154,2.38933 z"
         id="path881-6-8-9"
         inkscape:connector-curvature="0"
         style="fill:#e31b51;fill-opacity:1;stroke-width:0.91479558"
         sodipodi:nodetypes="cccccccccccccccccccccccccccccccccccccccccccccccccccc" />
    </g>
  </g>
</svg>
