<?xml version="1.0" encoding="UTF-8" standalone="no"?>
<!-- Created with Inkscape (http://www.inkscape.org/) -->

<svg
   xmlns:dc="http://purl.org/dc/elements/1.1/"
   xmlns:cc="http://creativecommons.org/ns#"
   xmlns:rdf="http://www.w3.org/1999/02/22-rdf-syntax-ns#"
   xmlns:svg="http://www.w3.org/2000/svg"
   xmlns="http://www.w3.org/2000/svg"
   xmlns:sodipodi="http://sodipodi.sourceforge.net/DTD/sodipodi-0.dtd"
   xmlns:inkscape="http://www.inkscape.org/namespaces/inkscape"
   width="65.718307mm"
   height="20.168516mm"
   viewBox="0 0 65.718311 20.168516"
   version="1.1"
   id="svg8"
   inkscape:export-filename="C:\web-projects\purl-in\images\favicon.png"
   inkscape:export-xdpi="232.36362"
   inkscape:export-ydpi="232.36362"
   sodipodi:docname="link3.svg"
   inkscape:version="0.92.4 (5da689c313, 2019-01-14)">
  <defs
     id="defs2">
    <mask
       id="SvgjsMask1643">
      <rect
         id="rect848"
         height="750"
         width="1920"
         x="0"
         y="0"
         style="fill:#ffffff" />
    </mask>
    <linearGradient
       id="SvgjsLinearGradient1644"
       gradientUnits="userSpaceOnUse"
       y2="-0.38999999"
       x2="0.84769994"
       y1="1.39"
       x1="0.1523">
      <stop
         id="stop851"
         offset="0"
         stop-color="rgba(96, 9, 38, 1)" />
      <stop
         id="stop853"
         offset="1"
         stop-color="rgba(248, 34, 150, 1)" />
    </linearGradient>
  </defs>
  <sodipodi:namedview
     id="base"
     pagecolor="#ffffff"
     bordercolor="#666666"
     borderopacity="1.0"
     inkscape:pageopacity="0.0"
     inkscape:pageshadow="2"
     inkscape:zoom="2.7753877"
     inkscape:cx="124.19128"
     inkscape:cy="38.114122"
     inkscape:document-units="mm"
     inkscape:current-layer="g901"
     showgrid="false"
     showguides="true"
     inkscape:guide-bbox="true"
     inkscape:window-width="1600"
     inkscape:window-height="838"
     inkscape:window-x="-8"
     inkscape:window-y="-8"
     inkscape:window-maximized="1" />
  <metadata
     id="metadata5">
    <rdf:RDF>
      <cc:Work
         rdf:about="">
        <dc:format>image/svg+xml</dc:format>
        <dc:type
           rdf:resource="http://purl.org/dc/dcmitype/StillImage" />
        <dc:title />
      </cc:Work>
    </rdf:RDF>
  </metadata>
  <g
     inkscape:label="Layer 1"
     inkscape:groupmode="layer"
     id="layer1"
     transform="translate(403.62354,-59.78193)">
    <g
       id="g901"
       transform="matrix(0.26458333,0,0,0.26458333,-399.57396,-1.7443517)">
      <path
         d="m 194.06668,232.55322 -68.18717,0.01 c -0.90606,3.1e-4 -1.80476,0.026 -2.69495,0.0787 1.34768,1.04479 2.63461,2.16562 3.85455,3.35704 3.77411,3.70061 6.87131,8.03331 9.1514,12.80192 l 57.87975,-0.01 c 6.1504,-0.27355 12.15832,1.90284 16.70655,6.05204 4.0942,4.2116 6.28289,9.91748 6.05562,15.78676 0.23086,5.86889 -1.95389,11.57594 -6.04486,15.79035 -4.54569,4.15212 -10.5523,6.33238 -16.70298,6.06273 l -68.18716,0.01 c -6.14989,0.27443 -12.1577,-1.90063 -16.70657,-6.04842 -4.0949,-4.21266 -6.28361,-9.91989 -6.0556,-15.79038 -0.004,-1.74428 0.16225,-3.48485 0.4975,-5.19663 -0.46278,-1.25491 -1.19449,-2.39339 -2.14382,-3.33558 -2.686757,-2.23057 -6.119791,-3.35864 -9.605911,-3.15665 l -3.35704,10e-6 c -1.096177,3.8015 -1.645687,7.73966 -1.632026,11.69603 -0.210677,10.23445 3.736954,20.11705 10.940855,27.38975 7.592142,7.10426 17.671712,10.941 28.066182,10.68317 l 68.18716,-0.014 c 10.394,0.25188 20.47087,-3.59 28.059,-10.69767 7.19917,-7.27739 11.14033,-17.16259 10.92297,-27.39688 0.21287,-10.23524 -3.73355,-20.11933 -10.93729,-27.39335 -7.59271,-7.10291 -17.67221,-10.93833 -28.06616,-10.67959 z m -102.19438,0.0214 -68.187176,0.01 c -10.393964,-0.25196 -20.4708458,3.58982 -28.0590165,10.69742 -7.2001125,7.27821 -11.1413685,17.16492 -10.9229725,27.40046 -0.212664,10.23521 3.733712,20.11922 10.9373014,27.39334 7.592629,7.10307 17.6721856,10.9385 28.0661636,10.6796 l 68.187178,-0.01 c 0.905989,-2.6e-4 1.804843,-0.0296 2.694947,-0.0823 -1.346323,-1.04376 -2.632055,-2.16339 -3.850965,-3.35347 -3.7753,-3.70039 -6.873714,-8.0331 -9.154972,-12.80193 l -57.879783,0.008 C 17.553138,292.79018 11.545335,290.61511 6.9964548,286.46732 2.9028662,282.2541 0.71543465,276.54692 0.94442718,270.67695 0.7135079,264.80805 2.8982781,259.10099 6.9893012,254.88661 11.535581,250.73582 17.542102,248.5569 23.692278,248.82745 l 68.187159,-0.01 c 6.149907,-0.2745 12.157733,1.90058 16.706583,6.04843 4.09284,4.21223 6.2802,9.91801 6.05201,15.78678 0.004,1.7455 -0.16205,3.48725 -0.49749,5.20022 0.46395,1.25518 1.19686,2.39366 2.1474,3.33556 2.68679,2.2305 6.11973,3.35861 9.6059,3.15667 l 3.35348,-2e-5 c 1.09621,-3.80143 1.64574,-7.73957 1.632,-11.6959 0.21282,-10.2352 -3.73359,-20.11929 -10.93726,-27.39333 -7.59367,-7.10376 -17.6746,-10.93921 -28.069764,-10.67962 z"
         id="path881-6"
         inkscape:connector-curvature="0"
         style="fill:#e31b51;fill-opacity:1;stroke-width:1.83242512"
         sodipodi:nodetypes="cccccccccccccccccccccccccccccccccccccccccccccccccccc" />
    </g>
  </g>
</svg>
