<?xml version="1.0" encoding="UTF-8" standalone="no"?>
<!-- Created with Inkscape (http://www.inkscape.org/) -->

<svg
   xmlns:dc="http://purl.org/dc/elements/1.1/"
   xmlns:cc="http://creativecommons.org/ns#"
   xmlns:rdf="http://www.w3.org/1999/02/22-rdf-syntax-ns#"
   xmlns:svg="http://www.w3.org/2000/svg"
   xmlns="http://www.w3.org/2000/svg"
   xmlns:sodipodi="http://sodipodi.sourceforge.net/DTD/sodipodi-0.dtd"
   xmlns:inkscape="http://www.inkscape.org/namespaces/inkscape"
   width="27.104115mm"
   height="19.916687mm"
   viewBox="0 0 27.104116 19.916687"
   version="1.1"
   id="svg8"
   inkscape:export-filename="C:\web-projects\purl-in\images\favicon.png"
   inkscape:export-xdpi="232.36362"
   inkscape:export-ydpi="232.36362"
   sodipodi:docname="link2.svg"
   inkscape:version="0.92.4 (5da689c313, 2019-01-14)">
  <defs
     id="defs2">
    <mask
       id="SvgjsMask1643">
      <rect
         id="rect848"
         height="750"
         width="1920"
         x="0"
         y="0"
         style="fill:#ffffff" />
    </mask>
    <linearGradient
       id="SvgjsLinearGradient1644"
       gradientUnits="userSpaceOnUse"
       y2="-0.38999999"
       x2="0.84769994"
       y1="1.39"
       x1="0.1523">
      <stop
         id="stop851"
         offset="0"
         stop-color="rgba(96, 9, 38, 1)" />
      <stop
         id="stop853"
         offset="1"
         stop-color="rgba(248, 34, 150, 1)" />
    </linearGradient>
  </defs>
  <sodipodi:namedview
     id="base"
     pagecolor="#ffffff"
     bordercolor="#666666"
     borderopacity="1.0"
     inkscape:pageopacity="0.0"
     inkscape:pageshadow="2"
     inkscape:zoom="1.3315722"
     inkscape:cx="50.193314"
     inkscape:cy="155.63168"
     inkscape:document-units="mm"
     inkscape:current-layer="g901"
     showgrid="false"
     showguides="true"
     inkscape:guide-bbox="true"
     inkscape:window-width="1600"
     inkscape:window-height="838"
     inkscape:window-x="-8"
     inkscape:window-y="-8"
     inkscape:window-maximized="1" />
  <metadata
     id="metadata5">
    <rdf:RDF>
      <cc:Work
         rdf:about="">
        <dc:format>image/svg+xml</dc:format>
        <dc:type
           rdf:resource="http://purl.org/dc/dcmitype/StillImage" />
        <dc:title></dc:title>
      </cc:Work>
    </rdf:RDF>
  </metadata>
  <g
     inkscape:label="Layer 1"
     inkscape:groupmode="layer"
     id="layer1"
     transform="translate(399.26625,-71.201789)">
    <g
       id="g901"
       transform="matrix(0.26458333,0,0,0.26458333,-399.57396,-1.7443517)">
      <path
         d="m 74.50403,278.60474 -24.2814,14.0251 c -0.39165,0.22632 -0.77377,0.46177 -1.14548,0.70674 0.84344,0.11532 1.67961,0.27867 2.50444,0.48926 2.55543,0.65787 4.97599,1.75797 7.15207,3.25052 l 19.82507,-11.45225 c 2.5908,-1.65349 5.73154,-2.21219 8.73363,-1.55363 2.82137,0.7989 5.1919,2.71947 6.55868,5.31374 1.56478,2.47975 2.04477,5.4925 1.32803,8.33573 -0.92886,2.92981 -2.98157,5.37175 -5.70807,6.79047 l -24.28139,14.02511 c -2.59036,1.65373 -5.73072,2.21299 -8.73274,1.55518 -2.82193,-0.79917 -5.19281,-2.72032 -6.55958,-5.31529 -0.43731,-0.75304 -0.79974,-1.54715 -1.08207,-2.37092 -0.51331,-0.42704 -1.11384,-0.73661 -1.75947,-0.90699 -1.71838,-0.29371 -3.4842,0.0755 -4.94098,1.03302 l -1.4514,0.83796 c 0.47499,1.91717 1.22043,3.75698 2.2139,5.46407 2.46357,4.47738 6.63713,7.76467 11.56705,9.11078 5.05573,1.17638 10.37126,0.31916 14.80088,-2.38689 l 24.28054,-14.02658 c 4.55665,-2.48558 7.95434,-6.66191 9.46084,-11.62897 1.29597,-4.94334 0.53243,-10.2009 -2.11616,-14.57138 -2.46282,-4.47826 -6.63623,-7.7665 -11.5664,-9.11322 -5.05565,-1.17565 -10.37082,-0.31789 -14.79999,2.38844 z m -38.98152,22.51837 -24.2814,14.0251 c -4.5566397,2.48555 -7.9543497,6.66184 -9.4608997,11.62886 -1.29617003,4.94394 -0.53229,10.20217 2.11706,14.57294 2.46289,4.47819 6.6362697,7.76641 11.5663997,9.11321 5.05565,1.17574 10.37084,0.31797 14.79999,-2.38844 l 24.28139,-14.0251 c 0.39163,-0.22626 0.77292,-0.46332 1.1446,-0.70828 -0.84261,-0.1152 -1.67797,-0.27833 -2.50201,-0.48861 -2.5559,-0.65747 -4.97697,-1.75728 -7.15362,-3.24962 l -19.82597,11.45069 c -2.59036,1.65373 -5.73072,2.21299 -8.73273,1.55518 -2.82151,-0.79974 -5.19182,-2.72119 -6.55803,-5.31619 -1.5648097,-2.47974 -2.0447897,-5.49249 -1.3280297,-8.33573 0.9294497,-2.92937 2.9824497,-5.37073 5.7089597,-6.78892 l 24.2814,-14.02511 c 2.59034,-1.65377 5.73072,-2.21303 8.73273,-1.55518 2.82095,0.7995 5.19088,2.72036 6.55715,5.31464 0.43769,0.7535 0.80042,1.54813 1.08296,2.37246 0.51389,0.42686 1.11494,0.73612 1.76101,0.9061 1.71838,0.29366 3.48418,-0.0755 4.94098,-1.03301 l 1.44986,-0.83708 c -0.47495,-1.91716 -1.22039,-3.75695 -2.21387,-5.46402 -2.46284,-4.47824 -6.63624,-7.76648 -11.5664,-9.11322 -5.05625,-1.17578 -10.37205,-0.31768 -14.80153,2.38933 z"
         id="path881"
         inkscape:connector-curvature="0"
         style="fill:#e31b51;fill-opacity:1;stroke-width:0.91479558"
         sodipodi:nodetypes="ccccccccccccccccccccccccccccccccccccccccccccccccccc" />
      <path
         d="m -220.38304,-38.01253 -19.08544,11.02476 c -0.39166,0.226308 -0.77378,0.461753 -1.14549,0.70673 a 22.378938,22.378938 0 0 1 2.50444,0.489258 22.610591,22.610591 0 0 1 7.15207,3.250519 l 14.62911,-8.451896 a 11.609872,11.609872 0 0 1 8.73364,-1.553636 10.711973,10.711973 0 0 1 6.55868,5.313738 10.712988,10.712988 0 0 1 1.32803,8.335728 11.610092,11.610092 0 0 1 -5.70807,6.79048 l -19.08544,11.0247554 a 11.610348,11.610348 0 0 1 -8.73274,1.55518596 10.713089,10.713089 0 0 1 -6.55958,-5.31529686 13.321427,13.321427 0 0 1 -1.08207,-2.3709134 4.5772073,4.5772073 0 0 0 -1.75946,-0.9069941 6.8839376,6.8839376 0 0 0 -4.94099,1.0330215 l -1.4514,0.837965 a 20.815067,20.815067 0 0 0 2.2139,5.46405786 18.878015,18.878015 0 0 0 11.56705,9.11078704 19.788657,19.788657 0 0 0 14.80088,-2.386891 l 19.08444,-11.0264921 a 19.789206,19.789206 0 0 0 9.46084,-11.6289743 18.878015,18.878015 0 0 0 -2.11616,-14.571375 18.876807,18.876807 0 0 0 -11.56641,-9.113218 19.788858,19.788858 0 0 0 -14.79998,2.388432 z m -33.78538,19.518356 -19.08544,11.0247556 a 19.78927,19.78927 0 0 0 -9.4609,11.6288618 18.877722,18.877722 0 0 0 2.11706,14.5729326 18.877658,18.877658 0 0 0 11.56639,9.113215 19.788099,19.788099 0 0 0 14.8,-2.388437 l 19.08543,-11.024756 c 0.39163,-0.226271 0.77292,-0.463332 1.14459,-0.708288 a 22.380703,22.380703 0 0 1 -2.502,-0.488612 22.613436,22.613436 0 0 1 -7.15362,-3.2496236 l -14.62962,8.4510346 a 11.610302,11.610302 0 0 1 -8.73272,1.555184 10.712943,10.712943 0 0 1 -6.55804,-5.316187 10.712778,10.712778 0 0 1 -1.32803,-8.3357266 11.610302,11.610302 0 0 1 5.70896,-6.78892504 l 19.08544,-11.02476036 a 11.610009,11.610009 0 0 1 8.73275,-1.555187 10.712183,10.712183 0 0 1 6.55714,5.3146373 13.324364,13.324364 0 0 1 1.08295,2.3724599 4.5796223,4.5796223 0 0 0 1.76101,0.9060987 6.8844407,6.8844407 0 0 0 4.94099,-1.0329992 l 1.44986,-0.837075 a 20.812771,20.812771 0 0 0 -2.21387,-5.4640277 18.877045,18.877045 0 0 0 -11.5664,-9.113218 19.789179,19.789179 0 0 0 -14.80154,2.389328 z"
         id="path881-7"
         inkscape:connector-curvature="0"
         style="fill:#e31b51;fill-opacity:1;stroke-width:0.91479558" />
    </g>
  </g>
</svg>
