<?xml version="1.0" encoding="UTF-8" standalone="no"?>
<!-- Created with Inkscape (http://www.inkscape.org/) -->

<svg
   xmlns:dc="http://purl.org/dc/elements/1.1/"
   xmlns:cc="http://creativecommons.org/ns#"
   xmlns:rdf="http://www.w3.org/1999/02/22-rdf-syntax-ns#"
   xmlns:svg="http://www.w3.org/2000/svg"
   xmlns="http://www.w3.org/2000/svg"
   xmlns:sodipodi="http://sodipodi.sourceforge.net/DTD/sodipodi-0.dtd"
   xmlns:inkscape="http://www.inkscape.org/namespaces/inkscape"
   width="78.383957mm"
   height="21.213863mm"
   viewBox="0 0 78.383959 21.213863"
   version="1.1"
   id="svg8"
   inkscape:export-filename="C:\web-projects\purl-in\images\favicon.png"
   inkscape:export-xdpi="232.36362"
   inkscape:export-ydpi="232.36362"
   sodipodi:docname="link5.svg"
   inkscape:version="0.92.4 (5da689c313, 2019-01-14)">
  <defs
     id="defs2">
    <mask
       id="SvgjsMask1643">
      <rect
         id="rect848"
         height="750"
         width="1920"
         x="0"
         y="0"
         style="fill:#ffffff" />
    </mask>
    <linearGradient
       id="SvgjsLinearGradient1644"
       gradientUnits="userSpaceOnUse"
       y2="-0.38999999"
       x2="0.84769994"
       y1="1.39"
       x1="0.1523">
      <stop
         id="stop851"
         offset="0"
         stop-color="rgba(96, 9, 38, 1)" />
      <stop
         id="stop853"
         offset="1"
         stop-color="rgba(248, 34, 150, 1)" />
    </linearGradient>
  </defs>
  <sodipodi:namedview
     id="base"
     pagecolor="#ffffff"
     bordercolor="#666666"
     borderopacity="1.0"
     inkscape:pageopacity="0.0"
     inkscape:pageshadow="2"
     inkscape:zoom="2.3758796"
     inkscape:cx="147.96858"
     inkscape:cy="40.180712"
     inkscape:document-units="mm"
     inkscape:current-layer="g901"
     showgrid="false"
     showguides="true"
     inkscape:guide-bbox="true"
     inkscape:window-width="1600"
     inkscape:window-height="838"
     inkscape:window-x="-8"
     inkscape:window-y="-8"
     inkscape:window-maximized="1" />
  <metadata
     id="metadata5">
    <rdf:RDF>
      <cc:Work
         rdf:about="">
        <dc:format>image/svg+xml</dc:format>
        <dc:type
           rdf:resource="http://purl.org/dc/dcmitype/StillImage" />
        <dc:title />
      </cc:Work>
    </rdf:RDF>
  </metadata>
  <g
     inkscape:label="Layer 1"
     inkscape:groupmode="layer"
     id="layer1"
     transform="translate(407.39439,-56.607339)">
    <g
       id="g901"
       transform="matrix(0.26458333,0,0,0.26458333,-399.57396,-1.7443517)">
      <path
         d="m 227.71167,220.5547 -92.16083,0.01 c -0.90543,3.2e-4 -1.80352,0.026 -2.69308,0.0787 1.34673,1.04409 2.63278,2.16415 3.85189,3.35474 3.77151,3.69805 6.86657,8.02778 9.14509,12.7931 l 81.86052,-0.01 c 6.14614,-0.27335 12.14993,1.90154 16.69505,6.04788 4.09138,4.2087 6.27854,9.91064 6.05143,15.77588 0.23071,5.86485 -1.95255,15.57141 -6.0407,19.78291 -4.54255,4.14928 -10.54505,6.32802 -16.69147,6.05857 l -92.16082,0.01 c -6.14565,0.27424 -12.14932,-1.89934 -16.69507,-6.04428 -4.09208,-4.20972 -6.27928,-13.91648 -6.05143,-19.78291 -0.004,-1.7431 0.16214,-3.48245 0.49713,-5.19306 -0.46242,-1.25407 -1.19362,-2.39176 -2.14232,-3.33328 -2.6849,-2.22903 -6.11558,-3.35632 -9.59929,-3.15447 h -3.354721 c -1.095424,3.79888 -1.644565,7.73434 -1.630901,11.68797 -0.210537,10.2274 3.734372,24.10664 10.933322,31.37432 7.58691,7.09937 17.65954,10.93345 28.04685,10.67582 l 92.1608,-0.014 c 10.38687,0.25172 20.45678,-3.58752 28.03969,-10.6903 7.1942,-7.27238 11.13267,-21.15419 10.91545,-31.38146 0.21275,-10.22818 -3.73097,-20.10548 -10.92975,-27.37448 -7.5875,-7.09802 -17.66005,-10.93081 -28.04683,-10.67224 z m -126.14461,0.0214 -92.1608501,0.01 c -10.38681614,-0.25176 -20.4567409,3.58738 -28.0396899,10.69005 -7.195169,7.27323 -11.133708,17.15312 -10.915443,27.38162 -0.212535,10.22815 3.731142,24.1088 10.929755,31.3779 7.587425,7.09817 17.66000982,10.93097 28.0468358,10.67224 l 92.1608422,-0.01 c 0.90536,-2.6e-4 1.80361,-0.0297 2.69309,-0.0823 -1.34539,-1.04303 -2.63024,-2.1619 -3.84831,-3.35117 -3.772692,-3.69785 -6.869001,-8.02756 -9.148671,-12.7931 l -81.8605281,0.008 c -6.1456398,0.27422 -12.149316,-1.89934 -16.69506,-6.04428 -4.0907719,-4.21031 -6.2766689,-13.91701 -6.0478449,-19.78292 -0.230781,-5.86485 1.952487,-11.568 6.040706,-15.77946 4.5431378,-4.14795 10.545531,-6.32538 16.69147,-6.05501 l 92.160828,-0.01 c 6.14566,-0.27429 12.14936,1.89927 16.69506,6.04427 4.09002,4.20934 6.27588,9.91119 6.04785,15.77592 0.004,1.74428 -0.16195,3.48485 -0.49713,5.19662 0.46362,1.25431 1.19602,2.39201 2.14589,3.33328 2.68495,2.22897 6.11553,3.3563 9.5993,3.15448 h 3.35117 c 1.09546,-3.79883 1.64461,-7.73427 1.63088,-11.68786 0.21266,-10.22817 -3.73103,-20.10544 -10.92974,-27.37445 -7.58843,-7.09887 -17.66242,-10.93169 -28.05043,-10.67227 z"
         id="path881-6-8-9"
         inkscape:connector-curvature="0"
         style="fill:#e31b51;fill-opacity:1;stroke-width:1.83116317"
         sodipodi:nodetypes="cccccccccccccccccccccccccccccccccccccccccccccccccccc" />
    </g>
  </g>
</svg>
