<?xml version="1.0" encoding="UTF-8" standalone="no"?>
<svg
   xmlns:dc="http://purl.org/dc/elements/1.1/"
   xmlns:cc="http://creativecommons.org/ns#"
   xmlns:rdf="http://www.w3.org/1999/02/22-rdf-syntax-ns#"
   xmlns:svg="http://www.w3.org/2000/svg"
   xmlns="http://www.w3.org/2000/svg"
   xmlns:sodipodi="http://sodipodi.sourceforge.net/DTD/sodipodi-0.dtd"
   xmlns:inkscape="http://www.inkscape.org/namespaces/inkscape"
   id="Layer_1"
   data-name="Layer 1"
   viewBox="0 0 254.97415 90.351478"
   version="1.1"
   sodipodi:docname="logo-white.svg"
   width="254.97415"
   height="90.351479"
   inkscape:version="0.92.4 (5da689c313, 2019-01-14)">
  <metadata
     id="metadata93">
    <rdf:RDF>
      <cc:Work
         rdf:about="">
        <dc:format>image/svg+xml</dc:format>
        <dc:type
           rdf:resource="http://purl.org/dc/dcmitype/StillImage" />
        <dc:title>purl ketupat radmadhan [Recovered] bbb</dc:title>
      </cc:Work>
    </rdf:RDF>
  </metadata>
  <sodipodi:namedview
     pagecolor="#ffffff"
     bordercolor="#666666"
     borderopacity="1"
     objecttolerance="10"
     gridtolerance="10"
     guidetolerance="10"
     inkscape:pageopacity="0"
     inkscape:pageshadow="2"
     inkscape:window-width="1600"
     inkscape:window-height="838"
     id="namedview91"
     showgrid="false"
     inkscape:zoom="4.4475097"
     inkscape:cx="127.48707"
     inkscape:cy="45.175739"
     inkscape:window-x="-8"
     inkscape:window-y="-8"
     inkscape:window-maximized="1"
     inkscape:current-layer="Layer_1" />
  <defs
     id="defs4">
    <style
       id="style2">.cls-1{fill:none;stroke:#000;stroke-miterlimit:10;}</style>
  </defs>
  <title
     id="title6">purl ketupat radmadhan [Recovered] bbb</title>
  <g
     id="g944"
     style="fill:#ffffff;fill-opacity:1">
    <text
       style="fill:#ffffff;fill-opacity:1"
       id="text8"
       y="-480.03"
       x="-376.98587" />
    <path
       style="fill:#ffffff;fill-opacity:1"
       inkscape:connector-curvature="0"
       id="path10"
       d="m 104.69415,72.6 h 7.15 a 14.76,14.76 0 0 1 6,0.88 3,3 0 0 1 1.78,2.9 4.54,4.54 0 0 1 -2.74,4.11 16.27,16.27 0 0 1 -7.67,1.48 H 98.214149 q -5.18,0 -6.9,-2.79 a 12.93,12.93 0 0 1 -8.5,2.79 h -9 a 16,16 0 0 1 -9,-2.36 q -3.57,-2.37 -3.57,-6 a 9.91,9.91 0 0 1 1.6,-4.82 l 8.38,-14.35 q 3.51,-6 9.61,-6 a 8.2,8.2 0 0 1 4.5,1.18 3.43,3.43 0 0 1 1.85,2.9 6,6 0 0 1 -1,3 l -0.68,1.16 -6.47,11 -0.68,1.29 a 5.91,5.91 0 0 0 -0.61,1.68 c -0.08,1.29 1.11,1.93 3.57,1.93 q 7.64,0 10.17,-4.3 l 7.7,-13.24 q 3.450001,-6 9.730001,-6 a 8,8 0 0 1 4.44,1.2 3.47,3.47 0 0 1 1.85,2.89 9.91,9.91 0 0 1 -1.6,4.12 z" />
    <path
       style="fill:#ffffff;fill-opacity:1"
       inkscape:connector-curvature="0"
       id="path12"
       d="m 130.48415,58.23 h 11.27 q 5.85,0 5.85,3.66 0,3.66 -5.85,3.69 h -12.45 a 7.87,7.87 0 0 1 -4.22,-1 3,3 0 0 1 0,-5.33 7.93,7.93 0 0 1 4.25,-1 z" />
    <path
       style="fill:#ffffff;fill-opacity:1"
       inkscape:connector-curvature="0"
       id="path14"
       d="m 174.27415,57.63 -2.1,3.61 q -2.83,4.83 -7.39,4.82 a 8.56,8.56 0 0 1 -4.62,-1.16 3.38,3.38 0 0 1 -1.85,-2.88 8.28,8.28 0 0 1 1.36,-3.35 l 7,-12 a 7.89,7.89 0 0 1 7.15,-4.34 c 3,0 4.9,1 5.6,3 l 0.5,1.33 a 1.89,1.89 0 0 0 1.09,1.31 14.87,14.87 0 0 0 3.63,0.26 h 14.37 q 8.07,0 8.07,4 0,5.46 -10.23,5.46 l -0.68,0.43 q -9.8,6.54 -9.79,10.11 c 0,2.38 1.89,3.56 5.67,3.56 h 7.76 c 5.21,0 7.82,1.27 7.82,3.79 a 4.52,4.52 0 0 1 -2.74,4.13 16.57,16.57 0 0 1 -7.67,1.46 h -12.05 a 16.21,16.21 0 0 1 -10.07,-3 9.22,9.22 0 0 1 -3.91,-7.7 9.76,9.76 0 0 1 2.09,-5.84 40.09,40.09 0 0 1 7.4,-7 z" />
    <path
       style="fill:#ffffff;fill-opacity:1"
       inkscape:connector-curvature="0"
       id="path16"
       d="m 229.44415,68.28 h 6.47 q 7.83,0 7.83,3.83 a 4.49,4.49 0 0 1 -2.75,4.08 16.42,16.42 0 0 1 -7.67,1.46 h -11.09 a 14.68,14.68 0 0 1 -7.21,-1.5 4.54,4.54 0 0 1 -2.65,-4 q 0,-1.33 1.79,-4.43 l 24.85,-42.75 0.68,-1.16 q 2.84,-4.81 9.06,-4.82 a 7.81,7.81 0 0 1 4.4,1.2 3.47,3.47 0 0 1 1.82,2.88 6.17,6.17 0 0 1 -0.92,2.93 l -0.68,1.16 z" />
    <path
       style="fill:#ffffff;fill-opacity:1"
       inkscape:connector-curvature="0"
       id="path18"
       d="m 39.014149,61.97 29.05,-52.63 h 2.15 c -7.55,0 -15.87,2.34 -15.87,-1.27 q 0,-3.84 4,-5.95 c 2.66,-1.41 0,-2.12 4.86,-2.12 h 24 q 15.770001,0 23.280001,4.09 a 13.45,13.45 0 0 1 7.53,12.59 c 0,6.92 -4.94,12 -12.71,16.4 -5.640001,3.2 -14.550001,3.39 -26.320001,3.39 h -9.08 l -14.53,25.14 m 19.64,-34.64 17.4,-0.84 c 8.760001,0 11.290001,-3.6 11.290001,-8.49 0,-2.79 -3.39,-6.63 -8.370001,-6.63 h -12.46 z" />
    <path
       style="fill:#ffffff;fill-opacity:1"
       inkscape:connector-curvature="0"
       id="path20"
       d="m 32.874149,71.28 c -2.65,3.9 -4.46,6.56 -6.66,8.09 a 13.42,13.42 0 0 1 -7.84,2.29 9.94,9.94 0 0 1 -5.74,-1.46 4.52,4.52 0 0 1 -2.14,-3.93 6.51,6.51 0 0 1 2.19,-4.62 15.9,15.9 0 0 1 6,-3.56 43.41,43.41 0 0 1 11.93,-2 14.63,14.63 0 0 0 4.28,-0.67 c 1.28,-0.55 1.93,-1.28 1.93,-2.19 0,-0.91 -0.6,-1.55 -1.78,-2.08 a 11.78,11.78 0 0 0 -4.72,-0.79 50.69,50.69 0 0 0 -12.3,1.55 36.3,36.3 0 0 0 -10.3499997,4.06 q -7.65999996,4.7 -7.65999996,11 0,4.71 4.82999996,7.64 4.83,2.93 12.5999997,3 c 4.9,0 9.28,0.66 13,-1.09 2.55,-1.2 5,-1.55 6.7,-3.25 1.7,-1.7 7.88,-4.71 10.95,-9.22 l 7.3,-12.48 -10.95,-9.76 z" />
    <path
       style="fill:#ffffff;fill-opacity:1"
       inkscape:connector-curvature="0"
       id="path22"
       d="M 49.774149,61.07" />
    <path
       style="fill:#ffffff;fill-opacity:1;stroke:#ffffff;stroke-miterlimit:10;stroke-opacity:1"
       inkscape:connector-curvature="0"
       id="path24"
       d="m 49.294149,71.35 c -3.88,6.43 -8.72,11.86 -16,14.57 -9.07,3.25 -19.36,2.17 -28.1299997,-1.36"
       class="cls-1" />
    <path
       style="fill:#ffffff;fill-opacity:1"
       inkscape:connector-curvature="0"
       id="path26"
       d="m 29.894149,87.42 c 0.83,-0.07 1.38,-0.52 2.16,-0.65 l -1.15,-2.74 -0.7,0.33 a 1.51,1.51 0 0 0 0.75,2.79 c 1.49,-0.12 2.33,-0.78 3.67,-1.34 l -1.16,-2.75 a 5.89,5.89 0 0 0 -1,0.79 1.51,1.51 0 0 0 1.46,2.5 c 3.53,-1.08 6.45,-4.32 9.19,-6.64 l -2.36,-1.82 a 20,20 0 0 1 -1.51,1.8 c -1.3,1.42 0.82,3.55 2.12,2.12 0.7,-0.78 1.35,-1.57 2,-2.41 1.09,-1.44 -1.15,-2.84 -2.35,-1.82 -2.31,2 -4.92,5 -7.87,5.88 l 1.46,2.51 0.4,-0.32 c 1.36,-0.85 0.47,-3.42 -1.16,-2.74 a 10.66,10.66 0 0 1 -2.87,1.24 l 0.76,2.8 0.7,-0.33 c 1.65,-0.78 0.4,-3 -1.15,-2.75 -0.46,0.08 -1,0.51 -1.37,0.55 -1.91,0.16 -1.93,3.16 0,3 z" />
    <path
       style="fill:#ffffff;fill-opacity:1"
       inkscape:connector-curvature="0"
       id="path28"
       d="m 41.824149,77.28 a 19.58,19.58 0 0 1 -3.52,3.22 c -1.36,1 -2.68,2.07 -4.43,2.08 a 1.5,1.5 0 0 0 0,3 c 3.85,0 7.69,-3.38 10.07,-6.18 1.25,-1.46 -0.87,-3.59 -2.12,-2.12 z" />
    <path
       style="fill:#ffffff;fill-opacity:1;stroke:#ffffff;stroke-miterlimit:10;stroke-opacity:1"
       inkscape:connector-curvature="0"
       id="path30"
       d="m 39.014149,82.82 c -4.17,3.15 -15.81,6.15 -21.54,6.15 -7,0 -14.5199997,-3.05 -16.99999966,-10.46"
       class="cls-1" />
    <path
       style="fill:#ffffff;fill-opacity:1"
       inkscape:connector-curvature="0"
       id="path32"
       d="m 24.674149,88.72 a 1.5,1.5 0 0 0 0,-3 1.5,1.5 0 0 0 0,3 z" />
    <path
       style="fill:#ffffff;fill-opacity:1"
       inkscape:connector-curvature="0"
       id="path34"
       d="m 23.344149,89.13 a 1.5,1.5 0 0 0 0,-3 1.5,1.5 0 0 0 0,3 z" />
    <path
       style="fill:#ffffff;fill-opacity:1"
       inkscape:connector-curvature="0"
       id="path36"
       d="m 21.934149,89.13 a 1.5,1.5 0 0 0 0,-3 1.5,1.5 0 0 0 0,3 z" />
    <path
       style="fill:#ffffff;fill-opacity:1"
       inkscape:connector-curvature="0"
       id="path38"
       d="m 20.634149,89.43 a 1.5,1.5 0 0 0 0,-3 1.5,1.5 0 0 0 0,3 z" />
    <path
       style="fill:#ffffff;fill-opacity:1"
       inkscape:connector-curvature="0"
       id="path40"
       d="m 19.094149,86.55 h -0.08 a 1.5,1.5 0 0 0 0,3 h 0.09 a 1.5,1.5 0 1 0 0,-3 z" />
    <path
       style="fill:#ffffff;fill-opacity:1"
       inkscape:connector-curvature="0"
       id="path42"
       d="m 17.494149,89.28 a 1.5,1.5 0 0 0 0,-3 1.5,1.5 0 0 0 0,3 z" />
    <path
       style="fill:#ffffff;fill-opacity:1"
       inkscape:connector-curvature="0"
       id="path44"
       d="m 15.894149,89.11 a 1.5,1.5 0 0 0 0,-3 1.5,1.5 0 0 0 0,3 z" />
    <path
       style="fill:#ffffff;fill-opacity:1"
       inkscape:connector-curvature="0"
       id="path46"
       d="m 16.264149,89.28 a 1.5,1.5 0 0 0 0,-3 1.5,1.5 0 0 0 0,3 z" />
    <path
       style="fill:#ffffff;fill-opacity:1"
       inkscape:connector-curvature="0"
       id="path48"
       d="m 14.384149,88.84 a 1.5,1.5 0 0 0 0,-3 1.5,1.5 0 0 0 0,3 z" />
    <path
       style="fill:#ffffff;fill-opacity:1"
       inkscape:connector-curvature="0"
       id="path50"
       d="m 14.884149,88.87 a 1.5,1.5 0 0 0 0,-3 1.5,1.5 0 0 0 0,3 z" />
    <path
       style="fill:#ffffff;fill-opacity:1"
       inkscape:connector-curvature="0"
       id="path52"
       d="m 13.124149,88.34 a 1.5,1.5 0 0 0 0,-3 1.5,1.5 0 0 0 0,3 z" />
    <path
       style="fill:#ffffff;fill-opacity:1"
       inkscape:connector-curvature="0"
       id="path54"
       d="m 13.314149,88.58 a 1.5,1.5 0 0 0 0,-3 1.5,1.5 0 0 0 0,3 z" />
    <path
       style="fill:#ffffff;fill-opacity:1"
       inkscape:connector-curvature="0"
       id="path56"
       d="m 12.014149,88.2 a 1.5,1.5 0 0 0 0,-3 1.5,1.5 0 0 0 0,3 z" />
    <path
       style="fill:#ffffff;fill-opacity:1"
       inkscape:connector-curvature="0"
       id="path58"
       d="m 10.944149,88.02 a 1.5,1.5 0 0 0 0,-3 1.5,1.5 0 0 0 0,3 z" />
    <path
       style="fill:#ffffff;fill-opacity:1"
       inkscape:connector-curvature="0"
       id="path60"
       d="m 9.8041493,87.49 a 1.5,1.5 0 0 0 0,-3 1.5,1.5 0 0 0 0,3 z" />
    <path
       style="fill:#ffffff;fill-opacity:1"
       inkscape:connector-curvature="0"
       id="path62"
       d="m 14.884149,89.48 a 43.37,43.37 0 0 0 21.19,-3.51 c 6.06,-2.62 9.9,-7.87 12.89,-13.54 0.9,-1.71 -1.69,-3.23 -2.59,-1.51 -3,5.74 -6.84,10.78 -13.23,12.94 -5.89,2 -12.05,3.29 -18.26,2.59 -1.92,-0.22 -1.9,2.79 0,3 z" />
    <path
       style="fill:#ffffff;fill-opacity:1"
       inkscape:connector-curvature="0"
       id="path64"
       d="m 24.134149,88.06 h 3.41 a 4.6,4.6 0 0 0 2.7,-0.35 c 1.62,-1 0.12,-3.65 -1.51,-2.6 0.14,-0.09 -0.66,0 -0.77,0 h -1.27 -2.56 c -1.93,0 -1.93,3 0,3 z" />
    <path
       style="fill:#ffffff;fill-opacity:1"
       inkscape:connector-curvature="0"
       id="path66"
       d="m 17.224149,87.12 c -1.72,-0.13 -3.62,-1.14 -5.22,-1.74 A 12.24,12.24 0 0 1 7.0041493,82.05 c -1.31,-1.43 -3.42,0.69 -2.12,2.12 a 14.79,14.79 0 0 0 5.7299997,3.87 c 2.1,0.82 4.39,1.91 6.65,2.08 1.93,0.15 1.92,-2.85 0,-3 z" />
    <text
       style="fill:#ffffff;fill-opacity:1"
       id="text68"
       y="-480.03"
       x="-376.98587" />
    <path
       style="fill:#ffffff;fill-opacity:1"
       inkscape:connector-curvature="0"
       id="path70"
       d="m 45.654149,53.39 a 6.92,6.92 0 0 0 1.45,-2.54 c 0.38,-1.23 -1.55,-1.76 -1.93,-0.53 a 4.25,4.25 0 0 1 -0.94,1.65 c -0.85,1 0.56,2.38 1.42,1.42 z" />
    <path
       style="fill:#ffffff;fill-opacity:1"
       inkscape:connector-curvature="0"
       id="path72"
       d="m 46.014149,52.86 c 0.7,-1.32 1.43,-2.6 2.18,-3.87 a 32,32 0 0 1 2.15,-3.6 c 0.79,-1 -0.62,-2.42 -1.42,-1.41 a 53,53 0 0 0 -4.64,7.87 c -0.6,1.13 1.12,2.14 1.73,1 z" />
    <path
       style="fill:#ffffff;fill-opacity:1"
       inkscape:connector-curvature="0"
       id="path74"
       d="m 18.404149,90.18 c 6.44,-0.2 12.83,-1.36 18.27,-5 0.53,-0.36 0,-1.23 -0.5,-0.87 -5.3,3.55 -11.5,4.68 -17.77,4.87 -0.65,0 -0.65,1 0,1 z" />
    <path
       style="fill:#ffffff;fill-opacity:1"
       inkscape:connector-curvature="0"
       id="path76"
       d="m 18.574149,90.32 a 33.84,33.84 0 0 0 22.11,-7 c 0.51,-0.39 -0.2,-1.1 -0.7,-0.71 a 32.84,32.84 0 0 1 -21.41,6.74 0.5,0.5 0 0 0 0,1 z" />
    <path
       style="fill:#ffffff;fill-opacity:1"
       inkscape:connector-curvature="0"
       id="path78"
       d="m 40.474149,83.48 a 7.84,7.84 0 0 0 0.83,-0.8 11.41,11.41 0 0 0 0.69,-1 0.5,0.5 0 0 0 -0.86,-0.51 8.44,8.44 0 0 1 -0.59,0.88 6,6 0 0 1 -0.77,0.74 c -0.47,0.45 0.24,1.16 0.7,0.71 z" />
    <path
       style="fill:#ffffff;fill-opacity:1"
       inkscape:connector-curvature="0"
       id="path80"
       d="m 41.364149,82.67 a 7.77,7.77 0 0 0 1,-1.69 c 0.27,-0.58 -0.59,-1.09 -0.86,-0.5 a 7.46,7.46 0 0 1 -0.89,1.48 c -0.39,0.5 0.31,1.21 0.71,0.71 z" />
    <path
       style="fill:#ffffff;fill-opacity:1"
       inkscape:connector-curvature="0"
       id="path82"
       d="m 41.694149,82.32 a 2.67,2.67 0 0 0 0.8,-1.34 c 0.2,-0.61 -0.76,-0.88 -1,-0.27 a 1.68,1.68 0 0 1 -0.54,0.9 c -0.5,0.4 0.21,1.11 0.71,0.71 z" />
    <path
       style="fill:#ffffff;fill-opacity:1"
       inkscape:connector-curvature="0"
       id="path84"
       d="m 49.694149,71.54 a 3.52,3.52 0 0 1 0.29,-1 c 0.37,-0.52 -0.49,-1 -0.86,-0.5 a 3.58,3.58 0 0 0 -0.4,1.26 c -0.13,0.63 0.83,0.89 1,0.26 z" />
    <path
       style="fill:#ffffff;fill-opacity:1"
       inkscape:connector-curvature="0"
       id="path86"
       d="m 49.734149,71.61 a 23.69,23.69 0 0 0 1.28,-2.51 c 0.26,-0.59 -0.61,-1.1 -0.86,-0.51 a 23.92,23.92 0 0 1 -1.29,2.52 0.50172203,0.50172203 0 0 0 0.87,0.5 z" />
    <path
       style="fill:#ffffff;fill-opacity:1"
       inkscape:connector-curvature="0"
       id="path88"
       d="m 18.364149,89.27 a 2.21,2.21 0 0 1 -1.11,-0.09 c -0.16,-0.05 -0.3,-0.15 -0.47,-0.2 -0.17,-0.05 -0.25,0 -0.34,-0.06 -0.58,-0.27 -1.09,0.59 -0.51,0.86 a 2.69,2.69 0 0 0 0.54,0.14 c 0.23,0.07 0.43,0.21 0.68,0.27 a 3.52,3.52 0 0 0 1.48,0 c 0.62,-0.13 0.36,-1.1 -0.27,-1 z" />
    <text
       style="fill:#ffffff;fill-opacity:1"
       id="text8-9"
       y="-365.53488"
       x="-370.60388" />
    <text
       style="fill:#ffffff;fill-opacity:1"
       id="text68-7"
       y="-365.53488"
       x="-370.60388" />
  </g>
</svg>
