<svg xmlns="http://www.w3.org/2000/svg" version="1.1" xmlns:xlink="http://www.w3.org/1999/xlink" xmlns:svgjs="http://svgjs.com/svgjs" width="800" height="1080" preserveAspectRatio="none" viewBox="0 0 800 1080"><g mask="url(&quot;#SvgjsMask1014&quot;)" fill="none"><rect width="800" height="1080" x="0" y="0" fill="rgba(255, 64, 115, 1)"></rect><path d="M-80.93 752.31L-80.93 752.31" stroke="rgba(240, 46, 99, 1)" stroke-width="1.5"></path><path d="M-80.93 752.31L-100.09 890.2" stroke="rgba(240, 46, 99, 1)" stroke-width="1.5"></path><path d="M-80.93 752.31L76.43 714.54" stroke="rgba(240, 46, 99, 1)" stroke-width="1.5"></path><path d="M-80.93 752.31L58.39 860.53" stroke="rgba(240, 46, 99, 1)" stroke-width="1.5"></path><path d="M-80.93 752.31L-99.06 1019.42" stroke="rgba(240, 46, 99, 1)" stroke-width="1.5"></path><path d="M-80.93 752.31L203.57 752.11" stroke="rgba(240, 46, 99, 1)" stroke-width="1.5"></path><path d="M-80.93 752.31L36.69 1027.67" stroke="rgba(240, 46, 99, 1)" stroke-width="1.5"></path><path d="M-100.09 890.2L-100.09 890.2" stroke="rgba(240, 46, 99, 1)" stroke-width="1.5"></path><path d="M-100.09 890.2L-99.06 1019.42" stroke="rgba(240, 46, 99, 1)" stroke-width="1.5"></path><path d="M-100.09 890.2L58.39 860.53" stroke="rgba(240, 46, 99, 1)" stroke-width="1.5"></path><path d="M-100.09 890.2L36.69 1027.67" stroke="rgba(240, 46, 99, 1)" stroke-width="1.5"></path><path d="M-100.09 890.2L76.43 714.54" stroke="rgba(240, 46, 99, 1)" stroke-width="1.5"></path><path d="M-99.06 1019.42L-99.06 1019.42" stroke="rgba(240, 46, 99, 1)" stroke-width="1.5"></path><path d="M-99.06 1019.42L36.69 1027.67" stroke="rgba(240, 46, 99, 1)" stroke-width="1.5"></path><path d="M-99.06 1019.42L-90.77 1157.57" stroke="rgba(240, 46, 99, 1)" stroke-width="1.5"></path><path d="M-99.06 1019.42L51.31 1128.42" stroke="rgba(240, 46, 99, 1)" stroke-width="1.5"></path><path d="M-99.06 1019.42L58.39 860.53" stroke="rgba(240, 46, 99, 1)" stroke-width="1.5"></path><path d="M-90.77 1157.57L-90.77 1157.57" stroke="rgba(240, 46, 99, 1)" stroke-width="1.5"></path><path d="M-90.77 1157.57L51.31 1128.42" stroke="rgba(240, 46, 99, 1)" stroke-width="1.5"></path><path d="M-90.77 1157.57L36.69 1027.67" stroke="rgba(240, 46, 99, 1)" stroke-width="1.5"></path><path d="M-90.77 1157.57L-100.09 890.2" stroke="rgba(240, 46, 99, 1)" stroke-width="1.5"></path><path d="M76.43 714.54L76.43 714.54" stroke="rgba(240, 46, 99, 1)" stroke-width="1.5"></path><path d="M76.43 714.54L203.57 752.11" stroke="rgba(240, 46, 99, 1)" stroke-width="1.5"></path><path d="M76.43 714.54L58.39 860.53" stroke="rgba(240, 46, 99, 1)" stroke-width="1.5"></path><path d="M76.43 714.54L224.06 621.25" stroke="rgba(240, 46, 99, 1)" stroke-width="1.5"></path><path d="M76.43 714.54L200.8 882.57" stroke="rgba(240, 46, 99, 1)" stroke-width="1.5"></path><path d="M58.39 860.53L58.39 860.53" stroke="rgba(240, 46, 99, 1)" stroke-width="1.5"></path><path d="M58.39 860.53L200.8 882.57" stroke="rgba(240, 46, 99, 1)" stroke-width="1.5"></path><path d="M58.39 860.53L36.69 1027.67" stroke="rgba(240, 46, 99, 1)" stroke-width="1.5"></path><path d="M58.39 860.53L203.57 752.11" stroke="rgba(240, 46, 99, 1)" stroke-width="1.5"></path><path d="M36.69 1027.67L36.69 1027.67" stroke="rgba(240, 46, 99, 1)" stroke-width="1.5"></path><path d="M36.69 1027.67L51.31 1128.42" stroke="rgba(240, 46, 99, 1)" stroke-width="1.5"></path><path d="M51.31 1128.42L51.31 1128.42" stroke="rgba(240, 46, 99, 1)" stroke-width="1.5"></path><path d="M51.31 1128.42L221.51 979.71" stroke="rgba(240, 46, 99, 1)" stroke-width="1.5"></path><path d="M224.06 621.25L224.06 621.25" stroke="rgba(240, 46, 99, 1)" stroke-width="1.5"></path><path d="M224.06 621.25L335.13 574.84" stroke="rgba(240, 46, 99, 1)" stroke-width="1.5"></path><path d="M224.06 621.25L203.57 752.11" stroke="rgba(240, 46, 99, 1)" stroke-width="1.5"></path><path d="M224.06 621.25L323.76 505.48" stroke="rgba(240, 46, 99, 1)" stroke-width="1.5"></path><path d="M203.57 752.11L203.57 752.11" stroke="rgba(240, 46, 99, 1)" stroke-width="1.5"></path><path d="M203.57 752.11L200.8 882.57" stroke="rgba(240, 46, 99, 1)" stroke-width="1.5"></path><path d="M203.57 752.11L358.3 714.28" stroke="rgba(240, 46, 99, 1)" stroke-width="1.5"></path><path d="M203.57 752.11L366.35 881.28" stroke="rgba(240, 46, 99, 1)" stroke-width="1.5"></path><path d="M200.8 882.57L200.8 882.57" stroke="rgba(240, 46, 99, 1)" stroke-width="1.5"></path><path d="M200.8 882.57L221.51 979.71" stroke="rgba(240, 46, 99, 1)" stroke-width="1.5"></path><path d="M200.8 882.57L366.35 881.28" stroke="rgba(240, 46, 99, 1)" stroke-width="1.5"></path><path d="M200.8 882.57L338.38 994.41" stroke="rgba(240, 46, 99, 1)" stroke-width="1.5"></path><path d="M221.51 979.71L221.51 979.71" stroke="rgba(240, 46, 99, 1)" stroke-width="1.5"></path><path d="M323.76 505.48L323.76 505.48" stroke="rgba(240, 46, 99, 1)" stroke-width="1.5"></path><path d="M323.76 505.48L335.13 574.84" stroke="rgba(240, 46, 99, 1)" stroke-width="1.5"></path><path d="M323.76 505.48L447.71 617.2" stroke="rgba(240, 46, 99, 1)" stroke-width="1.5"></path><path d="M335.13 574.84L335.13 574.84" stroke="rgba(240, 46, 99, 1)" stroke-width="1.5"></path><path d="M335.13 574.84L447.71 617.2" stroke="rgba(240, 46, 99, 1)" stroke-width="1.5"></path><path d="M358.3 714.28L358.3 714.28" stroke="rgba(240, 46, 99, 1)" stroke-width="1.5"></path><path d="M358.3 714.28L467.89 718.44" stroke="rgba(240, 46, 99, 1)" stroke-width="1.5"></path><path d="M366.35 881.28L366.35 881.28" stroke="rgba(240, 46, 99, 1)" stroke-width="1.5"></path><path d="M366.35 881.28L338.38 994.41" stroke="rgba(240, 46, 99, 1)" stroke-width="1.5"></path><path d="M366.35 881.28L505.65 858.65" stroke="rgba(240, 46, 99, 1)" stroke-width="1.5"></path><path d="M366.35 881.28L358.3 714.28" stroke="rgba(240, 46, 99, 1)" stroke-width="1.5"></path><path d="M338.38 994.41L338.38 994.41" stroke="rgba(240, 46, 99, 1)" stroke-width="1.5"></path><path d="M338.38 994.41L221.51 979.71" stroke="rgba(240, 46, 99, 1)" stroke-width="1.5"></path><path d="M338.38 994.41L493.36 1045.44" stroke="rgba(240, 46, 99, 1)" stroke-width="1.5"></path><path d="M349.3 1174.82L349.3 1174.82" stroke="rgba(240, 46, 99, 1)" stroke-width="1.5"></path><path d="M349.3 1174.82L475.01 1131.18" stroke="rgba(240, 46, 99, 1)" stroke-width="1.5"></path><path d="M349.3 1174.82L338.38 994.41" stroke="rgba(240, 46, 99, 1)" stroke-width="1.5"></path><path d="M349.3 1174.82L493.36 1045.44" stroke="rgba(240, 46, 99, 1)" stroke-width="1.5"></path><path d="M349.3 1174.82L574.55 1125.83" stroke="rgba(240, 46, 99, 1)" stroke-width="1.5"></path><path d="M349.3 1174.82L221.51 979.71" stroke="rgba(240, 46, 99, 1)" stroke-width="1.5"></path><path d="M349.3 1174.82L366.35 881.28" stroke="rgba(240, 46, 99, 1)" stroke-width="1.5"></path><path d="M488.27 213.61L488.27 213.61" stroke="rgba(240, 46, 99, 1)" stroke-width="1.5"></path><path d="M488.27 213.61L579.88 226.06" stroke="rgba(240, 46, 99, 1)" stroke-width="1.5"></path><path d="M488.27 213.61L459.3 355.37" stroke="rgba(240, 46, 99, 1)" stroke-width="1.5"></path><path d="M488.27 213.61L580.56 354.73" stroke="rgba(240, 46, 99, 1)" stroke-width="1.5"></path><path d="M488.27 213.61L619.75 50.84" stroke="rgba(240, 46, 99, 1)" stroke-width="1.5"></path><path d="M488.27 213.61L721.76 334.18" stroke="rgba(240, 46, 99, 1)" stroke-width="1.5"></path><path d="M459.3 355.37L459.3 355.37" stroke="rgba(240, 46, 99, 1)" stroke-width="1.5"></path><path d="M459.3 355.37L580.56 354.73" stroke="rgba(240, 46, 99, 1)" stroke-width="1.5"></path><path d="M503.33 496.06L503.33 496.06" stroke="rgba(240, 46, 99, 1)" stroke-width="1.5"></path><path d="M503.33 496.06L620.58 485.64" stroke="rgba(240, 46, 99, 1)" stroke-width="1.5"></path><path d="M503.33 496.06L447.71 617.2" stroke="rgba(240, 46, 99, 1)" stroke-width="1.5"></path><path d="M503.33 496.06L459.3 355.37" stroke="rgba(240, 46, 99, 1)" stroke-width="1.5"></path><path d="M447.71 617.2L447.71 617.2" stroke="rgba(240, 46, 99, 1)" stroke-width="1.5"></path><path d="M447.71 617.2L467.89 718.44" stroke="rgba(240, 46, 99, 1)" stroke-width="1.5"></path><path d="M447.71 617.2L358.3 714.28" stroke="rgba(240, 46, 99, 1)" stroke-width="1.5"></path><path d="M467.89 718.44L467.89 718.44" stroke="rgba(240, 46, 99, 1)" stroke-width="1.5"></path><path d="M505.65 858.65L505.65 858.65" stroke="rgba(240, 46, 99, 1)" stroke-width="1.5"></path><path d="M505.65 858.65L621.25 861.98" stroke="rgba(240, 46, 99, 1)" stroke-width="1.5"></path><path d="M505.65 858.65L587.44 743.63" stroke="rgba(240, 46, 99, 1)" stroke-width="1.5"></path><path d="M505.65 858.65L467.89 718.44" stroke="rgba(240, 46, 99, 1)" stroke-width="1.5"></path><path d="M505.65 858.65L493.36 1045.44" stroke="rgba(240, 46, 99, 1)" stroke-width="1.5"></path><path d="M493.36 1045.44L493.36 1045.44" stroke="rgba(240, 46, 99, 1)" stroke-width="1.5"></path><path d="M493.36 1045.44L475.01 1131.18" stroke="rgba(240, 46, 99, 1)" stroke-width="1.5"></path><path d="M493.36 1045.44L574.55 1125.83" stroke="rgba(240, 46, 99, 1)" stroke-width="1.5"></path><path d="M475.01 1131.18L475.01 1131.18" stroke="rgba(240, 46, 99, 1)" stroke-width="1.5"></path><path d="M475.01 1131.18L574.55 1125.83" stroke="rgba(240, 46, 99, 1)" stroke-width="1.5"></path><path d="M475.01 1131.18L614.88 1027.84" stroke="rgba(240, 46, 99, 1)" stroke-width="1.5"></path><path d="M627.93 -35.06L627.93 -35.06" stroke="rgba(240, 46, 99, 1)" stroke-width="1.5"></path><path d="M627.93 -35.06L619.75 50.84" stroke="rgba(240, 46, 99, 1)" stroke-width="1.5"></path><path d="M627.93 -35.06L766.95 -87.91" stroke="rgba(240, 46, 99, 1)" stroke-width="1.5"></path><path d="M627.93 -35.06L727.34 86.43" stroke="rgba(240, 46, 99, 1)" stroke-width="1.5"></path><path d="M627.93 -35.06L579.88 226.06" stroke="rgba(240, 46, 99, 1)" stroke-width="1.5"></path><path d="M619.75 50.84L619.75 50.84" stroke="rgba(240, 46, 99, 1)" stroke-width="1.5"></path><path d="M619.75 50.84L727.34 86.43" stroke="rgba(240, 46, 99, 1)" stroke-width="1.5"></path><path d="M619.75 50.84L579.88 226.06" stroke="rgba(240, 46, 99, 1)" stroke-width="1.5"></path><path d="M619.75 50.84L766.95 -87.91" stroke="rgba(240, 46, 99, 1)" stroke-width="1.5"></path><path d="M579.88 226.06L579.88 226.06" stroke="rgba(240, 46, 99, 1)" stroke-width="1.5"></path><path d="M579.88 226.06L580.56 354.73" stroke="rgba(240, 46, 99, 1)" stroke-width="1.5"></path><path d="M579.88 226.06L459.3 355.37" stroke="rgba(240, 46, 99, 1)" stroke-width="1.5"></path><path d="M579.88 226.06L721.76 334.18" stroke="rgba(240, 46, 99, 1)" stroke-width="1.5"></path><path d="M579.88 226.06L758.49 235.93" stroke="rgba(240, 46, 99, 1)" stroke-width="1.5"></path><path d="M580.56 354.73L580.56 354.73" stroke="rgba(240, 46, 99, 1)" stroke-width="1.5"></path><path d="M580.56 354.73L620.58 485.64" stroke="rgba(240, 46, 99, 1)" stroke-width="1.5"></path><path d="M580.56 354.73L721.76 334.18" stroke="rgba(240, 46, 99, 1)" stroke-width="1.5"></path><path d="M580.56 354.73L503.33 496.06" stroke="rgba(240, 46, 99, 1)" stroke-width="1.5"></path><path d="M620.58 485.64L620.58 485.64" stroke="rgba(240, 46, 99, 1)" stroke-width="1.5"></path><path d="M620.58 485.64L764.01 496.2" stroke="rgba(240, 46, 99, 1)" stroke-width="1.5"></path><path d="M620.58 485.64L582.32 627.01" stroke="rgba(240, 46, 99, 1)" stroke-width="1.5"></path><path d="M620.58 485.64L721.76 334.18" stroke="rgba(240, 46, 99, 1)" stroke-width="1.5"></path><path d="M582.32 627.01L582.32 627.01" stroke="rgba(240, 46, 99, 1)" stroke-width="1.5"></path><path d="M582.32 627.01L587.44 743.63" stroke="rgba(240, 46, 99, 1)" stroke-width="1.5"></path><path d="M582.32 627.01L447.71 617.2" stroke="rgba(240, 46, 99, 1)" stroke-width="1.5"></path><path d="M582.32 627.01L467.89 718.44" stroke="rgba(240, 46, 99, 1)" stroke-width="1.5"></path><path d="M582.32 627.01L503.33 496.06" stroke="rgba(240, 46, 99, 1)" stroke-width="1.5"></path><path d="M587.44 743.63L587.44 743.63" stroke="rgba(240, 46, 99, 1)" stroke-width="1.5"></path><path d="M587.44 743.63L709.11 745.98" stroke="rgba(240, 46, 99, 1)" stroke-width="1.5"></path><path d="M587.44 743.63L467.89 718.44" stroke="rgba(240, 46, 99, 1)" stroke-width="1.5"></path><path d="M587.44 743.63L621.25 861.98" stroke="rgba(240, 46, 99, 1)" stroke-width="1.5"></path><path d="M587.44 743.63L447.71 617.2" stroke="rgba(240, 46, 99, 1)" stroke-width="1.5"></path><path d="M621.25 861.98L621.25 861.98" stroke="rgba(240, 46, 99, 1)" stroke-width="1.5"></path><path d="M614.88 1027.84L614.88 1027.84" stroke="rgba(240, 46, 99, 1)" stroke-width="1.5"></path><path d="M614.88 1027.84L574.55 1125.83" stroke="rgba(240, 46, 99, 1)" stroke-width="1.5"></path><path d="M614.88 1027.84L726.72 991.8" stroke="rgba(240, 46, 99, 1)" stroke-width="1.5"></path><path d="M574.55 1125.83L574.55 1125.83" stroke="rgba(240, 46, 99, 1)" stroke-width="1.5"></path><path d="M766.95 -87.91L766.95 -87.91" stroke="rgba(240, 46, 99, 1)" stroke-width="1.5"></path><path d="M766.95 -87.91L898.61 -94.58" stroke="rgba(240, 46, 99, 1)" stroke-width="1.5"></path><path d="M766.95 -87.91L727.34 86.43" stroke="rgba(240, 46, 99, 1)" stroke-width="1.5"></path><path d="M727.34 86.43L727.34 86.43" stroke="rgba(240, 46, 99, 1)" stroke-width="1.5"></path><path d="M727.34 86.43L758.49 235.93" stroke="rgba(240, 46, 99, 1)" stroke-width="1.5"></path><path d="M727.34 86.43L851.46 207.39" stroke="rgba(240, 46, 99, 1)" stroke-width="1.5"></path><path d="M758.49 235.93L758.49 235.93" stroke="rgba(240, 46, 99, 1)" stroke-width="1.5"></path><path d="M758.49 235.93L851.46 207.39" stroke="rgba(240, 46, 99, 1)" stroke-width="1.5"></path><path d="M758.49 235.93L721.76 334.18" stroke="rgba(240, 46, 99, 1)" stroke-width="1.5"></path><path d="M758.49 235.93L910.76 352.37" stroke="rgba(240, 46, 99, 1)" stroke-width="1.5"></path><path d="M721.76 334.18L721.76 334.18" stroke="rgba(240, 46, 99, 1)" stroke-width="1.5"></path><path d="M721.76 334.18L764.01 496.2" stroke="rgba(240, 46, 99, 1)" stroke-width="1.5"></path><path d="M764.01 496.2L764.01 496.2" stroke="rgba(240, 46, 99, 1)" stroke-width="1.5"></path><path d="M764.01 496.2L770.51 617.79" stroke="rgba(240, 46, 99, 1)" stroke-width="1.5"></path><path d="M770.51 617.79L770.51 617.79" stroke="rgba(240, 46, 99, 1)" stroke-width="1.5"></path><path d="M770.51 617.79L886.83 623.63" stroke="rgba(240, 46, 99, 1)" stroke-width="1.5"></path><path d="M770.51 617.79L709.11 745.98" stroke="rgba(240, 46, 99, 1)" stroke-width="1.5"></path><path d="M770.51 617.79L897.64 715.69" stroke="rgba(240, 46, 99, 1)" stroke-width="1.5"></path><path d="M770.51 617.79L582.32 627.01" stroke="rgba(240, 46, 99, 1)" stroke-width="1.5"></path><path d="M770.51 617.79L620.58 485.64" stroke="rgba(240, 46, 99, 1)" stroke-width="1.5"></path><path d="M709.11 745.98L709.11 745.98" stroke="rgba(240, 46, 99, 1)" stroke-width="1.5"></path><path d="M709.11 745.98L621.25 861.98" stroke="rgba(240, 46, 99, 1)" stroke-width="1.5"></path><path d="M709.11 745.98L758.26 896.99" stroke="rgba(240, 46, 99, 1)" stroke-width="1.5"></path><path d="M709.11 745.98L582.32 627.01" stroke="rgba(240, 46, 99, 1)" stroke-width="1.5"></path><path d="M758.26 896.99L758.26 896.99" stroke="rgba(240, 46, 99, 1)" stroke-width="1.5"></path><path d="M758.26 896.99L847.43 902.4" stroke="rgba(240, 46, 99, 1)" stroke-width="1.5"></path><path d="M758.26 896.99L726.72 991.8" stroke="rgba(240, 46, 99, 1)" stroke-width="1.5"></path><path d="M758.26 896.99L621.25 861.98" stroke="rgba(240, 46, 99, 1)" stroke-width="1.5"></path><path d="M758.26 896.99L891.58 995.6" stroke="rgba(240, 46, 99, 1)" stroke-width="1.5"></path><path d="M726.72 991.8L726.72 991.8" stroke="rgba(240, 46, 99, 1)" stroke-width="1.5"></path><path d="M726.72 991.8L847.43 902.4" stroke="rgba(240, 46, 99, 1)" stroke-width="1.5"></path><path d="M738.81 1177.56L738.81 1177.56" stroke="rgba(240, 46, 99, 1)" stroke-width="1.5"></path><path d="M738.81 1177.56L879.48 1177.8" stroke="rgba(240, 46, 99, 1)" stroke-width="1.5"></path><path d="M738.81 1177.56L574.55 1125.83" stroke="rgba(240, 46, 99, 1)" stroke-width="1.5"></path><path d="M738.81 1177.56L726.72 991.8" stroke="rgba(240, 46, 99, 1)" stroke-width="1.5"></path><path d="M738.81 1177.56L614.88 1027.84" stroke="rgba(240, 46, 99, 1)" stroke-width="1.5"></path><path d="M738.81 1177.56L891.58 995.6" stroke="rgba(240, 46, 99, 1)" stroke-width="1.5"></path><path d="M898.61 -94.58L898.61 -94.58" stroke="rgba(240, 46, 99, 1)" stroke-width="1.5"></path><path d="M898.61 -94.58L908.97 69.81" stroke="rgba(240, 46, 99, 1)" stroke-width="1.5"></path><path d="M898.61 -94.58L727.34 86.43" stroke="rgba(240, 46, 99, 1)" stroke-width="1.5"></path><path d="M908.97 69.81L908.97 69.81" stroke="rgba(240, 46, 99, 1)" stroke-width="1.5"></path><path d="M908.97 69.81L851.46 207.39" stroke="rgba(240, 46, 99, 1)" stroke-width="1.5"></path><path d="M908.97 69.81L727.34 86.43" stroke="rgba(240, 46, 99, 1)" stroke-width="1.5"></path><path d="M908.97 69.81L766.95 -87.91" stroke="rgba(240, 46, 99, 1)" stroke-width="1.5"></path><path d="M908.97 69.81L758.49 235.93" stroke="rgba(240, 46, 99, 1)" stroke-width="1.5"></path><path d="M851.46 207.39L851.46 207.39" stroke="rgba(240, 46, 99, 1)" stroke-width="1.5"></path><path d="M910.76 352.37L910.76 352.37" stroke="rgba(240, 46, 99, 1)" stroke-width="1.5"></path><path d="M910.76 352.37L882.04 442.78" stroke="rgba(240, 46, 99, 1)" stroke-width="1.5"></path><path d="M910.76 352.37L851.46 207.39" stroke="rgba(240, 46, 99, 1)" stroke-width="1.5"></path><path d="M910.76 352.37L721.76 334.18" stroke="rgba(240, 46, 99, 1)" stroke-width="1.5"></path><path d="M882.04 442.78L882.04 442.78" stroke="rgba(240, 46, 99, 1)" stroke-width="1.5"></path><path d="M882.04 442.78L764.01 496.2" stroke="rgba(240, 46, 99, 1)" stroke-width="1.5"></path><path d="M882.04 442.78L886.83 623.63" stroke="rgba(240, 46, 99, 1)" stroke-width="1.5"></path><path d="M882.04 442.78L721.76 334.18" stroke="rgba(240, 46, 99, 1)" stroke-width="1.5"></path><path d="M882.04 442.78L770.51 617.79" stroke="rgba(240, 46, 99, 1)" stroke-width="1.5"></path><path d="M886.83 623.63L886.83 623.63" stroke="rgba(240, 46, 99, 1)" stroke-width="1.5"></path><path d="M886.83 623.63L897.64 715.69" stroke="rgba(240, 46, 99, 1)" stroke-width="1.5"></path><path d="M886.83 623.63L764.01 496.2" stroke="rgba(240, 46, 99, 1)" stroke-width="1.5"></path><path d="M897.64 715.69L897.64 715.69" stroke="rgba(240, 46, 99, 1)" stroke-width="1.5"></path><path d="M897.64 715.69L709.11 745.98" stroke="rgba(240, 46, 99, 1)" stroke-width="1.5"></path><path d="M897.64 715.69L847.43 902.4" stroke="rgba(240, 46, 99, 1)" stroke-width="1.5"></path><path d="M897.64 715.69L758.26 896.99" stroke="rgba(240, 46, 99, 1)" stroke-width="1.5"></path><path d="M847.43 902.4L847.43 902.4" stroke="rgba(240, 46, 99, 1)" stroke-width="1.5"></path><path d="M847.43 902.4L891.58 995.6" stroke="rgba(240, 46, 99, 1)" stroke-width="1.5"></path><path d="M847.43 902.4L709.11 745.98" stroke="rgba(240, 46, 99, 1)" stroke-width="1.5"></path><path d="M847.43 902.4L621.25 861.98" stroke="rgba(240, 46, 99, 1)" stroke-width="1.5"></path><path d="M891.58 995.6L891.58 995.6" stroke="rgba(240, 46, 99, 1)" stroke-width="1.5"></path><path d="M891.58 995.6L726.72 991.8" stroke="rgba(240, 46, 99, 1)" stroke-width="1.5"></path><path d="M891.58 995.6L879.48 1177.8" stroke="rgba(240, 46, 99, 1)" stroke-width="1.5"></path><path d="M879.48 1177.8L879.48 1177.8" stroke="rgba(240, 46, 99, 1)" stroke-width="1.5"></path><path d="M879.48 1177.8L726.72 991.8" stroke="rgba(240, 46, 99, 1)" stroke-width="1.5"></path><path d="M879.48 1177.8L847.43 902.4" stroke="rgba(240, 46, 99, 1)" stroke-width="1.5"></path><path d="M879.48 1177.8L614.88 1027.84" stroke="rgba(240, 46, 99, 1)" stroke-width="1.5"></path><circle r="5" cx="-80.93" cy="752.31" fill="rgba(240, 46, 99, 1)"></circle><circle r="5" cx="-100.09" cy="890.2" fill="rgba(240, 46, 99, 1)"></circle><circle r="5" cx="-99.06" cy="1019.42" fill="rgba(240, 46, 99, 1)"></circle><circle r="5" cx="-90.77" cy="1157.57" fill="rgba(240, 46, 99, 1)"></circle><circle r="5" cx="76.43" cy="714.54" fill="rgba(240, 46, 99, 1)"></circle><circle r="5" cx="58.39" cy="860.53" fill="rgba(240, 46, 99, 1)"></circle><circle r="5" cx="36.69" cy="1027.67" fill="rgba(240, 46, 99, 1)"></circle><circle r="5" cx="51.31" cy="1128.42" fill="rgba(240, 46, 99, 1)"></circle><circle r="5" cx="224.06" cy="621.25" fill="rgba(240, 46, 99, 1)"></circle><circle r="5" cx="203.57" cy="752.11" fill="rgba(240, 46, 99, 1)"></circle><circle r="5" cx="200.8" cy="882.57" fill="rgba(240, 46, 99, 1)"></circle><circle r="5" cx="221.51" cy="979.71" fill="rgba(240, 46, 99, 1)"></circle><circle r="5" cx="323.76" cy="505.48" fill="rgba(240, 46, 99, 1)"></circle><circle r="5" cx="335.13" cy="574.84" fill="rgba(240, 46, 99, 1)"></circle><circle r="5" cx="358.3" cy="714.28" fill="rgba(240, 46, 99, 1)"></circle><circle r="5" cx="366.35" cy="881.28" fill="rgba(240, 46, 99, 1)"></circle><circle r="5" cx="338.38" cy="994.41" fill="rgba(240, 46, 99, 1)"></circle><circle r="5" cx="349.3" cy="1174.82" fill="rgba(240, 46, 99, 1)"></circle><circle r="5" cx="488.27" cy="213.61" fill="rgba(240, 46, 99, 1)"></circle><circle r="5" cx="459.3" cy="355.37" fill="rgba(240, 46, 99, 1)"></circle><circle r="5" cx="503.33" cy="496.06" fill="rgba(240, 46, 99, 1)"></circle><circle r="5" cx="447.71" cy="617.2" fill="rgba(240, 46, 99, 1)"></circle><circle r="5" cx="467.89" cy="718.44" fill="rgba(240, 46, 99, 1)"></circle><circle r="5" cx="505.65" cy="858.65" fill="rgba(240, 46, 99, 1)"></circle><circle r="5" cx="493.36" cy="1045.44" fill="rgba(240, 46, 99, 1)"></circle><circle r="5" cx="475.01" cy="1131.18" fill="rgba(240, 46, 99, 1)"></circle><circle r="5" cx="627.93" cy="-35.06" fill="rgba(240, 46, 99, 1)"></circle><circle r="5" cx="619.75" cy="50.84" fill="rgba(240, 46, 99, 1)"></circle><circle r="5" cx="579.88" cy="226.06" fill="rgba(240, 46, 99, 1)"></circle><circle r="5" cx="580.56" cy="354.73" fill="rgba(240, 46, 99, 1)"></circle><circle r="5" cx="620.58" cy="485.64" fill="rgba(240, 46, 99, 1)"></circle><circle r="5" cx="582.32" cy="627.01" fill="rgba(240, 46, 99, 1)"></circle><circle r="5" cx="587.44" cy="743.63" fill="rgba(240, 46, 99, 1)"></circle><circle r="5" cx="621.25" cy="861.98" fill="rgba(240, 46, 99, 1)"></circle><circle r="5" cx="614.88" cy="1027.84" fill="rgba(240, 46, 99, 1)"></circle><circle r="5" cx="574.55" cy="1125.83" fill="rgba(240, 46, 99, 1)"></circle><circle r="5" cx="766.95" cy="-87.91" fill="rgba(240, 46, 99, 1)"></circle><circle r="5" cx="727.34" cy="86.43" fill="rgba(240, 46, 99, 1)"></circle><circle r="5" cx="758.49" cy="235.93" fill="rgba(240, 46, 99, 1)"></circle><circle r="5" cx="721.76" cy="334.18" fill="rgba(240, 46, 99, 1)"></circle><circle r="5" cx="764.01" cy="496.2" fill="rgba(240, 46, 99, 1)"></circle><circle r="5" cx="770.51" cy="617.79" fill="rgba(240, 46, 99, 1)"></circle><circle r="5" cx="709.11" cy="745.98" fill="rgba(240, 46, 99, 1)"></circle><circle r="5" cx="758.26" cy="896.99" fill="rgba(240, 46, 99, 1)"></circle><circle r="5" cx="726.72" cy="991.8" fill="rgba(240, 46, 99, 1)"></circle><circle r="5" cx="738.81" cy="1177.56" fill="rgba(240, 46, 99, 1)"></circle><circle r="5" cx="898.61" cy="-94.58" fill="rgba(240, 46, 99, 1)"></circle><circle r="5" cx="908.97" cy="69.81" fill="rgba(240, 46, 99, 1)"></circle><circle r="5" cx="851.46" cy="207.39" fill="rgba(240, 46, 99, 1)"></circle><circle r="5" cx="910.76" cy="352.37" fill="rgba(240, 46, 99, 1)"></circle><circle r="5" cx="882.04" cy="442.78" fill="rgba(240, 46, 99, 1)"></circle><circle r="5" cx="886.83" cy="623.63" fill="rgba(240, 46, 99, 1)"></circle><circle r="5" cx="897.64" cy="715.69" fill="rgba(240, 46, 99, 1)"></circle><circle r="5" cx="847.43" cy="902.4" fill="rgba(240, 46, 99, 1)"></circle><circle r="5" cx="891.58" cy="995.6" fill="rgba(240, 46, 99, 1)"></circle><circle r="5" cx="879.48" cy="1177.8" fill="rgba(240, 46, 99, 1)"></circle><path d="M82.3 998.71L82.3 998.71" stroke="hsl(344, 87.4%, 73.2%)" stroke-width="1.5"></path><path d="M82.3 998.71L94.77 890.42" stroke="hsl(344, 87.4%, 73.2%)" stroke-width="1.5"></path><path d="M82.3 998.71L-33.78 983.07" stroke="hsl(344, 87.4%, 73.2%)" stroke-width="1.5"></path><path d="M82.3 998.71L201.74 1024.65" stroke="hsl(344, 87.4%, 73.2%)" stroke-width="1.5"></path><path d="M82.3 998.71L179.58 887.37" stroke="hsl(344, 87.4%, 73.2%)" stroke-width="1.5"></path><path d="M54.07 1156.01L54.07 1156.01" stroke="hsl(344, 87.4%, 73.2%)" stroke-width="1.5"></path><path d="M54.07 1156.01L-75.15 1118.22" stroke="hsl(344, 87.4%, 73.2%)" stroke-width="1.5"></path><path d="M54.07 1156.01L212.76 1149.71" stroke="hsl(344, 87.4%, 73.2%)" stroke-width="1.5"></path><path d="M54.07 1156.01L82.3 998.71" stroke="hsl(344, 87.4%, 73.2%)" stroke-width="1.5"></path><path d="M54.07 1156.01L-33.78 983.07" stroke="hsl(344, 87.4%, 73.2%)" stroke-width="1.5"></path><path d="M212.76 1149.71L212.76 1149.71" stroke="hsl(344, 87.4%, 73.2%)" stroke-width="1.5"></path><path d="M212.76 1149.71L201.74 1024.65" stroke="hsl(344, 87.4%, 73.2%)" stroke-width="1.5"></path><path d="M212.76 1149.71L351.21 1118.95" stroke="hsl(344, 87.4%, 73.2%)" stroke-width="1.5"></path><path d="M212.76 1149.71L82.3 998.71" stroke="hsl(344, 87.4%, 73.2%)" stroke-width="1.5"></path><path d="M362.51 871.16L362.51 871.16" stroke="hsl(344, 87.4%, 73.2%)" stroke-width="1.5"></path><path d="M362.51 871.16L351.41 983.2" stroke="hsl(344, 87.4%, 73.2%)" stroke-width="1.5"></path><path d="M362.51 871.16L503.44 860.82" stroke="hsl(344, 87.4%, 73.2%)" stroke-width="1.5"></path><path d="M443.54 723.15L443.54 723.15" stroke="hsl(344, 87.4%, 73.2%)" stroke-width="1.5"></path><path d="M443.54 723.15L458.83 626.01" stroke="hsl(344, 87.4%, 73.2%)" stroke-width="1.5"></path><path d="M443.54 723.15L503.44 860.82" stroke="hsl(344, 87.4%, 73.2%)" stroke-width="1.5"></path><path d="M443.54 723.15L362.51 871.16" stroke="hsl(344, 87.4%, 73.2%)" stroke-width="1.5"></path><path d="M443.54 723.15L636.18 737.71" stroke="hsl(344, 87.4%, 73.2%)" stroke-width="1.5"></path><path d="M443.54 723.15L620.4 593.65" stroke="hsl(344, 87.4%, 73.2%)" stroke-width="1.5"></path><path d="M443.54 723.15L625.91 878.8" stroke="hsl(344, 87.4%, 73.2%)" stroke-width="1.5"></path><path d="M600.48 1157.45L600.48 1157.45" stroke="hsl(344, 87.4%, 73.2%)" stroke-width="1.5"></path><path d="M600.48 1157.45L495.47 1124.63" stroke="hsl(344, 87.4%, 73.2%)" stroke-width="1.5"></path><path d="M600.48 1157.45L732.17 1003.49" stroke="hsl(344, 87.4%, 73.2%)" stroke-width="1.5"></path><path d="M600.48 1157.45L475.28 994.71" stroke="hsl(344, 87.4%, 73.2%)" stroke-width="1.5"></path><path d="M600.48 1157.45L351.21 1118.95" stroke="hsl(344, 87.4%, 73.2%)" stroke-width="1.5"></path><path d="M600.48 1157.45L862.97 1164.71" stroke="hsl(344, 87.4%, 73.2%)" stroke-width="1.5"></path><path d="M600.48 1157.45L625.91 878.8" stroke="hsl(344, 87.4%, 73.2%)" stroke-width="1.5"></path><path d="M726.79 742.71L726.79 742.71" stroke="hsl(344, 87.4%, 73.2%)" stroke-width="1.5"></path><path d="M726.79 742.71L636.18 737.71" stroke="hsl(344, 87.4%, 73.2%)" stroke-width="1.5"></path><path d="M726.79 742.71L868.38 753.99" stroke="hsl(344, 87.4%, 73.2%)" stroke-width="1.5"></path><path d="M726.79 742.71L744.29 585.16" stroke="hsl(344, 87.4%, 73.2%)" stroke-width="1.5"></path><path d="M726.79 742.71L625.91 878.8" stroke="hsl(344, 87.4%, 73.2%)" stroke-width="1.5"></path><path d="M880.19 218.14L880.19 218.14" stroke="hsl(344, 87.4%, 73.2%)" stroke-width="1.5"></path><path d="M880.19 218.14L880 329.83" stroke="hsl(344, 87.4%, 73.2%)" stroke-width="1.5"></path><path d="M880.19 218.14L849.63 71.93" stroke="hsl(344, 87.4%, 73.2%)" stroke-width="1.5"></path><path d="M880.19 218.14L724.12 186.7" stroke="hsl(344, 87.4%, 73.2%)" stroke-width="1.5"></path><path d="M880.19 218.14L717.15 320.45" stroke="hsl(344, 87.4%, 73.2%)" stroke-width="1.5"></path><path d="M880.19 218.14L743.94 53.71" stroke="hsl(344, 87.4%, 73.2%)" stroke-width="1.5"></path><path d="M880.19 218.14L634.6 229.61" stroke="hsl(344, 87.4%, 73.2%)" stroke-width="1.5"></path><path d="M880 329.83L880 329.83" stroke="hsl(344, 87.4%, 73.2%)" stroke-width="1.5"></path><path d="M880 329.83L885.95 486.49" stroke="hsl(344, 87.4%, 73.2%)" stroke-width="1.5"></path><path d="M868.38 753.99L868.38 753.99" stroke="hsl(344, 87.4%, 73.2%)" stroke-width="1.5"></path><path d="M868.38 753.99L877.43 862.02" stroke="hsl(344, 87.4%, 73.2%)" stroke-width="1.5"></path><path d="M868.38 753.99L859.56 596.27" stroke="hsl(344, 87.4%, 73.2%)" stroke-width="1.5"></path><path d="M877.43 862.02L877.43 862.02" stroke="hsl(344, 87.4%, 73.2%)" stroke-width="1.5"></path><path d="M877.43 862.02L902.48 1006.76" stroke="hsl(344, 87.4%, 73.2%)" stroke-width="1.5"></path><path d="M877.43 862.02L726.79 742.71" stroke="hsl(344, 87.4%, 73.2%)" stroke-width="1.5"></path><path d="M877.43 862.02L732.17 1003.49" stroke="hsl(344, 87.4%, 73.2%)" stroke-width="1.5"></path><path d="M877.43 862.02L625.91 878.8" stroke="hsl(344, 87.4%, 73.2%)" stroke-width="1.5"></path><path d="M902.48 1006.76L902.48 1006.76" stroke="hsl(344, 87.4%, 73.2%)" stroke-width="1.5"></path><path d="M902.48 1006.76L862.97 1164.71" stroke="hsl(344, 87.4%, 73.2%)" stroke-width="1.5"></path><path d="M902.48 1006.76L732.17 1003.49" stroke="hsl(344, 87.4%, 73.2%)" stroke-width="1.5"></path><path d="M902.48 1006.76L868.38 753.99" stroke="hsl(344, 87.4%, 73.2%)" stroke-width="1.5"></path><path d="M-71.56 870.85L-71.56 870.85" stroke="hsl(344, 87.4%, 73.2%)" stroke-width="1.5"></path><path d="M-71.56 870.85L-33.78 983.07" stroke="hsl(344, 87.4%, 73.2%)" stroke-width="1.5"></path><path d="M-71.56 870.85L94.77 890.42" stroke="hsl(344, 87.4%, 73.2%)" stroke-width="1.5"></path><path d="M-71.56 870.85L82.3 998.71" stroke="hsl(344, 87.4%, 73.2%)" stroke-width="1.5"></path><path d="M-71.56 870.85L-75.15 1118.22" stroke="hsl(344, 87.4%, 73.2%)" stroke-width="1.5"></path><path d="M-33.78 983.07L-33.78 983.07" stroke="hsl(344, 87.4%, 73.2%)" stroke-width="1.5"></path><path d="M-33.78 983.07L-75.15 1118.22" stroke="hsl(344, 87.4%, 73.2%)" stroke-width="1.5"></path><path d="M-33.78 983.07L94.77 890.42" stroke="hsl(344, 87.4%, 73.2%)" stroke-width="1.5"></path><path d="M-33.78 983.07L179.58 887.37" stroke="hsl(344, 87.4%, 73.2%)" stroke-width="1.5"></path><path d="M-75.15 1118.22L-75.15 1118.22" stroke="hsl(344, 87.4%, 73.2%)" stroke-width="1.5"></path><path d="M-75.15 1118.22L82.3 998.71" stroke="hsl(344, 87.4%, 73.2%)" stroke-width="1.5"></path><path d="M94.77 890.42L94.77 890.42" stroke="hsl(344, 87.4%, 73.2%)" stroke-width="1.5"></path><path d="M94.77 890.42L179.58 887.37" stroke="hsl(344, 87.4%, 73.2%)" stroke-width="1.5"></path><path d="M94.77 890.42L201.74 1024.65" stroke="hsl(344, 87.4%, 73.2%)" stroke-width="1.5"></path><path d="M179.58 887.37L179.58 887.37" stroke="hsl(344, 87.4%, 73.2%)" stroke-width="1.5"></path><path d="M179.58 887.37L201.74 1024.65" stroke="hsl(344, 87.4%, 73.2%)" stroke-width="1.5"></path><path d="M179.58 887.37L362.51 871.16" stroke="hsl(344, 87.4%, 73.2%)" stroke-width="1.5"></path><path d="M179.58 887.37L351.41 983.2" stroke="hsl(344, 87.4%, 73.2%)" stroke-width="1.5"></path><path d="M201.74 1024.65L201.74 1024.65" stroke="hsl(344, 87.4%, 73.2%)" stroke-width="1.5"></path><path d="M351.41 983.2L351.41 983.2" stroke="hsl(344, 87.4%, 73.2%)" stroke-width="1.5"></path><path d="M351.41 983.2L475.28 994.71" stroke="hsl(344, 87.4%, 73.2%)" stroke-width="1.5"></path><path d="M351.41 983.2L351.21 1118.95" stroke="hsl(344, 87.4%, 73.2%)" stroke-width="1.5"></path><path d="M351.41 983.2L201.74 1024.65" stroke="hsl(344, 87.4%, 73.2%)" stroke-width="1.5"></path><path d="M351.41 983.2L503.44 860.82" stroke="hsl(344, 87.4%, 73.2%)" stroke-width="1.5"></path><path d="M351.21 1118.95L351.21 1118.95" stroke="hsl(344, 87.4%, 73.2%)" stroke-width="1.5"></path><path d="M351.21 1118.95L495.47 1124.63" stroke="hsl(344, 87.4%, 73.2%)" stroke-width="1.5"></path><path d="M351.21 1118.95L475.28 994.71" stroke="hsl(344, 87.4%, 73.2%)" stroke-width="1.5"></path><path d="M351.21 1118.95L201.74 1024.65" stroke="hsl(344, 87.4%, 73.2%)" stroke-width="1.5"></path><path d="M458.83 626.01L458.83 626.01" stroke="hsl(344, 87.4%, 73.2%)" stroke-width="1.5"></path><path d="M458.83 626.01L620.4 593.65" stroke="hsl(344, 87.4%, 73.2%)" stroke-width="1.5"></path><path d="M458.83 626.01L580.7 467.97" stroke="hsl(344, 87.4%, 73.2%)" stroke-width="1.5"></path><path d="M458.83 626.01L636.18 737.71" stroke="hsl(344, 87.4%, 73.2%)" stroke-width="1.5"></path><path d="M458.83 626.01L503.44 860.82" stroke="hsl(344, 87.4%, 73.2%)" stroke-width="1.5"></path><path d="M503.44 860.82L503.44 860.82" stroke="hsl(344, 87.4%, 73.2%)" stroke-width="1.5"></path><path d="M503.44 860.82L625.91 878.8" stroke="hsl(344, 87.4%, 73.2%)" stroke-width="1.5"></path><path d="M503.44 860.82L475.28 994.71" stroke="hsl(344, 87.4%, 73.2%)" stroke-width="1.5"></path><path d="M475.28 994.71L475.28 994.71" stroke="hsl(344, 87.4%, 73.2%)" stroke-width="1.5"></path><path d="M475.28 994.71L495.47 1124.63" stroke="hsl(344, 87.4%, 73.2%)" stroke-width="1.5"></path><path d="M495.47 1124.63L495.47 1124.63" stroke="hsl(344, 87.4%, 73.2%)" stroke-width="1.5"></path><path d="M495.47 1124.63L351.41 983.2" stroke="hsl(344, 87.4%, 73.2%)" stroke-width="1.5"></path><path d="M495.47 1124.63L503.44 860.82" stroke="hsl(344, 87.4%, 73.2%)" stroke-width="1.5"></path><path d="M634.6 229.61L634.6 229.61" stroke="hsl(344, 87.4%, 73.2%)" stroke-width="1.5"></path><path d="M634.6 229.61L724.12 186.7" stroke="hsl(344, 87.4%, 73.2%)" stroke-width="1.5"></path><path d="M634.6 229.61L717.15 320.45" stroke="hsl(344, 87.4%, 73.2%)" stroke-width="1.5"></path><path d="M602.64 370.88L602.64 370.88" stroke="hsl(344, 87.4%, 73.2%)" stroke-width="1.5"></path><path d="M602.64 370.88L580.7 467.97" stroke="hsl(344, 87.4%, 73.2%)" stroke-width="1.5"></path><path d="M602.64 370.88L717.15 320.45" stroke="hsl(344, 87.4%, 73.2%)" stroke-width="1.5"></path><path d="M580.7 467.97L580.7 467.97" stroke="hsl(344, 87.4%, 73.2%)" stroke-width="1.5"></path><path d="M580.7 467.97L620.4 593.65" stroke="hsl(344, 87.4%, 73.2%)" stroke-width="1.5"></path><path d="M620.4 593.65L620.4 593.65" stroke="hsl(344, 87.4%, 73.2%)" stroke-width="1.5"></path><path d="M620.4 593.65L744.29 585.16" stroke="hsl(344, 87.4%, 73.2%)" stroke-width="1.5"></path><path d="M620.4 593.65L636.18 737.71" stroke="hsl(344, 87.4%, 73.2%)" stroke-width="1.5"></path><path d="M620.4 593.65L726.79 742.71" stroke="hsl(344, 87.4%, 73.2%)" stroke-width="1.5"></path><path d="M636.18 737.71L636.18 737.71" stroke="hsl(344, 87.4%, 73.2%)" stroke-width="1.5"></path><path d="M636.18 737.71L625.91 878.8" stroke="hsl(344, 87.4%, 73.2%)" stroke-width="1.5"></path><path d="M625.91 878.8L625.91 878.8" stroke="hsl(344, 87.4%, 73.2%)" stroke-width="1.5"></path><path d="M625.91 878.8L732.17 1003.49" stroke="hsl(344, 87.4%, 73.2%)" stroke-width="1.5"></path><path d="M625.91 878.8L475.28 994.71" stroke="hsl(344, 87.4%, 73.2%)" stroke-width="1.5"></path><path d="M740.27 -38.54L740.27 -38.54" stroke="hsl(344, 87.4%, 73.2%)" stroke-width="1.5"></path><path d="M740.27 -38.54L743.94 53.71" stroke="hsl(344, 87.4%, 73.2%)" stroke-width="1.5"></path><path d="M740.27 -38.54L849.63 71.93" stroke="hsl(344, 87.4%, 73.2%)" stroke-width="1.5"></path><path d="M740.27 -38.54L724.12 186.7" stroke="hsl(344, 87.4%, 73.2%)" stroke-width="1.5"></path><path d="M740.27 -38.54L634.6 229.61" stroke="hsl(344, 87.4%, 73.2%)" stroke-width="1.5"></path><path d="M740.27 -38.54L880.19 218.14" stroke="hsl(344, 87.4%, 73.2%)" stroke-width="1.5"></path><path d="M740.27 -38.54L717.15 320.45" stroke="hsl(344, 87.4%, 73.2%)" stroke-width="1.5"></path><path d="M743.94 53.71L743.94 53.71" stroke="hsl(344, 87.4%, 73.2%)" stroke-width="1.5"></path><path d="M743.94 53.71L849.63 71.93" stroke="hsl(344, 87.4%, 73.2%)" stroke-width="1.5"></path><path d="M743.94 53.71L724.12 186.7" stroke="hsl(344, 87.4%, 73.2%)" stroke-width="1.5"></path><path d="M743.94 53.71L634.6 229.61" stroke="hsl(344, 87.4%, 73.2%)" stroke-width="1.5"></path><path d="M724.12 186.7L724.12 186.7" stroke="hsl(344, 87.4%, 73.2%)" stroke-width="1.5"></path><path d="M724.12 186.7L717.15 320.45" stroke="hsl(344, 87.4%, 73.2%)" stroke-width="1.5"></path><path d="M724.12 186.7L849.63 71.93" stroke="hsl(344, 87.4%, 73.2%)" stroke-width="1.5"></path><path d="M717.15 320.45L717.15 320.45" stroke="hsl(344, 87.4%, 73.2%)" stroke-width="1.5"></path><path d="M752.15 460.7L752.15 460.7" stroke="hsl(344, 87.4%, 73.2%)" stroke-width="1.5"></path><path d="M752.15 460.7L744.29 585.16" stroke="hsl(344, 87.4%, 73.2%)" stroke-width="1.5"></path><path d="M752.15 460.7L885.95 486.49" stroke="hsl(344, 87.4%, 73.2%)" stroke-width="1.5"></path><path d="M752.15 460.7L717.15 320.45" stroke="hsl(344, 87.4%, 73.2%)" stroke-width="1.5"></path><path d="M752.15 460.7L580.7 467.97" stroke="hsl(344, 87.4%, 73.2%)" stroke-width="1.5"></path><path d="M752.15 460.7L859.56 596.27" stroke="hsl(344, 87.4%, 73.2%)" stroke-width="1.5"></path><path d="M752.15 460.7L602.64 370.88" stroke="hsl(344, 87.4%, 73.2%)" stroke-width="1.5"></path><path d="M744.29 585.16L744.29 585.16" stroke="hsl(344, 87.4%, 73.2%)" stroke-width="1.5"></path><path d="M744.29 585.16L859.56 596.27" stroke="hsl(344, 87.4%, 73.2%)" stroke-width="1.5"></path><path d="M732.17 1003.49L732.17 1003.49" stroke="hsl(344, 87.4%, 73.2%)" stroke-width="1.5"></path><path d="M849.63 71.93L849.63 71.93" stroke="hsl(344, 87.4%, 73.2%)" stroke-width="1.5"></path><path d="M885.95 486.49L885.95 486.49" stroke="hsl(344, 87.4%, 73.2%)" stroke-width="1.5"></path><path d="M885.95 486.49L859.56 596.27" stroke="hsl(344, 87.4%, 73.2%)" stroke-width="1.5"></path><path d="M859.56 596.27L859.56 596.27" stroke="hsl(344, 87.4%, 73.2%)" stroke-width="1.5"></path><path d="M862.97 1164.71L862.97 1164.71" stroke="hsl(344, 87.4%, 73.2%)" stroke-width="1.5"></path><path d="M862.97 1164.71L732.17 1003.49" stroke="hsl(344, 87.4%, 73.2%)" stroke-width="1.5"></path><path d="M862.97 1164.71L877.43 862.02" stroke="hsl(344, 87.4%, 73.2%)" stroke-width="1.5"></path><path d="M862.97 1164.71L495.47 1124.63" stroke="hsl(344, 87.4%, 73.2%)" stroke-width="1.5"></path><circle r="25" cx="82.3" cy="998.71" fill="url(#SvgjsRadialGradient1015)"></circle><circle r="25" cx="54.07" cy="1156.01" fill="url(#SvgjsRadialGradient1015)"></circle><circle r="25" cx="212.76" cy="1149.71" fill="url(#SvgjsRadialGradient1015)"></circle><circle r="25" cx="362.51" cy="871.16" fill="url(#SvgjsRadialGradient1015)"></circle><circle r="25" cx="443.54" cy="723.15" fill="url(#SvgjsRadialGradient1015)"></circle><circle r="25" cx="600.48" cy="1157.45" fill="url(#SvgjsRadialGradient1015)"></circle><circle r="25" cx="726.79" cy="742.71" fill="url(#SvgjsRadialGradient1015)"></circle><circle r="25" cx="880.19" cy="218.14" fill="url(#SvgjsRadialGradient1015)"></circle><circle r="25" cx="880" cy="329.83" fill="url(#SvgjsRadialGradient1015)"></circle><circle r="25" cx="868.38" cy="753.99" fill="url(#SvgjsRadialGradient1015)"></circle><circle r="25" cx="877.43" cy="862.02" fill="url(#SvgjsRadialGradient1015)"></circle><circle r="25" cx="902.48" cy="1006.76" fill="url(#SvgjsRadialGradient1015)"></circle><circle r="5" cx="-71.56" cy="870.85" fill="#f897b1"></circle><circle r="5" cx="-33.78" cy="983.07" fill="#f897b1"></circle><circle r="5" cx="-75.15" cy="1118.22" fill="#f897b1"></circle><circle r="5" cx="94.77" cy="890.42" fill="#f897b1"></circle><circle r="5" cx="179.58" cy="887.37" fill="#f897b1"></circle><circle r="5" cx="201.74" cy="1024.65" fill="#f897b1"></circle><circle r="5" cx="351.41" cy="983.2" fill="#f897b1"></circle><circle r="5" cx="351.21" cy="1118.95" fill="#f897b1"></circle><circle r="5" cx="458.83" cy="626.01" fill="#f897b1"></circle><circle r="5" cx="503.44" cy="860.82" fill="#f897b1"></circle><circle r="5" cx="475.28" cy="994.71" fill="#f897b1"></circle><circle r="5" cx="495.47" cy="1124.63" fill="#f897b1"></circle><circle r="5" cx="634.6" cy="229.61" fill="#f897b1"></circle><circle r="5" cx="602.64" cy="370.88" fill="#f897b1"></circle><circle r="5" cx="580.7" cy="467.97" fill="#f897b1"></circle><circle r="5" cx="620.4" cy="593.65" fill="#f897b1"></circle><circle r="5" cx="636.18" cy="737.71" fill="#f897b1"></circle><circle r="5" cx="625.91" cy="878.8" fill="#f897b1"></circle><circle r="5" cx="740.27" cy="-38.54" fill="#f897b1"></circle><circle r="5" cx="743.94" cy="53.71" fill="#f897b1"></circle><circle r="5" cx="724.12" cy="186.7" fill="#f897b1"></circle><circle r="5" cx="717.15" cy="320.45" fill="#f897b1"></circle><circle r="5" cx="752.15" cy="460.7" fill="#f897b1"></circle><circle r="5" cx="744.29" cy="585.16" fill="#f897b1"></circle><circle r="5" cx="732.17" cy="1003.49" fill="#f897b1"></circle><circle r="5" cx="849.63" cy="71.93" fill="#f897b1"></circle><circle r="5" cx="885.95" cy="486.49" fill="#f897b1"></circle><circle r="5" cx="859.56" cy="596.27" fill="#f897b1"></circle><circle r="5" cx="862.97" cy="1164.71" fill="#f897b1"></circle></g><defs><mask id="SvgjsMask1014"><rect width="800" height="1080" fill="#ffffff"></rect></mask><radialGradient id="SvgjsRadialGradient1015"><stop stop-color="#ffffff" offset="0.1"></stop><stop stop-color="rgba(241, 46, 98, 1)" offset="0.2"></stop><stop stop-color="rgba(241, 46, 98, 0)" offset="1"></stop></radialGradient></defs></svg>