<?xml version="1.0" encoding="UTF-8" standalone="no"?>
<!-- Created with Inkscape (http://www.inkscape.org/) -->

<svg
   xmlns:dc="http://purl.org/dc/elements/1.1/"
   xmlns:cc="http://creativecommons.org/ns#"
   xmlns:rdf="http://www.w3.org/1999/02/22-rdf-syntax-ns#"
   xmlns:svg="http://www.w3.org/2000/svg"
   xmlns="http://www.w3.org/2000/svg"
   xmlns:xlink="http://www.w3.org/1999/xlink"
   xmlns:sodipodi="http://sodipodi.sourceforge.net/DTD/sodipodi-0.dtd"
   xmlns:inkscape="http://www.inkscape.org/namespaces/inkscape"
   width="270.202mm"
   height="243.44456mm"
   viewBox="0 0 270.202 243.44456"
   version="1.1"
   id="svg8"
   sodipodi:docname="qr-code.svg"
   inkscape:version="0.92.4 (5da689c313, 2019-01-14)">
  <defs
     id="defs2">
    <linearGradient
       inkscape:collect="always"
       id="linearGradient2855">
      <stop
         style="stop-color:#7f1980;stop-opacity:1"
         offset="0"
         id="stop2851" />
      <stop
         id="stop2859"
         offset="0.41722614"
         style="stop-color:#d82d87;stop-opacity:1" />
      <stop
         style="stop-color:#ecc083;stop-opacity:0.93333334"
         offset="0.78033978"
         id="stop2861" />
      <stop
         style="stop-color:#fee780;stop-opacity:0.88235295"
         offset="1"
         id="stop2853" />
    </linearGradient>
    <mask
       id="SvgjsMask1643">
      <rect
         style="fill:#ffffff"
         y="0"
         x="0"
         width="1920"
         height="750"
         id="rect848" />
    </mask>
    <linearGradient
       x1="0.1523"
       y1="1.39"
       x2="0.84769994"
       y2="-0.38999999"
       gradientUnits="userSpaceOnUse"
       id="SvgjsLinearGradient1644">
      <stop
         stop-color="rgba(96, 9, 38, 1)"
         offset="0"
         id="stop851" />
      <stop
         stop-color="rgba(248, 34, 150, 1)"
         offset="1"
         id="stop853" />
    </linearGradient>
    <linearGradient
       inkscape:collect="always"
       xlink:href="#linearGradient2855"
       id="linearGradient2857"
       x1="-94.188187"
       y1="-27.858665"
       x2="-50.754025"
       y2="15.575497"
       gradientUnits="userSpaceOnUse"
       gradientTransform="matrix(1.146466,0,0,1.146466,10.614554,0.89953336)" />
  </defs>
  <sodipodi:namedview
     id="base"
     pagecolor="#ffffff"
     bordercolor="#666666"
     borderopacity="1.0"
     inkscape:pageopacity="0.0"
     inkscape:pageshadow="2"
     inkscape:zoom="0.34724281"
     inkscape:cx="510.61794"
     inkscape:cy="460.05272"
     inkscape:document-units="mm"
     inkscape:current-layer="layer1"
     showgrid="false"
     inkscape:window-width="1600"
     inkscape:window-height="838"
     inkscape:window-x="-8"
     inkscape:window-y="-8"
     inkscape:window-maximized="1" />
  <metadata
     id="metadata5">
    <rdf:RDF>
      <cc:Work
         rdf:about="">
        <dc:format>image/svg+xml</dc:format>
        <dc:type
           rdf:resource="http://purl.org/dc/dcmitype/StillImage" />
        <dc:title></dc:title>
      </cc:Work>
    </rdf:RDF>
  </metadata>
  <g
     inkscape:label="Layer 1"
     inkscape:groupmode="layer"
     id="layer1"
     transform="translate(204.86536,99.731013)">
    <text
       xml:space="preserve"
       style="font-style:normal;font-variant:normal;font-weight:normal;font-stretch:normal;font-size:14.11111069px;line-height:1.25;font-family:'Open Sans';-inkscape-font-specification:'Open Sans';text-align:center;letter-spacing:0px;word-spacing:0px;text-anchor:middle;fill:#000000;fill-opacity:1;stroke:none;stroke-width:0.26458332"
       x="-75.58252"
       y="13.456317"
       id="text1631"><tspan
         sodipodi:role="line"
         id="tspan1629"
         x="-75.58252"
         y="25.959454"
         style="stroke-width:0.26458332" /></text>
    <text
       xml:space="preserve"
       style="font-style:normal;font-variant:normal;font-weight:normal;font-stretch:normal;font-size:14.11111069px;line-height:1.25;font-family:'Open Sans';-inkscape-font-specification:'Open Sans';text-align:center;letter-spacing:0px;word-spacing:0px;text-anchor:middle;fill:#000000;fill-opacity:1;stroke:none;stroke-width:0.26458332"
       x="-69.572548"
       y="13.413977"
       id="text3759"><tspan
         sodipodi:role="line"
         id="tspan3757"
         x="-69.572548"
         y="25.917112"
         style="stroke-width:0.26458332" /></text>
    <g
       id="g3046">
      <g
         style="fill:#f6f7fa;fill-opacity:0.66666667"
         transform="matrix(1.457729,0,0,1.457729,-286.30079,-61.948455)"
         id="g2773">
        <path
           style="fill:#f6f7fa;fill-opacity:0.66666667;stroke-width:0.26458332"
           inkscape:connector-curvature="0"
           d="m 239.71734,93.461374 c 0,0 3.63802,-13.887979 -0.39688,-27.730979 a 37.335354,37.335354 0 0 0 -8.73125,-15.08125 c -5.89756,-6.265333 -25.08779,-28.310416 -29.08829,-53.5675405 0,0 -5.15937,-45.6406245 -80.78258,-8.3370205 0,0 -18.56581,11.06487459 -36.036249,10.3187496 0,0 -26.029708,-5.5959374 -28.646437,17.9466874 -0.989541,8.903229 2.365375,17.68475 8.73125,23.987125 4.955646,4.905375 9.789583,13.440833 3.598333,25.73602 0,0 -10.429874,9.657292 -1.812395,26.749375 z"
           id="path2303" />
        <path
           inkscape:connector-curvature="0"
           d="m 239.71734,93.461374 c 0,0 3.63802,-13.887979 -0.39688,-27.730979 a 37.335354,37.335354 0 0 0 -8.73125,-15.08125 c -5.89756,-6.265333 -25.08779,-28.310416 -29.08829,-53.5675405 0,0 -5.15937,-45.6406245 -80.78258,-8.3370205 0,0 -18.56581,11.06487459 -36.036249,10.3187496 0,0 -26.029708,-5.5959374 -28.646437,17.9466874 -0.989541,8.903229 2.365375,17.68475 8.73125,23.987125 4.955646,4.905375 9.789583,13.440833 3.598333,25.73602 0,0 -10.429874,9.657292 -1.812395,26.749375 z"
           style="opacity:0.8;isolation:isolate;fill:#f6f7fa;fill-opacity:0.66666667;stroke-width:0.26458332"
           id="path2305" />
        <path
           style="fill:#f6f7fa;fill-opacity:0.66666667;stroke-width:0.26458332"
           inkscape:connector-curvature="0"
           d="m 239.71734,101.42533 c 0,0 4.05871,37.76398 -47.14346,39.60284 a 78.120874,78.120874 0 0 1 -33.03852,-5.97165 c -11.06487,-4.66725 -30.6361,-10.94052 -52.89814,-9.13871 -8.13065,0.65881 -16.335379,-0.84402 -23.346837,-4.46087 -6.908271,-3.5613 -13.808604,-9.64671 -16.748125,-20.03161 z"
           id="path2307" />
        <path
           inkscape:connector-curvature="0"
           d="m 239.71734,101.42533 c 0,0 4.05871,37.76398 -47.14346,39.60284 a 78.120874,78.120874 0 0 1 -33.03852,-5.97165 c -11.06487,-4.66725 -30.6361,-10.94052 -52.89814,-9.13871 -8.13065,0.65881 -16.335379,-0.84402 -23.346837,-4.46087 -6.908271,-3.5613 -13.808604,-9.64671 -16.748125,-20.03161 z"
           style="opacity:0.8;isolation:isolate;fill:#f6f7fa;fill-opacity:0.66666667;stroke-width:0.26458332"
           id="path2309" />
        <rect
           style="opacity:1;fill:#f6f7fa;fill-opacity:0.66666667;stroke-width:0.26458332"
           x="-239.71735"
           y="93.461372"
           width="173.17508"
           height="7.9639583"
           id="rect2403"
           transform="scale(-1,1)" />
      </g>
      <g
         transform="matrix(-1,0,0,1,-124.14558,0)"
         id="g2997">
        <path
           inkscape:connector-curvature="0"
           style="fill:#f9b499;stroke-width:0.24026604"
           d="m -27.392398,92.256922 h -2.162394 c 0,0 -1.326269,5.242605 2.808711,4.742851 l 1.681868,-0.60547 c 0,0 -1.876482,-2.143173 -2.328185,-4.137381 z"
           id="path1859" />
        <path
           inkscape:connector-curvature="0"
           style="fill:#dd63ff;fill-opacity:1;stroke-width:0.24026604"
           d="m -10.028359,95.971434 c 0,0 -0.08645,3.310867 7.1647291,2.736631 0,0 4.4881728,0.446894 7.6332501,-0.0865 1.7947897,-0.302735 3.2099605,-1.780371 3.277232,-3.603991 a 3.7145131,3.7145131 0 0 0 -0.5646245,-2.11674 4.2406958,4.2406958 0 0 0 -3.8442538,-1.73472 l -6.2925701,0.665536 -5.2474106,-0.867359 z"
           id="path1861" />
        <path
           inkscape:connector-curvature="0"
           style="fill:#f9b499;stroke-width:0.24026604"
           d="m -6.5445089,96.999773 -6.7947181,-2.354607 2.354602,-5.831257 5.7087209,3.022547 c 0,0 1.5329049,2.928843 -1.2686048,5.163317 z"
           id="path1863" />
        <rect
           style="fill:#2f2e41;stroke-width:0.24026604"
           x="-111.55758"
           y="-51.210743"
           width="78.117699"
           height="149.62569"
           rx="6.1772399"
           id="rect1865" />
        <rect
           style="fill:#f6f6f6;fill-opacity:1;stroke-width:0.24026604"
           x="-109.99826"
           y="-50.326569"
           width="75.054314"
           height="147.32634"
           rx="5.7015133"
           id="rect1867" />
        <path
           inkscape:connector-curvature="0"
           style="fill:#fd0f07;fill-opacity:1;stroke-width:0.24026604"
           d="m -37.90163,71.507545 0.816901,-10.509237 -0.631896,1.268605 c -4.279139,1.722708 -10.151244,-1.720304 -10.151244,-1.720304 l 5.074419,-11.508745 c 0,0 1.573742,-5.204162 10.120006,-5.045587 0,0 16.607198,1.061977 18.692705,4.77649 l 0.634302,5.345919 -2.808711,3.788996 a 15.377027,15.377027 0 0 0 -2.948067,7.726956 c -0.223445,2.436298 -0.343576,5.386764 0.05285,7.599615 0.01199,0 -13.142554,1.902907 -18.851275,-1.722708 z"
           id="path1869" />
        <path
           inkscape:connector-curvature="0"
           style="fill:#f9b499;stroke-width:0.24026604"
           d="m -17.877862,46.863457 c -0.929823,4.250306 -4.951881,5.168122 -4.951881,5.168122 -8.488601,1.239773 -10.345858,-6.588094 -10.345858,-6.588094 -0.264291,-2.385842 3.284442,-2.222461 3.284442,-2.222461 l 3.563145,-4.454533 4.966302,0.88418 z"
           id="path1871" />
        <path
           inkscape:connector-curvature="0"
           style="fill:#2f2e41;stroke-width:0.24026604"
           d="m -34.030942,-22.42687 h 0.240263 a 1.5280921,1.5280921 0 0 1 1.528092,1.528092 v 8.351648 a 1.5280921,1.5280921 0 0 1 -1.528092,1.528092 h -0.240263 z"
           id="path1873" />
        <path
           inkscape:connector-curvature="0"
           style="fill:#2f2e41;stroke-width:0.24026604"
           d="m -34.030942,-7.8643445 h 0.240263 a 1.5280921,1.5280921 0 0 1 1.528092,1.5280921 V 8.2911444 a 1.5280921,1.5280921 0 0 1 -1.528092,1.5280934 h -0.240263 z"
           id="path1875" />
        <rect
           style="fill:#bcbec0;stroke-width:0.24026604"
           x="-105.98581"
           y="32.0919"
           width="68.269196"
           height="11.672125"
           rx="2.7798781"
           id="rect1885" />
        <circle
           style="fill:#ffffff;stroke-width:0.24026604"
           cx="-100.39722"
           cy="38.206673"
           r="1.3695165"
           id="circle1891" />
        <circle
           style="fill:#ffffff;stroke-width:0.24026604"
           cx="-94.796616"
           cy="38.206673"
           r="1.3695165"
           id="circle1893" />
        <circle
           style="fill:#ffffff;stroke-width:0.24026604"
           cx="-89.241669"
           cy="38.206673"
           r="1.3695165"
           id="circle1895" />
        <circle
           style="fill:#ffffff;stroke-width:0.24026604"
           cx="-83.403198"
           cy="38.206673"
           r="1.3695165"
           id="circle1897" />
        <circle
           style="fill:#ffffff;stroke-width:0.24026604"
           cx="-77.949158"
           cy="38.206673"
           r="1.3695165"
           id="circle1899" />
        <circle
           style="fill:#ffffff;stroke-width:0.24026604"
           cx="-71.995377"
           cy="38.206673"
           r="1.3695165"
           id="circle1901" />
        <circle
           style="fill:#ffffff;stroke-width:0.24026604"
           cx="-66.466843"
           cy="38.206673"
           r="1.3695165"
           id="circle1903" />
        <rect
           style="fill:#bcbec0;stroke-width:0.24026604"
           x="-87.120117"
           y="49.984509"
           width="29.862669"
           height="10.081563"
           rx="5.0407815"
           id="rect1905" />
        <path
           inkscape:connector-curvature="0"
           style="fill:#2f2e41;stroke-width:0.24026604"
           d="m -15.931703,47.478539 v -6.967716 c 0,0 -1.907711,3.455025 -5.905741,3.202746 l -0.324361,2.039859 c 0,0 4.151797,0.980285 6.230102,1.725111 z"
           id="path1907" />
        <path
           inkscape:connector-curvature="0"
           style="fill:#2f2e41;stroke-width:0.24026604"
           d="m -16.972058,78.929363 c 0,0 -1.528093,0.814503 -2.075899,-5.708721 0,0 -12.820591,1.890894 -18.853673,-1.722707 0,0 -2.354611,0.273903 -1.631406,2.222461 0,0 9.786037,2.851958 16.309262,8.106576 z"
           id="path1909" />
        <path
           inkscape:connector-curvature="0"
           style="opacity:0.2;stroke-width:0.24026604"
           d="m -16.972058,78.929363 c 0,0 -1.528093,0.814503 -2.075899,-5.708721 0,0 -12.820591,1.890894 -18.853673,-1.722707 0,0 -2.354611,0.273903 -1.631406,2.222461 0,0 9.786037,2.851958 16.309262,8.106576 z"
           id="path1911" />
        <path
           inkscape:connector-curvature="0"
           style="fill:#2f2e41;stroke-width:0.24026604"
           d="m -41.524845,92.348223 c 0,0 -7.234407,-5.285854 -6.150808,-14.158879 a 4.67798,4.67798 0 0 1 1.681859,-3.085016 c 1.24939,-1.004311 3.363728,-2.011027 6.453548,-1.374322 0,0 10.87444,3.306061 16.309262,8.106577 l 12.231947,6.967715 c 0,0 1.1748988,6.705826 -4.939867,7.157526 l -11.458298,-4.348815 -4.983119,0.543001 c 0,0 -1.064375,-2.897609 -2.570845,-0.543001 l -5.583777,0.0913 a 0.96106417,0.96106417 0 0 0 -0.989902,0.643914 z"
           id="path1913" />
        <path
           inkscape:connector-curvature="0"
           style="opacity:0.07999998;fill:#ffffff;stroke-width:0.24026604"
           d="m -41.524845,92.348223 c 0,0 -7.234407,-5.285854 -6.150808,-14.158879 a 4.67798,4.67798 0 0 1 1.681859,-3.085016 c 1.24939,-1.004311 3.363728,-2.011027 6.453548,-1.374322 0,0 10.87444,3.306061 16.309262,8.106577 l 12.231947,6.967715 c 0,0 1.1748988,6.705826 -4.939867,7.157526 l -11.458298,-4.348815 -4.983119,0.543001 c 0,0 -1.064375,-2.897609 -2.570845,-0.543001 l -5.583777,0.0913 a 0.96106417,0.96106417 0 0 0 -0.989902,0.643914 z"
           id="path1915" />
        <path
           inkscape:connector-curvature="0"
           style="fill:#2f2e41;stroke-width:0.24026604"
           d="m -15.549677,78.254216 -7.674097,3.582367 12.231947,6.967715 4.3488174,2.35701 c 0,0 14.2261445,-5.25702 12.4938316,-13.048849 0,0 -0.362801,-7.429027 -10.6918408,-3.714513 l -9.9470142,3.577562 c -0.245067,0.100912 -0.516569,0.165783 -0.761644,0.278708 z"
           id="path1917" />
        <path
           inkscape:connector-curvature="0"
           style="fill:#2f2e41;stroke-width:0.24026604"
           d="m -24.492378,96.999773 c 0,0 -2.988913,-2.748643 -2.897613,-5.377154 l 8.933093,3.390154 c 0,0 -4.221475,1.655433 -6.03548,1.987 z"
           id="path1919" />
        <path
           inkscape:connector-curvature="0"
           style="fill:#dd63ff;fill-opacity:1;stroke-width:0.24026604"
           d="m -42.79345,97.51154 c 0,0 -1.540106,-2.626107 1.268605,-5.163317 0,0 -0.0961,-1.025936 1.85486,-0.648718 l 4.726029,-0.07689 c 0,0 3.603991,1.941349 1.057174,7.83027 0,0 -7.18636,1.230165 -8.906668,-1.94135 z"
           id="path1921" />
        <path
           inkscape:connector-curvature="0"
           style="fill:#dd63ff;fill-opacity:1;stroke-width:0.24026604"
           d="m -29.343352,91.836456 c 0,0 -1.761154,5.749566 2.587663,5.163317 0,0 -1.107627,1.518482 -5.045587,1.415168 0,0 0.15137,-2.020638 -0.581442,-6.246918 z"
           id="path1923" />
        <path
           inkscape:connector-curvature="0"
           style="fill:#dd63ff;fill-opacity:1;stroke-width:0.24026604"
           d="m -2.6570027,91.836456 c 0,0 -1.3574978,3.510287 -0.6487138,6.073926 0,0 -3.2652179,0.636705 -4.992727,-1.516079 l 2.3474001,-4.911038 z"
           id="path1925" />
        <path
           inkscape:connector-curvature="0"
           style="fill:#2f2e41;stroke-width:0.24026604"
           d="M -0.58830515,91.423199 C -1.2129999,92.143997 -2.7362882,94.457758 -1.4484591,98.813782 L -3.3081229,98.7393 c 0,0 -1.0403467,-5.074419 1.4415963,-8.080147 a 1.0451573,1.0451573 0 0 1 0.7616441,-0.396439 0.62228907,0.62228907 0 0 1 0.6150781,0.321957 0.73761677,0.73761677 0 0 1 -0.0985008,0.838528 z"
           id="path1927" />
        <polygon
           transform="matrix(0.24026605,0,0,0.24026605,-155.74973,-57.301486)"
           style="fill:#2f2e41"
           points="567.29,490.84 579.27,459.22 610.35,461.06 588.82,517.74 559.33,517.74 "
           id="polygon1929" />
        <path
           inkscape:connector-curvature="0"
           style="fill:#f9b499;stroke-width:0.24026604"
           d="m -46.101911,61.409164 c 0,0 -3.23398,6.833166 -2.614098,8.870622 0,0 0.530989,5.216176 8.224309,2.03265 l 12.645202,-4.067703 4.615514,-0.70398 a 5.4660526,5.4660526 0 0 0 1.986997,-0.720799 l 4.067708,-2.460324 a 1.2589941,1.2589941 0 0 0 0.586246,-1.297436 l -0.336376,-1.876478 a 1.2565914,1.2565914 0 0 0 -1.782766,-0.908206 l -2.128759,1.025936 a 3.4838577,3.4838577 0 0 1 -1.352703,0.34358 l -2.883193,0.141757 2.964885,-1.881282 a 0.67755026,0.67755026 0 0 0 -0.593457,-1.201331 15.014225,15.014225 0 0 0 -6.069115,4.21667 3.3276848,3.3276848 0 0 1 -2.227269,1.126848 c -2.859164,0.261889 -9.048421,0.860152 -9.92779,1.201329 l 1.681859,-2.566041 a 13.10411,13.10411 0 0 1 -3.89952,-0.240266 12.909494,12.909494 0 0 1 -2.957674,-1.035546 z"
           id="path1931" />
        <path
           inkscape:connector-curvature="0"
           style="fill:#f9b499;stroke-width:0.24026604"
           d="m -12.231599,60.649922 -0.415662,2.162395 -2.023038,1.311852 -1.201333,-2.724617 a 1.1508744,1.1508744 0 0 1 -0.07446,-0.216239 l -0.540605,-2.361815 a 0.50696136,0.50696136 0 0 1 0.177804,-0.514169 l 2.337783,-1.081198 a 0.30994321,0.30994321 0 0 1 0.413264,0.156173 l 1.297437,2.912025 a 0.61508109,0.61508109 0 0 1 0.02879,0.355593 z"
           id="path1933" />
        <path
           inkscape:connector-curvature="0"
           style="fill:#f9b499;stroke-width:0.24026604"
           d="m -14.891347,62.802706 -0.341179,4.291152 h 1.99901 a 0.96106417,0.96106417 0 0 0 0.961071,-1.01152 l -0.225852,-4.022053 z"
           id="path1935" />
        <path
           inkscape:connector-curvature="0"
           style="fill:#f9b499;stroke-width:0.24026604"
           d="m -18.339173,67.093858 c 0,0 4.84617,2.69098 6.006657,-0.622289 z"
           id="path1937" />
        <path
           inkscape:connector-curvature="0"
           style="fill:#2f2e41;stroke-width:0.24026604"
           d="m -32.373111,92.16562 c 0,0 1.333479,3.628018 0.40125,7.061419 a 1.4199724,1.4199724 0 0 1 -0.720798,0.915411 0.7544354,0.7544354 0 0 1 -0.855351,-0.0504 0.96106417,0.96106417 0 0 1 -0.281109,-1.107627 c 0.444493,-1.167693 1.429583,-4.46174 -0.564624,-6.804334 a 0.89859503,0.89859503 0 0 1 0.240263,-1.369517 c 0.514171,-0.300332 1.138857,-0.108119 1.780369,1.355101 z"
           id="path1939" />
        <path
           inkscape:connector-curvature="0"
           style="fill:#f4a48e;stroke-width:0.24026604"
           d="m -22.005632,44.746713 0.168188,-1.042755 c 0,0 -2.779879,-0.218641 -4.440116,-3.202746 0,0 0.07446,3.147485 4.271928,4.245501 z"
           id="path1941" />
        <ellipse
           style="fill:#f9b499;stroke-width:0.24026604"
           cx="-37.262405"
           cy="-16.587683"
           rx="8.6952286"
           ry="6.6025109"
           transform="rotate(-83.31)"
           id="ellipse1943" />
        <path
           inkscape:connector-curvature="0"
           style="fill:#2f2e41;stroke-width:0.24026604"
           d="m -21.851855,26.604223 c 0,0 4.495374,4.46895 7.335323,5.232996 0,0 0.401241,1.629003 0.324362,2.811112 0,0 2.594873,-1.866867 0.824111,-8.053718 0,0 -2.741439,-6.362245 -8.841793,-4.947078 0,0 -7.340127,0.240266 -8.22431,6.395882 0,0 -0.973075,10.848012 -1.148473,13.678347 0,0 4.862988,4.420895 5.747161,4.420895 0,0 -0.809691,-7.378571 -0.360394,-10.091174 l 0.182599,-3.959585 c 0,0 3.459831,-1.953363 4.161414,-5.487677 z"
           id="path1945" />
        <ellipse
           style="fill:#f9b499;stroke-width:0.24026604"
           cx="-26.808561"
           cy="33.624798"
           rx="2.1215491"
           ry="2.5348067"
           id="ellipse1947" />
        <path
           style="fill:url(#linearGradient2857);fill-opacity:1;stroke-width:2.76643276"
           inkscape:connector-curvature="0"
           d="m -64.171814,18.756311 h -5.532856 v -5.532865 h 5.532856 z M -69.70467,-0.6087187 h -5.532868 V 13.223446 h 5.532868 z m 22.13146,-5.5328656 h -5.532868 V 4.9241469 h 5.532868 z m -5.532868,-5.5328657 h -5.532868 v 5.5328657 h 5.532868 z m -33.197196,5.5328657 h -5.532868 v 5.5328656 h 5.532868 z m -5.532868,-5.5328657 h -5.532856 v 5.5328657 h 5.532856 z m 19.365038,-13.832164 h 5.532868 v -5.532865 h -5.532868 z m -20.748249,-1.383216 v 8.299298 h 8.299302 v -8.299298 z m 12.448947,12.448948 h -16.598592 v -16.598597 h 16.598592 z M -93.219353,6.3073634 v 8.2992996 h 8.299302 V 6.3073634 Z M -80.770406,18.756311 H -97.368998 V 2.1577141 h 16.598592 z m 20.748249,-45.646141 v 8.299298 h 8.299302 v -8.299298 z m 12.448947,12.448948 h -16.598604 v -16.598597 h 16.598604 z m -5.532868,27.664328 V 4.9241469 h -11.065736 v 5.5328661 h 5.532868 v 8.299298 H -47.57321 V 13.223446 Z M -58.638946,-6.1415843 H -69.70467 v 5.5328656 h 11.065724 z M -69.70467,-11.67445 h -16.598604 v 5.5328657 h 5.532868 v 5.5328656 h 5.532868 v -5.5328656 h 5.532868 z m 2.766434,-2.766432 v -5.532866 h -5.532868 v -5.532866 h -5.532868 v 11.065732 z m -20.056643,-10.374124 h -4.149646 v 4.14965 h 4.149646 z m 0,33.197194 h -4.149646 v 4.14965 h 4.149646 z m 33.197196,-33.197194 h -4.149657 v 4.14965 h 4.149657 z"
           id="path2833" />
      </g>
    </g>
  </g>
</svg>
