<?xml version="1.0" encoding="UTF-8" standalone="no"?>
<!-- Created with Inkscape (http://www.inkscape.org/) -->

<svg
   xmlns:dc="http://purl.org/dc/elements/1.1/"
   xmlns:cc="http://creativecommons.org/ns#"
   xmlns:rdf="http://www.w3.org/1999/02/22-rdf-syntax-ns#"
   xmlns:svg="http://www.w3.org/2000/svg"
   xmlns="http://www.w3.org/2000/svg"
   xmlns:sodipodi="http://sodipodi.sourceforge.net/DTD/sodipodi-0.dtd"
   xmlns:inkscape="http://www.inkscape.org/namespaces/inkscape"
   width="270.202mm"
   height="243.44456mm"
   viewBox="0 0 270.202 243.44456"
   version="1.1"
   id="svg8"
   sodipodi:docname="shorten-link.svg"
   inkscape:version="0.92.4 (5da689c313, 2019-01-14)">
  <defs
     id="defs2">
    <mask
       id="SvgjsMask1643">
      <rect
         style="fill:#ffffff"
         y="0"
         x="0"
         width="1920"
         height="750"
         id="rect848" />
    </mask>
    <linearGradient
       x1="0.1523"
       y1="1.39"
       x2="0.84769994"
       y2="-0.38999999"
       gradientUnits="userSpaceOnUse"
       id="SvgjsLinearGradient1644">
      <stop
         stop-color="rgba(96, 9, 38, 1)"
         offset="0"
         id="stop851" />
      <stop
         stop-color="rgba(248, 34, 150, 1)"
         offset="1"
         id="stop853" />
    </linearGradient>
  </defs>
  <sodipodi:namedview
     id="base"
     pagecolor="#ffffff"
     bordercolor="#666666"
     borderopacity="1.0"
     inkscape:pageopacity="0.0"
     inkscape:pageshadow="2"
     inkscape:zoom="0.55637809"
     inkscape:cx="455.12351"
     inkscape:cy="580.35883"
     inkscape:document-units="mm"
     inkscape:current-layer="layer1"
     showgrid="false"
     inkscape:window-width="1600"
     inkscape:window-height="838"
     inkscape:window-x="-8"
     inkscape:window-y="-8"
     inkscape:window-maximized="1" />
  <metadata
     id="metadata5">
    <rdf:RDF>
      <cc:Work
         rdf:about="">
        <dc:format>image/svg+xml</dc:format>
        <dc:type
           rdf:resource="http://purl.org/dc/dcmitype/StillImage" />
        <dc:title></dc:title>
      </cc:Work>
    </rdf:RDF>
  </metadata>
  <g
     inkscape:label="Layer 1"
     inkscape:groupmode="layer"
     id="layer1"
     transform="translate(204.86536,99.731013)">
    <g
       id="g3851">
      <g
         style="fill:#f6f7fa;fill-opacity:0.66666667"
         transform="matrix(1.457729,0,0,1.457729,-286.30079,-61.948455)"
         id="g2773">
        <path
           style="fill:#f6f7fa;fill-opacity:0.66666667;stroke-width:0.26458332"
           inkscape:connector-curvature="0"
           d="m 239.71734,93.461374 c 0,0 3.63802,-13.887979 -0.39688,-27.730979 a 37.335354,37.335354 0 0 0 -8.73125,-15.08125 c -5.89756,-6.265333 -25.08779,-28.310416 -29.08829,-53.5675405 0,0 -5.15937,-45.6406245 -80.78258,-8.3370205 0,0 -18.56581,11.06487459 -36.036249,10.3187496 0,0 -26.029708,-5.5959374 -28.646437,17.9466874 -0.989541,8.903229 2.365375,17.68475 8.73125,23.987125 4.955646,4.905375 9.789583,13.440833 3.598333,25.73602 0,0 -10.429874,9.657292 -1.812395,26.749375 z"
           id="path2303" />
        <path
           inkscape:connector-curvature="0"
           d="m 239.71734,93.461374 c 0,0 3.63802,-13.887979 -0.39688,-27.730979 a 37.335354,37.335354 0 0 0 -8.73125,-15.08125 c -5.89756,-6.265333 -25.08779,-28.310416 -29.08829,-53.5675405 0,0 -5.15937,-45.6406245 -80.78258,-8.3370205 0,0 -18.56581,11.06487459 -36.036249,10.3187496 0,0 -26.029708,-5.5959374 -28.646437,17.9466874 -0.989541,8.903229 2.365375,17.68475 8.73125,23.987125 4.955646,4.905375 9.789583,13.440833 3.598333,25.73602 0,0 -10.429874,9.657292 -1.812395,26.749375 z"
           style="opacity:0.8;isolation:isolate;fill:#f6f7fa;fill-opacity:0.66666667;stroke-width:0.26458332"
           id="path2305" />
        <path
           style="fill:#f6f7fa;fill-opacity:0.66666667;stroke-width:0.26458332"
           inkscape:connector-curvature="0"
           d="m 239.71734,101.42533 c 0,0 4.05871,37.76398 -47.14346,39.60284 a 78.120874,78.120874 0 0 1 -33.03852,-5.97165 c -11.06487,-4.66725 -30.6361,-10.94052 -52.89814,-9.13871 -8.13065,0.65881 -16.335379,-0.84402 -23.346837,-4.46087 -6.908271,-3.5613 -13.808604,-9.64671 -16.748125,-20.03161 z"
           id="path2307" />
        <path
           inkscape:connector-curvature="0"
           d="m 239.71734,101.42533 c 0,0 4.05871,37.76398 -47.14346,39.60284 a 78.120874,78.120874 0 0 1 -33.03852,-5.97165 c -11.06487,-4.66725 -30.6361,-10.94052 -52.89814,-9.13871 -8.13065,0.65881 -16.335379,-0.84402 -23.346837,-4.46087 -6.908271,-3.5613 -13.808604,-9.64671 -16.748125,-20.03161 z"
           style="opacity:0.8;isolation:isolate;fill:#f6f7fa;fill-opacity:0.66666667;stroke-width:0.26458332"
           id="path2309" />
        <rect
           style="opacity:1;fill:#f6f7fa;fill-opacity:0.66666667;stroke-width:0.26458332"
           x="-239.71735"
           y="93.461372"
           width="173.17508"
           height="7.9639583"
           id="rect2403"
           transform="scale(-1,1)" />
      </g>
      <ellipse
         transform="matrix(-0.96592583,0.25881904,0.25881904,0.96592583,0,0)"
         style="opacity:1;fill:#747274;fill-opacity:0.04651166;fill-rule:nonzero;stroke:none;stroke-width:6.38491535;stroke-linecap:butt;stroke-linejoin:miter;stroke-miterlimit:4;stroke-dasharray:none;stroke-dashoffset:0;stroke-opacity:1;paint-order:normal"
         id="path827"
         cx="66.332565"
         cy="-20.812483"
         rx="47.953171"
         ry="47.817524" />
      <g
         transform="matrix(0.26458333,0,0,0.26458333,-168.70124,-53.640171)"
         id="g1281">
        <polygon
           style="fill:#ffb6b6"
           points="130.261,555.88 144.768,555.879 151.669,499.923 130.258,499.925 "
           id="polygon1142" />
        <path
           style="fill:#2f2e41"
           inkscape:connector-curvature="0"
           d="m 321.85331,733.75953 44.61057,-0.002 v -0.56411 A 17.36462,17.36462 0 0 0 349.1002,715.83031 h -10e-4 l -8.14867,-6.182 -15.20364,6.183 -3.89422,9e-5 z"
           transform="translate(-192.10319,-162.74578)"
           id="path1144" />
        <polygon
           style="fill:#ffb6b6"
           points="66.979,555.88 81.486,555.879 88.387,499.923 66.976,499.925 "
           id="polygon1146" />
        <path
           style="fill:#2f2e41"
           inkscape:connector-curvature="0"
           d="m 258.57178,733.75953 44.61057,-0.002 v -0.56411 a 17.36463,17.36463 0 0 0 -17.36368,-17.36341 h -10e-4 l -8.14867,-6.182 -15.20364,6.183 -3.89423,9e-5 z"
           transform="translate(-192.10319,-162.74578)"
           id="path1148" />
        <path
           style="fill:#2f2e41"
           inkscape:connector-curvature="0"
           d="m 358.4847,413.73855 c 0,0 13.95767,42.86862 11.38135,48.51083 -2.57632,5.64221 -6.97188,1.24666 -2.57632,5.64222 4.39556,4.39556 8.23265,-0.27689 4.11632,7.18749 -4.11633,7.46438 -10.3524,68.91369 -13.09511,71.88833 -2.74271,2.97464 -6.51375,3.05444 -3.163,5.94491 3.35075,2.89047 7.74627,-2.97028 3.35071,2.89047 -4.39556,5.86075 -16.05937,141.06171 -16.05937,141.06171 h -22.78537 c 0,0 -5.67493,-6.54142 -2.46254,-10.79854 3.21239,-4.25712 -0.282,-5.89808 0,-8.74057 0.282,-2.84249 -0.78643,-8.971 -0.9848,-11.76748 -0.19837,-2.79648 -4.0491,-69.417 5.20219,-107.90088 l -16.86958,-73.27716 -20.43478,88.56523 c 0,0 9.39994,74.28765 0,98.169 0,0 7.57843,6.31069 4.2174,9.96789 -3.36103,3.6572 -6.2914,0.72682 -3.361,3.6572 2.9304,2.93038 -4.39556,13.18668 -4.39556,13.18668 L 255.657,696.46072 241.55894,557.657 c 0,0 -2.3766,-14.47561 0,-16.95605 2.3766,-2.48044 2.3766,6.31069 2.3766,-2.48043 v -11.7215 c 0,0 1.37658,-72.0941 1.56014,-76.33968 0.18356,-4.24558 17.76579,-35.01451 17.76579,-35.01451 z"
           transform="translate(-192.10319,-162.74578)"
           id="path1150" />
        <path
           style="fill:#dd63ff;fill-opacity:1"
           inkscape:connector-curvature="0"
           d="m 358.27681,265.67577 v 84.53 a 81.249,81.249 0 0 0 -4.17,25.38 c 0.09,14.37 3.25,30.93 3.24,38.17 a 9.45671,9.45671 0 0 1 -0.31,2.85 c -13.99,40.55 -88.02,3.7 -94.75,0.25 -0.32,-0.16 -0.49,-0.25 -0.49,-0.25 l 1.46,-45.42 -0.25,-13.06 -1.73,-89.59 1.55,-1.24 13.58,-10.83 1.33,-1.06 4.08,5.95 36.37,-2.5 13.88,-3.84 4.33,1.76 19.52,7.94 z"
           transform="translate(-192.10319,-162.74578)"
           id="path1152" />
        <path
           style="fill:#ffb6b6"
           inkscape:connector-curvature="0"
           d="m 485.0315,332.10117 -25.48732,-8.42665 -6.84518,13.88819 27.26378,7.95039 a 8.98633,8.98633 0 1 0 5.06873,-13.41193 z"
           transform="translate(-192.10319,-162.74578)"
           id="path1154" />
        <path
           style="fill:#dd63ff;fill-opacity:1"
           inkscape:connector-curvature="0"
           d="m 333.58807,257.45351 -0.1056,0.42189 c -1.99167,7.9676 -4.53442,30.72543 0.91434,36.87038 6.997,7.901 63.51687,32.02112 74.745,30.056 8.70858,-1.52413 6.91566,-1.01243 11.08222,3.32234 4.16656,4.33477 -2.74914,5.34721 6.545,6.10572 9.29414,0.75851 9.47947,-2.80053 11.47006,1.14635 1.99059,3.94688 0.21963,6.32533 6.545,6.10572 6.32537,-0.21961 7.911,0.961 10.0869,1.34887 2.1759,0.38787 15.83901,6.86422 15.83901,6.86422 0,0 5.48109,-15.63659 12.37961,-21.59122 0,0 -15.82194,-1.922 -17.01973,-5.2786 -1.19779,-3.3566 -0.21963,-6.32537 -4.369,-5.71789 -4.14937,0.60748 -6.30823,5.16186 -5.73505,-0.57319 0.57318,-5.73505 -29.31683,-16.89973 -29.31683,-16.89973 -18.03853,-17.76018 -55.09976,-30.09875 -93.06093,-42.18086 z"
           transform="translate(-192.10319,-162.74578)"
           id="path1156" />
        <path
           style="fill:#ffb6b6"
           inkscape:connector-curvature="0"
           d="m 252.72341,433.99657 -1.15612,-26.81931 -15.41287,-1.47713 2.23122,28.31155 a 8.98634,8.98634 0 1 0 14.33777,-0.0151 z"
           transform="translate(-192.10319,-162.74578)"
           id="path1158" />
        <path
           style="fill:#dd63ff;fill-opacity:1"
           inkscape:connector-curvature="0"
           d="m 268.83485,265.92573 -0.43192,0.0508 A 24.89043,24.89043 0 0 0 249.276,279.13581 c -4.90733,9.34358 -20.43214,72.62753 -16.63084,81.31222 3.545,8.0991 3.39835,6.10755 0.8222,11.54022 -2.57615,5.43267 -5.97452,-0.675 -3.38892,8.28443 2.5856,8.95943 5.9792,7.871 2.99434,11.1315 -2.98486,3.2605 -5.83665,2.44774 -3.38892,8.28443 2.44773,5.83669 1.90589,7.73785 2.31464,9.91 0.40875,2.17215 -0.80336,17.2438 -0.80336,17.2438 0,0 16.56414,-0.4182 24.57761,3.92131 0,0 -3.81184,-15.47572 -1.09787,-17.78566 2.71397,-2.30994 5.83669,-2.44777 3.79767,-6.11231 -2.03902,-3.66454 -7.06294,-4.0686 -1.49717,-5.56576 5.56577,-1.49716 5.409,-33.40389 5.409,-33.40389 z"
           transform="translate(-192.10319,-162.74578)"
           id="path1160" />
        <path
           style="fill:#ffb6b6"
           inkscape:connector-curvature="0"
           d="m 308.54683,231.74578 c -0.65,0.15 -1.3,0.28 -1.95,0.38 a 27.10211,27.10211 0 0 1 -6.01,0.31 28.36587,28.36587 0 1 1 28.98,-35.44 c 0.06,0.23 0.12,0.45 0.17,0.68 a 28.37691,28.37691 0 0 1 -21.19,34.07 z"
           transform="translate(-192.10319,-162.74578)"
           id="path1162" />
        <path
           style="fill:#2f2e41"
           inkscape:connector-curvature="0"
           d="m 282.36476,228.39815 c -3.94555,-3.08783 -4.32854,-8.97352 -7.6955,-12.68371 -5.6294,-6.20321 -8.27423,-12.877 -5.32535,-20.22729 2.60826,-6.5011 2.05387,-14.49254 7.67133,-18.67721 -2.759,-0.99874 -3.40824,-3.07282 -0.97389,-3.11112 1.64162,-0.0258 7.76142,3.11169 4.81671,-0.79681 -2.94471,-3.9085 2.62942,-2.36573 2.26071,-3.96561 -0.36871,-1.59988 -2.73287,-2.486 -3.77557,-1.2178 3.329,-3.90061 10.59878,-3.069 12.9609,1.48261 3.318,-4.97272 6.84005,-8.39442 11.91732,-5.23874 4.98668,3.09935 4.92149,6.93058 10.28394,6.00983 2.521,-0.43283 2.75915,4.33 4.48133,6.2212 1.72218,1.8912 4.23965,3.35488 6.753,2.8799 2.51335,-0.47498 4.43526,-3.60718 3.02689,-5.7424 l 5.92379,13.51424 2.38742,-2.92841 c 3.79356,2.47227 2.54757,8.92338 -1.271,11.3568 -3.81857,2.43342 -11.10621,-3.191 -13.17847,0.83489 -3.2666,6.34619 -10.92969,3.1416 -16.19239,-1.34327 -6.38183,-5.439 -14.08486,11.09835 -11.01065,18.89891 -3.18976,-3.13222 -9.09048,-0.53286 -10.7429,3.621 -1.65242,4.15386 -0.44076,8.83381 0.78417,13.13321 z"
           transform="translate(-192.10319,-162.74578)"
           id="path1164" />
        <path
           style="fill:#f2f2f2"
           inkscape:connector-curvature="0"
           d="m 438.41328,719.92127 a 2.26935,2.26935 0 0 1 -1.64469,-3.93333 l 0.1555,-0.61819 q -0.0307,-0.0743 -0.0618,-0.1484 a 6.09416,6.09416 0 0 0 -11.24138,0.0418 c -1.83859,4.42817 -4.17942,8.86389 -4.7558,13.54594 a 18.02893,18.02893 0 0 0 0.31649,6.20047 72.28134,72.28134 0 0 1 -6.57515,-30.02077 69.766,69.766 0 0 1 0.43274,-7.78294 q 0.3585,-3.17781 0.99471,-6.31034 a 73.11887,73.11887 0 0 1 14.50009,-30.98962 19.459,19.459 0 0 0 8.093,-8.39652 14.84338,14.84338 0 0 0 1.34991,-4.05618 c -0.394,0.0517 -1.48556,-5.94866 -1.1884,-6.31679 -0.54906,-0.83317 -1.53178,-1.24733 -2.13144,-2.06035 -2.98232,-4.0434 -7.0912,-3.33741 -9.2362,2.15727 -4.58224,2.31266 -4.6266,6.14806 -1.815,9.83683 1.78878,2.34681 2.03456,5.52233 3.60409,8.03478 -0.16151,0.20671 -0.32945,0.40695 -0.4909,0.61366 a 73.59114,73.59114 0 0 0 -7.681,12.16859 30.59255,30.59255 0 0 0 -1.82641,-14.20958 c -1.74819,-4.21732 -5.02491,-7.76915 -7.91045,-11.415 a 6.27922,6.27922 0 0 0 -11.184,3.08333 q -0.009,0.0806 -0.0173,0.1612 0.6429,0.36267 1.25864,0.76991 a 3.0782,3.0782 0 0 1 -1.24107,5.60175 l -0.0628,0.01 a 30.62827,30.62827 0 0 0 0.80734,4.57938 c -3.70179,14.31578 4.29011,19.52989 15.70147,19.76412 0.25191,0.12916 0.49739,0.25832 0.74929,0.38109 a 75.11456,75.11456 0 0 0 -4.04326,19.02779 71.24446,71.24446 0 0 0 0.0517,11.50322 l -0.0194,-0.13562 a 18.82569,18.82569 0 0 0 -6.4266,-10.87028 c -4.94561,-4.06263 -11.93283,-5.55868 -17.26826,-8.82425 a 3.533,3.533 0 0 0 -5.41121,3.43708 l 0.0218,0.14261 a 20.67715,20.67715 0 0 1 2.31871,1.11733 q 0.64288,0.36276 1.25864,0.76992 a 3.07824,3.07824 0 0 1 -1.24108,5.6018 l -0.0628,0.01 c -0.0452,0.006 -0.084,0.013 -0.12911,0.0194 a 30.65467,30.65467 0 0 0 5.63854,8.82923 c 2.31464,12.49712 12.256,13.68282 22.89023,10.04353 h 0.006 a 75.09193,75.09193 0 0 0 5.0444,14.72621 h 18.02018 c 0.0646,-0.20022 0.12274,-0.40693 0.1809,-0.60717 a 20.47436,20.47436 0 0 1 -4.9863,-0.297 c 1.337,-1.64058 2.674,-3.29409 4.011,-4.93462 a 1.11749,1.11749 0 0 0 0.084,-0.0969 c 0.67817,-0.8396 1.36282,-1.67283 2.041,-2.51246 l 3.6e-4,-0.001 a 29.99038,29.99038 0 0 0 -0.87875,-7.63984 z"
           transform="translate(-192.10319,-162.74578)"
           id="path1220" />
        <path
           style="fill:#cccccc"
           inkscape:connector-curvature="0"
           d="m 192.10319,736.06422 a 1.18647,1.18647 0 0 0 1.19007,1.19 h 253.29 a 1.19,1.19 0 1 0 0,-2.38 h -253.29 a 1.18651,1.18651 0 0 0 -1.19007,1.19 z"
           transform="translate(-192.10319,-162.74578)"
           id="path1222" />
        <path
           style="fill:#f2f2f2"
           inkscape:connector-curvature="0"
           d="m 300.58681,232.43578 6.01,-0.31 a 27.10211,27.10211 0 0 1 -6.01,0.31 z"
           transform="translate(-192.10319,-162.74578)"
           id="path1224" />
        <polygon
           style="fill:#3f3d56"
           points="143.304,95.29 140.644,98.67 117.674,127.88 84.304,93.72 85.634,92.66 92.714,77.61 129.084,75.11 139.964,92.27 144.294,94.03 "
           id="polygon1226" />
      </g>
      <path
         d="m -83.593021,-12.030986 14.891754,2.8961477 c 0.129431,0.025208 0.257105,0.053839 0.382812,0.086082 -0.221539,0.1118362 -0.436513,0.2362209 -0.643879,0.3725473 -0.641927,0.4238609 -1.204702,0.956822 -1.662853,1.5747434 l -13.41925,-2.6099216 c -0.871043,-0.2098668 -1.789761,-0.065784 -2.554738,0.4006645 -0.701845,0.4879739 -1.172963,1.2423305 -1.303479,2.0871198 -0.195957,0.8320145 -0.153573,2.2803041 0.313833,2.9959734 0.534088,0.7193961 1.331649,1.1976641 2.217812,1.3299412 l 14.891754,2.89614861 c 0.870943,0.20998071 1.789612,0.06608241 2.554639,-0.40014946 0.701973,-0.48810056 1.284384,-1.81497525 1.414827,-2.65995565 0.04902,-0.2490791 0.07359,-0.5023474 0.07323,-0.7562007 0.100957,-0.1664274 0.237102,-0.3087508 0.398889,-0.4169857 0.445768,-0.2440481 0.967531,-0.30987 1.459944,-0.1842083 l 0.479586,0.09322 c 0.05103,0.5735175 0.02017,1.1513807 -0.09164,1.7162011 -0.254104,1.4679328 -1.203734,3.3424512 -2.434831,4.1813729 -1.281884,0.8040819 -2.828381,1.0722942 -4.306166,0.7468205 l -14.89164,-2.89672075 c -1.491871,-0.25264605 -2.824756,-1.08131675 -3.711415,-2.30742845 -0.826377,-1.2395519 -1.003661,-3.3335007 -0.688415,-4.7895277 0.253812,-1.4681057 1.092067,-2.7705501 2.323175,-3.6096671 1.28193,-0.803873 2.828379,-1.071898 4.306063,-0.746308 z m 19.74967,3.8421235 14.891753,2.8961488 c 1.491868,0.2526378 2.824759,1.0812944 3.711425,2.3073941 0.826492,1.2396974 1.114993,2.76154635 0.799562,4.2177199 -0.25384,1.4680947 -1.203331,3.3428489 -2.434422,4.1819845 -1.281923,0.8038948 -2.828381,1.0719239 -4.306064,0.7463076 L -66.07285,3.2645437 c -0.129421,-0.025197 -0.257016,-0.054354 -0.382711,-0.086597 0.221318,-0.1117235 0.436086,-0.2359696 0.643265,-0.372136 0.642091,-0.4237999 1.205045,-0.9567237 1.663368,-1.5746457 l 13.419304,2.6096371 c 0.870943,0.2099779 1.789612,0.066082 2.554639,-0.4001495 0.701803,-0.4882208 1.284027,-1.8151207 1.414314,-2.6600562 0.195964,-0.83201081 0.04233,-1.70798547 -0.42508,-2.4236501 -0.534214,-0.7192235 -1.331793,-1.1972996 -2.217913,-1.3294316 l -14.891754,-2.8961488 c -0.870942,-0.2099901 -1.789616,-0.066093 -2.554638,0.4001495 -0.701669,0.4881009 -1.172598,1.2424819 -1.302967,2.0872238 -0.04904,0.2492475 -0.07369,0.5026854 -0.07334,0.7567109 -0.101132,0.1664324 -0.23745,0.3087198 -0.399398,0.4168868 -0.445771,0.2440368 -0.967523,0.3098676 -1.459944,0.1842083 l -0.479075,-0.093122 c -0.05104,-0.5735117 -0.02019,-1.1513715 0.09164,-1.7161852 0.25382,-1.4680999 1.09207,-2.770542 2.323171,-3.6096628 1.282088,-0.8039672 2.828745,-1.0719598 4.306577,-0.7462098 z"
         id="path881-6-8-9-3"
         inkscape:connector-curvature="0"
         style="fill:#ffffff;fill-opacity:1;stroke-width:0.26667786"
         sodipodi:nodetypes="cccccccccccccccccccccccccccccccccccccccccccccccccccc" />
      <g
         transform="matrix(-0.26458333,0,0,0.26458333,32.938243,-25.791269)"
         id="g1136">
        <path
           style="fill:#2f2e41"
           inkscape:connector-curvature="0"
           d="m 529.96429,271.023 c -1.85286,7.35735 -7.89056,22.15132 -7.94354,29.7812 l 0.41737,-0.53928 a 34.09917,34.09917 0 0 0 3.72993,4.04055 21.90272,21.90272 0 0 1 6.68115,-6.06947 26.21866,26.21866 0 0 0 -1.23234,10.3204 c 4.25322,8.94314 17.47476,2.90571 25.41426,0.78675 9.3214,8.13092 20.3814,9.07981 33.7146,1.86418 3.98574,-0.12966 8.4193,-0.48221 10.858,-3.17932 2.4387,-2.69711 -10.246,-16.48828 -9.20629,-19.943 7.40567,-24.60821 6.987,-21.93175 -2.71826,-31.31421 -2.13576,-2.06474 -2.59724,-5.51651 -5.11347,-7.42143 -3.49088,-2.64006 -8.33262,-2.93988 -12.78106,-3.10256 a 6.64655,6.64655 0 0 0 5.39622,-3.64942 5.99594,5.99594 0 0 0 -0.92173,-6.19056 c -1.90461,-2.36555 -5.33818,-3.42495 -8.50507,-3.37569 a 30.27478,30.27478 0 0 0 -9.03606,2.02883 16.51031,16.51031 0 0 0 -5.296,2.52231 4.57248,4.57248 0 0 0 -1.73458,4.91284 5.92357,5.92357 0 0 0 3.97923,3.269 15.50488,15.50488 0 0 0 4.0698,0.54071 31.0643,31.0643 0 0 0 -17.6254,5.61463 c -6.46019,4.66222 -10.28381,11.74861 -12.14676,19.10354 z"
           transform="translate(-421.82135,-160.86337)"
           id="path948" />
        <circle
           style="fill:#ffb6b6"
           cx="569.61176"
           cy="280.11102"
           r="25.12711"
           transform="rotate(-76.49097,256.65739,467.26163)"
           id="circle950" />
        <path
           style="fill:#2f2e41"
           inkscape:connector-curvature="0"
           d="m 552.83874,270.018 c 2.03679,4.16674 6.35327,5.01186 10.2856,5.37035 1.24038,0.11677 2.4856,0.21344 3.738,0.27982 0.37386,-0.62435 0.77792,-1.24143 1.20734,-1.8311 a 21.90266,21.90266 0 0 1 6.68115,-6.06945 25.812,25.812 0 0 0 -1.30519,8.13913 q 3.52584,0.0316 7.06511,-0.12535 a 7.934,7.934 0 0 0 8.46313,-6.92043 c 2.59337,3.18123 5.54636,6.10777 9.16454,7.01966 4.22392,0.89954 -2.459,-1.05851 -0.35322,-4.82893 1.71389,-2.786 2.40045,-6.30911 2.78175,-9.671 0.44841,-3.996 0.38414,-8.52029 -1.86072,-10.71177 -1.80117,-1.77577 -8.89519,3.90872 -11.30882,4.41609 -5.32382,1.14406 4.9317,-2.52822 -0.0465,-0.32153 l -0.30458,1.046 c 0.1633,-5.47154 -2.46836,-10.35678 -6.29161,-11.70165 -2.57735,-0.89633 -5.45013,-0.29675 -8.23467,0.33469 a 37.39133,37.39133 0 0 0 -10.33722,3.49631 20.58,20.58 0 0 0 -8.57731,8.99285 c -1.98536,4.13836 -2.52435,9.48766 -0.7668,13.08631 z"
           transform="translate(-421.82135,-160.86337)"
           id="path952" />
        <path
           style="fill:#2f2e41"
           inkscape:connector-curvature="0"
           d="m 576.16978,241.92174 c -0.25552,-0.0391 0.39366,-0.0325 0.17372,0.003 a 2.048,2.048 0 0 0 0.31964,-0.0899 c 0.0177,-0.006 0.25484,-0.11892 0.0981,-0.0384 a 2.01721,2.01721 0 0 0 0.86551,-0.74894 8.35646,8.35646 0 0 0 1.02879,-2.60005 8.75429,8.75429 0 0 1 1.44325,-3.36548 2.15456,2.15456 0 0 1 3.47709,0.0569 c 0.63043,1.00676 0.3675,2.38853 0.16477,3.48907 a 10.80241,10.80241 0 0 1 -1.15837,3.26373 9.87908,9.87908 0 0 1 -4.05,3.91218 10.3337,10.3337 0 0 1 -6.41062,1.05877 1.56955,1.56955 0 0 1 -0.44893,-2.83728 l 3.32186,-1.91806 a 1.5546422,1.5546422 0 1 1 1.62419,2.65135 l -3.32187,1.918 -0.44893,-2.83728 a 6.18242,6.18242 0 0 0 1.37778,0.0472 5.2055,5.2055 0 0 0 1.4501,-0.25976 6.45363,6.45363 0 0 0 1.30479,-0.51255 8.88046,8.88046 0 0 0 0.77436,-0.46 q 0.13625,-0.0907 0.26917,-0.18644 c -0.006,0.005 0.37055,-0.28937 0.20623,-0.153 a 8.76777,8.76777 0 0 0 1.14,-1.16654 3.53892,3.53892 0 0 0 0.3246,-0.47753 8.2304,8.2304 0 0 0 0.45153,-0.84741 8.075,8.075 0 0 0 0.571,-1.92169 8.18209,8.18209 0 0 0 0.11555,-0.84384 3.36867,3.36867 0 0 1 0.0208,-0.45853 c 0.0829,-0.36828 0.003,0.20805 0.17385,0.33952 l 0.71337,0.38967 a 0.85447,0.85447 0 0 0 0.70895,-0.21456 q 0.0932,-0.17782 -0.0431,0.0606 a 5.07466,5.07466 0 0 0 -0.27983,0.579 14.67633,14.67633 0 0 0 -0.44841,1.42021 14.77972,14.77972 0 0 1 -1.08484,2.95493 5.00542,5.00542 0 0 1 -5.15042,2.81588 1.56718,1.56718 0 0 1 -1.14846,-1.87478 1.58645,1.58645 0 0 1 1.87471,-1.14841 z"
           transform="translate(-421.82135,-160.86337)"
           id="path954" />
        <polygon
           style="fill:#ffb6b6"
           points="162.174,510.779 145.157,510.779 145.159,555.251 156.689,555.25 "
           id="polygon956" />
        <path
           style="fill:#2f2e41"
           inkscape:connector-curvature="0"
           d="m 582.34688,717.15172 v -7.81624 l -3.031,0.18517 -12.33831,0.731 -2.85555,0.17542 -2.18307,26.17758 -0.11695,1.40335 h 8.18654 l 0.26316,-1.39366 1.189,-6.33485 3.07,6.33485 0.67247,1.39366 h 21.70418 a 4.90408,4.90408 0 0 0 4.873,-4.88272 c 0.91602,-4.27845 -17.13344,-13.52728 -19.43347,-15.97356 z"
           transform="translate(-421.82135,-160.86337)"
           id="path958" />
        <polygon
           style="fill:#ffb6b6"
           points="56.048,514.396 42.037,504.74 16.8,541.356 26.293,547.899 "
           id="polygon960" />
        <path
           style="fill:#2f2e41"
           inkscape:connector-curvature="0"
           d="m 450.68405,711.79473 4.43594,-6.43554 -2.6007,-1.56773 -10.57362,-6.40046 -2.45068,-1.47618 -16.654,20.31446 -0.89277,1.08913 6.74042,4.6461 1.00761,-0.99813 4.57415,-4.541 -1.06752,6.95813 -0.23726,1.52912 17.87022,12.31774 a 4.904,4.904 0 0 0 6.78325,-1.25466 c 3.18248,-3.00286 -6.42962,-20.86154 -6.93504,-24.18098 z"
           transform="translate(-421.82135,-160.86337)"
           id="path962" />
        <path
           style="fill:#ffb6b6"
           inkscape:connector-curvature="0"
           d="m 725.76073,263.98546 a 8.18914,8.18914 0 0 1 -10.65658,4.111 7.857,7.857 0 0 1 -1.13848,-0.625 l -49.49522,37.49772 -15.55139,-13.16714 63.26538,-35.82357 a 8.16642,8.16642 0 0 1 9.65468,-2.48742 7.81523,7.81523 0 0 1 4.01066,10.299 q -0.0432,0.0984 -0.0891,0.19541 z"
           transform="translate(-421.82135,-160.86337)"
           id="path964" />
        <path
           style="fill:#f6ca2e;fill-opacity:1"
           inkscape:connector-curvature="0"
           d="m 580.41187,369.29973 c 0,0 -17.49171,-4.46325 -5.2384,-27.43336 12.25331,-22.97011 59.38108,-48.585 62.643,-48.90394 3.26192,-0.31894 0.61571,2.7893 6.26641,-2.334 4.59575,-4.16683 6.47695,-0.198 6.64773,-2.22406 0.45035,-5.34258 7.41715,3.75669 6.492,-2.80641 -0.92515,-6.5631 14.816,14.54747 14.816,14.54747 0,0 -0.005,3.91289 -8.27249,7.08742 -4.64364,1.783 -7.88313,0.27247 -7.77392,4.26722 0.10921,3.99475 -9.41543,2.50046 -10.6495,3.374 -1.23407,0.87354 -22.06308,28.62759 -22.06308,28.62759 z"
           transform="translate(-421.82135,-160.86337)"
           id="path966" />
        <ellipse
           style="fill:#ffffff"
           cx="746.76117"
           cy="293.3327"
           rx="3.60114"
           ry="5.17661"
           transform="rotate(-75.77932,432.49299,483.92858)"
           id="ellipse972" />
        <ellipse
           style="fill:#3f3d56"
           cx="712.91754"
           cy="293.11453"
           rx="3.60114"
           ry="5.17661"
           transform="rotate(-75.77932,398.64936,483.71043)"
           id="ellipse974" />
        <ellipse
           style="fill:#ff6584"
           cx="753.11218"
           cy="321.41113"
           rx="3.60114"
           ry="5.17661"
           transform="rotate(-75.77932,438.84397,512.00704)"
           id="ellipse976" />
        <ellipse
           style="fill:#e6e6e6"
           cx="763.75763"
           cy="333.01776"
           rx="3.27161"
           ry="2.2759099"
           transform="rotate(-83.62433,462.92743,488.37606)"
           id="ellipse978" />
        <ellipse
           style="fill:#3f3d56"
           cx="766.54059"
           cy="354.22562"
           rx="3.27161"
           ry="2.2759099"
           transform="rotate(-83.62433,465.71035,509.58391)"
           id="ellipse980" />
        <ellipse
           style="fill:#ff6584"
           cx="748.97198"
           cy="307.41122"
           rx="3.27161"
           ry="2.2759099"
           transform="rotate(-83.62433,448.14177,462.76953)"
           id="ellipse984" />
        <path
           style="fill:#2f2e41"
           inkscape:connector-curvature="0"
           d="m 624.0841,465.48668 0.297,-3.11895 -12.82393,-35.15788 -54.65065,10.53791 c 0,0 -28.16648,34.69834 -21.903,57.66443 1.69865,6.22839 -19.67434,47.596 -12.6402,43.13436 7.03414,-4.46164 -7.316,7.95691 -3.64093,8.24766 3.67507,0.29075 -2.09631,4.62059 -3.1894,6.98148 -25.17394,54.37159 -65.43442,125.36525 -65.43442,125.36525 0,0 8.37323,23.5394 21.58517,10.37782 13.21194,-13.16158 101.59658,-130.07988 101.59658,-130.07988 0,0 -1.19115,7.6121 -2.85225,19.18556 -5.13173,35.75456 -13.19255,107.73389 -6.03064,111.46052 a 36.32076,36.32076 0 0 0 18.54936,4.018 c 0,0 47.40079,-109.61016 41.13731,-130.48843"
           transform="translate(-421.82135,-160.86337)"
           id="path988" />
        <path
           style="fill:#f6ca2e;fill-opacity:1"
           inkscape:connector-curvature="0"
           d="m 591.77,318.84909 -5.08631,-10.57278 -27.55726,3.33869 -2.84945,8.626 a 100.04967,100.04967 0 0 0 -19.45622,27.4243 c -7.62525,16.28927 17.75232,88.244 13.57667,92.41968 -4.17565,4.17568 -19.64741,6.42562 -12.688,11.54107 6.95941,5.11545 0,1.844 -1.73437,7.68013 -1.73437,5.83613 -5.1493,29.06484 -5.1493,29.06484 0,0 26.49512,22.21017 43.19774,-11.195 24.358,2.08782 29.22957,-20.87827 29.22957,-20.87827 l 8.18883,-13.56268 c 10.62463,-4.86335 -5.753,-60.55517 -1.57738,-71.69024 C 614.04014,359.90976 591.77,318.84909 591.77,318.84909 Z"
           transform="translate(-421.82135,-160.86337)"
           id="path990" />
        <path
           style="fill:#2f2e41"
           inkscape:connector-curvature="0"
           d="m 616.95465,438.06781 c 0.0631,-4.09006 0.0508,-8.49452 1.867,-12.26317 1.36418,-2.8308 3.89625,-5.65828 7.23268,-5.89508 2.83674,-0.20134 6.05694,1.47615 6.318,4.55982 0.31031,3.66531 -2.776,7.16673 -5.275,9.48083 a 24.13131,24.13131 0 0 1 -10.68079,5.69036 1.51636,1.51636 0 0 0 -0.35832,2.74162 28.19471,28.19471 0 0 1 8.26147,6.92434 c 2.10811,2.60395 4.2878,6.04265 4.73286,9.43112 0.18961,1.44366 -0.0665,3.19873 -1.595,3.802 -1.45172,0.573 -3.21824,-0.17342 -4.46373,-0.91116 a 18.04276,18.04276 0 0 1 -6.605,-7.95147 20.3924,20.3924 0 0 1 -1.647,-11.75362 c 0.30955,-1.88862 -2.58084,-2.70107 -2.89284,-0.79751 -1.37458,8.38662 1.97214,18.37406 9.47569,22.9975 3.41425,2.10374 8.62232,2.47326 10.33647,-1.96636 1.55292,-4.022 -1.01659,-8.855 -3.16364,-12.16331 a 30.96315,30.96315 0 0 0 -10.92521,-10.202 l -0.35832,2.74163 a 27.27588,27.27588 0 0 0 11.71768,-6.20024 c 3.19267,-2.8669 6.63066,-7.12316 6.45339,-11.66687 -0.15934,-4.08406 -3.42237,-7.04557 -7.33427,-7.6427 -4.25323,-0.64924 -8.04845,1.66789 -10.48546,5.0281 -3.34278,4.60912 -3.52626,10.545 -3.61074,16.01611 a 1.50091,1.50091 0 0 0 3,0 z"
           transform="translate(-421.82135,-160.86337)"
           id="path992" />
        <path
           style="fill:#ffb6b6"
           inkscape:connector-curvature="0"
           d="m 495.12219,495.35139 a 8.18913,8.18913 0 0 0 3.57949,-10.84668 7.85633,7.85633 0 0 0 -0.68048,-1.10621 l 35.00643,-51.2875 -13.91944,-14.88183 -32.654,64.9581 a 8.16642,8.16642 0 0 0 -2.00736,9.76579 7.81523,7.81523 0 0 0 10.48463,3.4969 q 0.0961,-0.048 0.19073,-0.0986 z"
           transform="translate(-421.82135,-160.86337)"
           id="path994" />
        <path
           style="fill:#f6ca2e;fill-opacity:1"
           inkscape:connector-curvature="0"
           d="m 593.12634,344.97662 c 0,0 -5.322,-17.24982 -27.65867,-3.87656 -22.33667,13.37326 -45.59169,61.70908 -45.74911,64.98273 -0.15742,3.27365 2.81632,0.47714 -2.02156,6.37408 -3.93467,4.796 0.12225,6.47882 -1.89289,6.7495 -5.3138,0.71377 4.11857,7.22248 -2.48222,6.62273 -6.60079,-0.59975 15.26174,14.07915 15.26174,14.07915 0,0 3.90788,-0.1981 6.67,-8.61258 1.55139,-4.72606 -0.11736,-7.887 3.87791,-7.97525 3.99527,-0.0883 2.0322,-9.52748 2.84366,-10.8032 0.81146,-1.27572 27.50252,-23.45058 27.50252,-23.45058 z"
           transform="translate(-421.82135,-160.86337)"
           id="path996" />
        <path
           style="fill:#2f2e41"
           inkscape:connector-curvature="0"
           d="m 558.1691,259.87515 c 16.42407,-18.94122 -12.77167,31.20981 9.03933,50.76069 -8.88958,7.05334 -41.496,4.55085 -39.65352,0 1.84248,-4.55085 7.88189,-47.97051 14.3622,-50.76069 6.48031,-2.79018 16.25199,0 16.25199,0 z"
           transform="translate(-421.82135,-160.86337)"
           id="path998" />
        <ellipse
           style="fill:#ffffff"
           cx="530.76117"
           cy="496.3327"
           rx="3.60114"
           ry="5.17661"
           transform="rotate(-75.77932,216.49299,686.92859)"
           id="ellipse1000" />
        <ellipse
           style="fill:#3f3d56"
           cx="496.91757"
           cy="496.11453"
           rx="3.60114"
           ry="5.17661"
           transform="rotate(-75.77932,182.64936,686.71043)"
           id="ellipse1002" />
        <ellipse
           style="fill:#ff6584"
           cx="537.11218"
           cy="524.41113"
           rx="3.60114"
           ry="5.17661"
           transform="rotate(-75.77932,222.84397,715.00704)"
           id="ellipse1004" />
        <ellipse
           style="fill:#e6e6e6"
           cx="547.75763"
           cy="536.01776"
           rx="3.27161"
           ry="2.2759099"
           transform="rotate(-83.62433,246.92744,691.37606)"
           id="ellipse1006" />
        <ellipse
           style="fill:#3f3d56"
           cx="550.54059"
           cy="557.22559"
           rx="3.27161"
           ry="2.2759099"
           transform="rotate(-83.62433,249.71035,712.5839)"
           id="ellipse1008" />
        <ellipse
           style="fill:#e6e6e6"
           cx="515.94025"
           cy="516.80969"
           rx="3.27161"
           ry="2.2759099"
           transform="rotate(-83.62433,215.11007,672.16797)"
           id="ellipse1010" />
        <ellipse
           style="fill:#ff6584"
           cx="532.97198"
           cy="510.41122"
           rx="3.27161"
           ry="2.2759099"
           transform="rotate(-83.62433,232.14177,665.76952)"
           id="ellipse1012" />
        <ellipse
           style="fill:#3f3d56"
           cx="511.98969"
           cy="493.12469"
           rx="3.27161"
           ry="2.2759099"
           transform="rotate(-83.62433,211.15947,648.48301)"
           id="ellipse1014" />
        <ellipse
           style="fill:#ffffff"
           cx="729.76117"
           cy="446.3327"
           rx="3.60114"
           ry="5.17661"
           transform="rotate(-75.77932,415.49299,636.92859)"
           id="ellipse1016" />
        <ellipse
           style="fill:#3f3d56"
           cx="695.91754"
           cy="446.11453"
           rx="3.60114"
           ry="5.17661"
           transform="rotate(-75.77932,381.64936,636.71043)"
           id="ellipse1018" />
        <ellipse
           style="fill:#ff6584"
           cx="736.11218"
           cy="474.41113"
           rx="3.60114"
           ry="5.17661"
           transform="rotate(-75.77932,421.84397,665.00704)"
           id="ellipse1020" />
        <ellipse
           style="fill:#e6e6e6"
           cx="746.75763"
           cy="486.01776"
           rx="3.27161"
           ry="2.2759099"
           transform="rotate(-83.62433,445.92743,641.37606)"
           id="ellipse1022" />
        <ellipse
           style="fill:#3f3d56"
           cx="749.54059"
           cy="507.22562"
           rx="3.27161"
           ry="2.2759099"
           transform="rotate(-83.62433,448.71035,662.58391)"
           id="ellipse1024" />
        <ellipse
           style="fill:#e6e6e6"
           cx="714.94025"
           cy="466.80969"
           rx="3.27161"
           ry="2.2759099"
           transform="rotate(-83.62433,414.11007,622.16798)"
           id="ellipse1026" />
        <ellipse
           style="fill:#ff6584"
           cx="731.97198"
           cy="460.41122"
           rx="3.27161"
           ry="2.2759099"
           transform="rotate(-83.62433,431.14177,615.76952)"
           id="ellipse1028" />
        <ellipse
           style="fill:#3f3d56"
           cx="710.98969"
           cy="443.12469"
           rx="3.27161"
           ry="2.2759099"
           transform="rotate(-83.62433,410.15946,598.48301)"
           id="ellipse1030" />
        <ellipse
           style="fill:#ffffff"
           cx="460.7612"
           cy="296.3327"
           rx="3.60114"
           ry="5.17661"
           transform="rotate(-75.77932,146.49299,486.92858)"
           id="ellipse1032" />
        <ellipse
           style="fill:#3f3d56"
           cx="426.91757"
           cy="296.11453"
           rx="3.60114"
           ry="5.17661"
           transform="rotate(-75.77932,112.64936,486.71043)"
           id="ellipse1034" />
        <ellipse
           style="fill:#ff6584"
           cx="467.11218"
           cy="324.41113"
           rx="3.60114"
           ry="5.17661"
           transform="rotate(-75.77932,152.84397,515.00704)"
           id="ellipse1036" />
        <ellipse
           style="fill:#e6e6e6"
           cx="477.75763"
           cy="336.01776"
           rx="3.27161"
           ry="2.2759099"
           transform="rotate(-83.62433,176.92743,491.37607)"
           id="ellipse1038" />
        <ellipse
           style="fill:#3f3d56"
           cx="480.54056"
           cy="357.22562"
           rx="3.27161"
           ry="2.2759099"
           transform="rotate(-83.62433,179.71036,512.5839)"
           id="ellipse1040" />
        <ellipse
           style="fill:#e6e6e6"
           cx="445.94028"
           cy="316.80969"
           rx="3.27161"
           ry="2.2759099"
           transform="rotate(-83.62433,145.11007,472.16797)"
           id="ellipse1042" />
        <ellipse
           style="fill:#ff6584"
           cx="462.97198"
           cy="310.41122"
           rx="3.27161"
           ry="2.2759099"
           transform="rotate(-83.62433,162.14178,465.76952)"
           id="ellipse1044" />
        <ellipse
           style="fill:#3f3d56"
           cx="441.98969"
           cy="293.12469"
           rx="3.27161"
           ry="2.2759099"
           transform="rotate(-83.62433,141.15947,448.48301)"
           id="ellipse1046" />
        <ellipse
           style="fill:#ffffff"
           cx="619.76117"
           cy="167.33269"
           rx="3.60114"
           ry="5.17661"
           transform="rotate(-75.77932,305.49298,357.92859)"
           id="ellipse1048" />
        <ellipse
           style="fill:#3f3d56"
           cx="585.91754"
           cy="167.11453"
           rx="3.60114"
           ry="5.17661"
           transform="rotate(-75.77932,271.64937,357.71042)"
           id="ellipse1050" />
        <ellipse
           style="fill:#ff6584"
           cx="626.11218"
           cy="195.41113"
           rx="3.60114"
           ry="5.17661"
           transform="rotate(-75.77932,311.84398,386.00704)"
           id="ellipse1052" />
        <ellipse
           style="fill:#e6e6e6"
           cx="636.75763"
           cy="207.01776"
           rx="3.27161"
           ry="2.2759099"
           transform="rotate(-83.62433,335.92743,362.37606)"
           id="ellipse1054" />
        <ellipse
           style="fill:#3f3d56"
           cx="639.54059"
           cy="228.22562"
           rx="3.27161"
           ry="2.2759099"
           transform="rotate(-83.62433,338.71036,383.58391)"
           id="ellipse1056" />
        <ellipse
           style="fill:#e6e6e6"
           cx="604.94025"
           cy="187.80968"
           rx="3.27161"
           ry="2.2759099"
           transform="rotate(-83.62433,304.11007,343.16798)"
           id="ellipse1058" />
        <ellipse
           style="fill:#ff6584"
           cx="621.97198"
           cy="181.41122"
           rx="3.27161"
           ry="2.2759099"
           transform="rotate(-83.62433,321.14178,336.76952)"
           id="ellipse1060" />
        <ellipse
           style="fill:#3f3d56"
           cx="600.98969"
           cy="164.12471"
           rx="3.27161"
           ry="2.2759099"
           transform="rotate(-83.62433,300.15947,319.48302)"
           id="ellipse1062" />
        <path
           style="fill:#f2f2f2"
           inkscape:connector-curvature="0"
           d="m 667.26676,721.80367 a 2.26935,2.26935 0 0 0 1.64469,-3.93333 l -0.1555,-0.61819 q 0.0307,-0.0743 0.0618,-0.14839 a 6.09416,6.09416 0 0 1 11.24139,0.0418 c 1.83859,4.42817 4.17942,8.86389 4.75579,13.54594 a 18.02871,18.02871 0 0 1 -0.31648,6.20047 72.28153,72.28153 0 0 0 6.57515,-30.02077 69.76619,69.76619 0 0 0 -0.43274,-7.783 q -0.3585,-3.17779 -0.99471,-6.31033 a 73.11887,73.11887 0 0 0 -14.50013,-30.98957 19.459,19.459 0 0 1 -8.093,-8.39652 14.84349,14.84349 0 0 1 -1.34991,-4.05618 c 0.394,0.0517 1.48556,-5.94866 1.1884,-6.3168 0.54906,-0.83317 1.53178,-1.24732 2.13144,-2.06034 2.98232,-4.0434 7.0912,-3.33741 9.2362,2.15727 4.58224,2.31266 4.6266,6.14806 1.815,9.83683 -1.78878,2.34681 -2.03456,5.52232 -3.60409,8.03478 0.16151,0.20671 0.32945,0.407 0.4909,0.61366 a 73.59114,73.59114 0 0 1 7.681,12.16859 30.59253,30.59253 0 0 1 1.82647,-14.20956 c 1.74819,-4.21732 5.02491,-7.76916 7.91045,-11.415 a 6.27922,6.27922 0 0 1 11.184,3.08333 q 0.009,0.0806 0.0173,0.16119 -0.6429,0.36267 -1.25864,0.76992 a 3.0782,3.0782 0 0 0 1.24107,5.60174 l 0.0628,0.01 a 30.62792,30.62792 0 0 1 -0.80734,4.57937 c 3.70179,14.31579 -4.29012,19.5299 -15.70148,19.76413 -0.2519,0.12916 -0.49738,0.25832 -0.74928,0.38108 a 75.11456,75.11456 0 0 1 4.04326,19.02779 71.24344,71.24344 0 0 1 -0.0517,11.50323 l 0.0194,-0.13562 a 18.82566,18.82566 0 0 1 6.4266,-10.87028 c 4.94561,-4.06264 11.93283,-5.55869 17.26826,-8.82425 a 3.533,3.533 0 0 1 5.41121,3.43708 l -0.0218,0.14261 a 20.67541,20.67541 0 0 0 -2.31871,1.11733 q -0.6429,0.36276 -1.25864,0.76992 a 3.07824,3.07824 0 0 0 1.24108,5.6018 l 0.0628,0.01 c 0.0452,0.006 0.084,0.013 0.12911,0.0194 a 30.65462,30.65462 0 0 1 -5.63854,8.82922 c -2.31464,12.49713 -12.256,13.68283 -22.89023,10.04354 h -0.006 a 75.09193,75.09193 0 0 1 -5.0444,14.72621 h -18.02017 c -0.0646,-0.20022 -0.12274,-0.40693 -0.1809,-0.60717 a 20.47486,20.47486 0 0 0 4.9863,-0.297 c -1.337,-1.64059 -2.674,-3.29409 -4.011,-4.93462 a 1.119,1.119 0 0 1 -0.084,-0.0969 c -0.67817,-0.8396 -1.36282,-1.67283 -2.041,-2.51246 l -3.7e-4,-10e-4 a 29.99051,29.99051 0 0 1 0.87876,-7.63985 z"
           transform="translate(-421.82135,-160.86337)"
           id="path1064" />
        <path
           style="fill:#cccccc"
           inkscape:connector-curvature="0"
           d="m 465.71541,737.94662 a 1.18647,1.18647 0 0 0 1.19007,1.19 h 253.29 a 1.19,1.19 0 1 0 0,-2.38 h -253.29 a 1.18651,1.18651 0 0 0 -1.19007,1.19 z"
           transform="translate(-421.82135,-160.86337)"
           id="path1066" />
      </g>
      <text
         id="text1631"
         y="13.456317"
         x="-75.58252"
         style="font-style:normal;font-variant:normal;font-weight:normal;font-stretch:normal;font-size:14.11111069px;line-height:1.25;font-family:'Open Sans';-inkscape-font-specification:'Open Sans';text-align:center;letter-spacing:0px;word-spacing:0px;text-anchor:middle;fill:#000000;fill-opacity:1;stroke:none;stroke-width:0.26458332"
         xml:space="preserve"><tspan
           style="stroke-width:0.26458332"
           y="25.959454"
           x="-75.58252"
           id="tspan1629"
           sodipodi:role="line" /></text>
      <g
         transform="matrix(0.23503901,0.03722652,-0.03722652,0.23503901,-123.2881,20.955244)"
         id="g3751">
        <polygon
           points="643.457,221.721 705.39,159.977 643.457,98.233 662.339,79.414 743.154,159.977 662.339,240.54 "
           style="isolation:isolate;fill:#dfdddb;fill-opacity:1"
           id="polygon3595"
           transform="matrix(0.26458333,0,0,0.26458333,-16.368615,-120.73562)" />
      </g>
      <g
         transform="matrix(0.23503901,0.03722652,-0.03722652,0.23503901,-76.581174,3.0697973)"
         id="g3755">
        <polygon
           points="370.486,159.348 432.419,97.604 413.537,78.785 332.785,159.348 413.6,239.911 432.482,221.092 "
           style="isolation:isolate;fill:#dfdddb;fill-opacity:1"
           id="polygon3603"
           transform="matrix(0.26458333,0,0,0.26458333,-20.304219,-131.36926)" />
      </g>
      <text
         id="text3759"
         y="13.413977"
         x="-69.572548"
         style="font-style:normal;font-variant:normal;font-weight:normal;font-stretch:normal;font-size:14.11111069px;line-height:1.25;font-family:'Open Sans';-inkscape-font-specification:'Open Sans';text-align:center;letter-spacing:0px;word-spacing:0px;text-anchor:middle;fill:#000000;fill-opacity:1;stroke:none;stroke-width:0.26458332"
         xml:space="preserve"><tspan
           style="stroke-width:0.26458332"
           y="25.917112"
           x="-69.572548"
           id="tspan3757"
           sodipodi:role="line" /></text>
    </g>
  </g>
</svg>
